<?xml version="1.0" encoding="UTF-8" standalone="no"?>
<!DOCTYPE svg PUBLIC "-//W3C//DTD SVG 1.1//EN" "http://www.w3.org/Graphics/SVG/1.1/DTD/svg11.dtd">
<svg width="100%" height="100%" viewBox="0 0 767 1116" version="1.1" xmlns="http://www.w3.org/2000/svg" xmlns:xlink="http://www.w3.org/1999/xlink" xml:space="preserve" xmlns:serif="http://www.serif.com/" style="fill-rule:evenodd;clip-rule:evenodd;stroke-linejoin:round;stroke-miterlimit:2;">
    <g transform="matrix(1,0,0,1,-20,-20)">
        <path d="M383.256,48.87C384.306,48.87 385.356,48.86 386.436,48.86C387.556,48.86 388.686,48.86 389.846,48.87C391.006,48.87 392.166,48.86 393.366,48.86C395.816,48.86 398.276,48.86 400.726,48.87C404.486,48.87 408.246,48.87 412.006,48.86C414.386,48.86 416.776,48.86 419.156,48.87C420.286,48.86 421.406,48.86 422.566,48.86C423.096,48.86 423.096,48.86 425.746,48.87L428.536,48.87C430.846,48.99 432.786,49.38 434.996,50C436.616,50.16 438.246,50.29 439.866,50.39C467.036,52.27 493.416,57.84 519.376,66.06C519.876,66.22 519.876,66.22 522.416,67.02C528.246,68.92 533.786,71.17 539.336,73.78C541.876,74.94 544.426,75.98 547.026,76.99C552.356,79.09 557.456,81.55 562.566,84.12C563.036,84.36 563.036,84.36 565.446,85.57C578.462,92.177 591.008,99.672 602.996,108C603.546,108.37 603.546,108.37 606.286,110.26C618.936,119.07 630.866,128.79 642.126,139.32C644.096,141.16 646.076,142.98 648.086,144.78C654.486,150.51 660.386,156.49 665.996,163L668.696,166.03C695.896,196.88 718.606,233.43 732.996,272C733.466,273.17 733.926,274.35 734.406,275.56C737.726,283.98 740.506,292.54 743.186,301.19C743.516,302.26 743.856,303.32 744.196,304.42C747.396,314.91 749.906,325.47 751.566,336.31C752.206,340.49 752.876,344.55 753.986,348.63C755.586,354.83 756.056,361.21 756.626,367.56C756.686,368.28 756.756,369 756.826,369.74C759.406,399.14 759.626,429.68 755.996,459L755.696,461.55C755.046,466.75 754.276,471.92 753.456,477.09C752.956,480.26 752.506,483.43 752.046,486.6C747.386,517.77 738.766,548.08 728.996,578C728.416,579.82 727.826,581.64 727.246,583.46C725.076,590.16 722.856,596.77 719.856,603.15C717.886,607.39 716.396,611.84 714.876,616.26C714.466,617.45 714.056,618.65 713.626,619.87C713.246,620.99 712.866,622.1 712.476,623.24C711.046,627.11 709.166,630.72 707.296,634.39C705.196,638.62 703.396,642.97 701.566,647.31C695.766,660.82 689.366,674.02 682.876,687.21C682.026,688.96 681.166,690.7 680.316,692.45C673.236,706.95 665.716,721.1 657.666,735.08C655.946,738.09 654.266,741.12 652.596,744.15C645.136,757.674 637.242,770.954 628.926,783.97C626.976,787.04 625.036,790.11 623.096,793.18C606.346,819.63 588.546,845.42 570.276,870.84C568.726,872.98 567.196,875.13 565.666,877.29C559.156,886.46 552.496,895.51 545.806,904.55C544.046,906.93 542.306,909.31 540.556,911.7C533.766,920.96 526.876,930.12 519.896,939.23C515.126,945.47 510.496,951.8 505.936,958.19C501.716,964.07 497.346,969.82 492.936,975.56C487.091,983.184 481.419,990.939 475.926,998.82C472.826,1003.27 469.626,1007.67 466.436,1012.06C460.491,1020.281 454.677,1028.595 448.996,1037C448.766,1037.35 448.766,1037.35 447.556,1039.14C432.506,1061.41 418.536,1084.21 405.996,1108L403.996,1108C396.406,1091.12 395.606,1073.02 395.496,1054.81L395.466,1052.27C395.316,1036.42 397.626,1021.13 403.066,1006.19C403.356,1005.38 403.646,1004.56 403.946,1003.73C416.916,968.99 440.516,938.46 465.626,911.56C467.636,909.39 469.576,907.19 471.496,904.94C474.796,901.12 478.366,897.6 481.956,894.07C485.196,890.85 488.226,887.51 491.196,884.03C494.106,880.76 497.246,877.74 500.376,874.69C502.426,872.59 504.336,870.47 506.246,868.25C510.986,862.78 516.176,857.78 521.326,852.71C525.566,848.51 529.616,844.24 533.506,839.71C535.806,837.08 538.296,834.68 540.816,832.25C542.706,830.3 544.496,828.3 546.286,826.25C550.516,821.37 554.956,816.69 559.396,812C563.166,808.01 566.836,803.95 570.436,799.8C572.376,797.56 574.376,795.37 576.376,793.19C580.266,788.87 583.966,784.43 587.626,779.91C589.719,777.354 591.839,774.821 593.986,772.31C599.736,765.58 605.256,758.7 610.676,751.7C611.946,750.07 613.216,748.45 614.496,746.82C628.166,729.28 639.556,711.4 649.086,691.27C652.756,683.54 656.556,675.89 660.426,668.25C681.336,626.89 700.566,583.17 712.396,538.27C712.986,536.05 713.616,533.84 714.256,531.64C715.566,527.11 716.796,522.56 717.996,518C718.226,517.16 718.456,516.31 718.686,515.44C729.276,475.35 732.356,435.32 730.996,394C730.966,392.9 730.926,391.8 730.896,390.67L730.536,380.68L730.416,377.57L730.296,374.7C730.266,373.86 730.236,373.02 730.196,372.16C729.996,370 729.996,370 728.996,367C728.756,364.67 728.526,362.33 728.316,360C726.276,341.49 721.346,323.48 715.996,305.69C715.796,305 715.596,304.32 715.386,303.62C712.536,294.09 709.066,285.09 704.996,276C704.356,274.49 703.716,272.98 703.086,271.47C688.896,238.27 668.306,208.58 643.996,182C643.126,181.02 642.246,180.03 641.336,179.02C635.576,172.59 629.566,166.63 622.996,161C622.016,160.14 621.026,159.27 620.016,158.39C571.486,116.28 510.586,91.1 446.996,84C445.946,83.88 444.896,83.76 443.806,83.64C394.556,78.34 344.166,82.87 296.996,98C295.286,98.52 293.566,99.05 291.846,99.57C257.446,110.48 224.716,130.19 196.996,153C196.456,153.44 195.916,153.89 195.356,154.35C186.956,161.27 178.886,168.51 170.996,176C170.176,176.78 169.346,177.56 168.496,178.37C163.726,183.02 159.466,187.94 155.306,193.14C152.986,196.02 150.596,198.82 148.186,201.62C137.536,214.43 128.696,228.35 120.326,242.72C119.146,244.75 117.956,246.77 116.746,248.78C109.176,261.69 103.166,274.91 98.376,289.07C97.186,292.53 95.826,295.89 94.376,299.25C86.006,319.08 81.916,341.05 79.336,362.34C78.986,365.08 78.576,367.8 78.156,370.52C74.376,396.18 74.446,423.3 77.996,449C78.136,450.03 78.266,451.06 78.406,452.12C82.256,481.45 88.686,510.58 99.996,538C100.336,538.83 100.676,539.65 101.026,540.51C112.956,569.43 127.726,596.34 146.996,621C147.736,621.94 148.466,622.89 149.216,623.86C153.156,628.89 157.316,633.67 161.626,638.38C162.916,639.81 164.206,641.24 165.456,642.7C170.216,648.25 175.306,653.46 180.486,658.62C181.936,660.06 183.376,661.51 184.816,662.95C189.526,667.67 194.296,672.24 199.356,676.58C201.976,678.84 204.346,681.32 206.746,683.81C208.566,685.58 210.406,687.21 212.336,688.85C218.376,694.09 223.966,699.82 229.606,705.48C231.556,707.43 233.516,709.38 235.466,711.33C241.526,717.38 247.486,723.44 252.996,730C254.056,731.2 255.116,732.41 256.176,733.6C263.116,741.51 269.746,749.54 275.996,758C276.496,758.67 276.996,759.35 277.516,760.04C290.996,778.28 302.796,797.28 313.996,817C314.406,817.71 314.806,818.42 315.226,819.15C341.866,866.37 355.936,919.21 365.876,972.12C366.066,973.15 366.266,974.18 366.466,975.24C368.416,985.69 370.196,996.11 371.516,1006.66C372.156,1011.07 373.176,1015.34 374.226,1019.67C375.516,1025.22 376.456,1030.85 377.446,1036.46C379.476,1047.83 381.786,1058.94 385.256,1069.98C387.086,1075.82 387.086,1075.82 385.996,1078C385.696,1077.51 385.396,1077.02 385.076,1076.52C377.056,1063.67 368.736,1051.04 360.246,1038.5C359.766,1037.78 359.286,1037.07 358.786,1036.33C352.336,1026.79 345.746,1017.35 338.996,1008C338.706,1007.59 338.706,1007.59 337.226,1005.53C325.866,989.71 314.306,974.04 302.606,958.48C298.386,952.87 294.216,947.22 290.066,941.56C285.036,934.71 279.916,927.93 274.746,921.19C269.116,913.82 263.626,906.39 258.286,898.81C255.776,895.27 253.226,891.76 250.686,888.25C250.136,887.49 249.586,886.73 249.026,885.95L240.776,874.55C206.466,827.27 174.026,778.28 145.996,727C145.516,726.12 145.036,725.23 144.536,724.33C141.456,718.72 138.396,713.1 135.346,707.48C134.186,705.34 133.016,703.21 131.846,701.08C122.196,683.39 113.996,664.94 105.776,646.56C101.046,636.01 101.046,636.01 98.716,631.43C97.262,628.539 95.999,625.556 94.936,622.5C93.346,617.98 91.696,613.48 89.996,609C89.536,607.77 89.076,606.55 88.606,605.28C88.376,604.67 88.146,604.05 87.906,603.42C87.406,602.09 86.906,600.75 86.406,599.42C85.106,595.93 83.786,592.45 82.456,588.97C75.396,570.55 70.246,551.56 64.996,532.57C64.416,530.48 63.816,528.39 63.186,526.31C60.346,516.72 58.986,506.79 57.376,496.94L55.966,488.45C55.676,486.7 55.386,484.95 55.106,483.19C54.116,477.22 54.116,477.22 52.996,475C52.646,472.56 52.336,470.14 52.066,467.69C51.986,466.97 51.906,466.25 51.816,465.51C51.646,463.88 51.466,462.25 51.286,460.62C51.106,458.94 50.916,457.27 50.736,455.59C49.266,442.24 48.626,429.05 48.686,415.62C48.686,414.67 48.696,413.72 48.696,412.74C48.926,354.22 61.236,296.52 87.866,244.23C88.626,242.74 89.376,241.26 90.116,239.77C99.746,220.59 111.136,202.7 124.496,185.9C125.926,184.1 127.316,182.27 128.696,180.44C136.116,170.65 144.446,161.8 152.996,153C153.576,152.4 154.156,151.81 154.756,151.19C160.616,145.19 166.586,139.41 172.996,134C173.906,133.2 174.816,132.41 175.746,131.59C184.716,123.76 194.246,116.81 203.996,110C204.636,109.55 205.276,109.1 205.926,108.64C236.436,87.33 270.956,70.79 307.016,61.52C310.116,60.71 313.176,59.78 316.246,58.87C334.286,53.76 352.906,51.28 371.606,50.21C373.996,50 373.996,50 375.826,49.49C378.356,48.92 380.656,48.87 383.256,48.87" style="fill:rgb(172,156,133);fill-rule:nonzero;"/>
    </g>
    <g transform="matrix(1,0,0,1,-20,-20)">
        <path d="M507,287C517.42,290.87 526,297.19 531.65,306.82C534.02,312.42 533.86,318.04 533,324C531.44,327.19 529.55,329.55 527,332L525,334L529,333C535.21,346.43 539.1,360.7 539.24,375.55C539.25,376.36 539.25,377.17 539.26,378.01C539.28,379.72 539.29,381.43 539.3,383.14C539.31,384.87 539.33,386.61 539.36,388.34C539.67,406.58 539.67,406.58 535,415C534.52,416.01 534.04,417.02 533.55,418.06C533.14,418.84 532.73,419.63 532.31,420.44C524.65,435.22 529.97,453.27 534.73,468.3C535.79,471.51 536.91,474.69 538.08,477.87C539.04,481.12 539.3,483.63 539,487C534.78,492.63 528.86,493.32 522.3,494.44C520,495 520,495 517,497C517.05,498.11 517.09,499.22 517.14,500.36C517.18,501.82 517.21,503.29 517.25,504.75C517.28,505.48 517.32,506.21 517.35,506.96C517.42,510.52 517.33,512.56 515.17,515.45C513,517 513,517 510,518C510.02,518.3 510.02,518.3 510.11,519.83C510.32,526.25 510.32,526.25 509,529.31C506.52,531.4 503.93,532.56 500.94,533.78C498.24,535.48 497.32,537.11 496,540C495.63,543.3 495.63,543.3 495.56,546.88C495.22,552.86 494.91,556.39 491,561C486.4,564.54 481.59,565.73 475.84,565.43C441.29,560.25 396.82,531.81 373,507L370.76,504.82C360.88,494.66 356.75,481.32 353,468C353.58,486.01 361.53,502.68 374.61,514.99C386.77,525.21 400.34,533.92 414,542C413.28,542.56 412.56,543.11 411.81,543.69C406.75,547.85 402.99,552.08 399.81,557.81C399.43,558.49 399.06,559.17 398.66,559.87C393.27,569.86 389.13,580.44 385,591C384.69,591.79 384.38,592.58 384.06,593.4C382.19,598.21 380.52,603.06 379,608C378.76,608.77 378.52,609.55 378.27,610.34C372.28,630.17 371.31,651.23 378,671L377.52,668.21C374.09,644 378.43,614.67 390,593C399.28,601.23 400.81,618.49 403,630C403.17,630.86 403.34,631.72 403.51,632.6C410.88,672.29 406.81,716.71 399,756L397,756C396.8,755.34 396.59,754.68 396.38,754C379.32,699.5 351.52,648.5 316.27,603.62C314.92,601.9 313.59,600.17 312.25,598.44C306.793,591.385 301.038,584.565 295,578C293.29,576.06 291.6,574.1 289.91,572.14C288.42,570.47 286.87,568.84 285.31,567.23C284.84,566.75 284.38,566.27 283.9,565.77C282.56,564.37 281.2,562.99 279.84,561.61C278,559 278,559 278.2,556.84C279.25,553.11 280.61,549.52 282.02,545.91C282.64,544.3 283.25,542.7 283.87,541.09C284.83,538.59 285.8,536.09 286.77,533.59C291.59,521.16 296.32,508.84 298.19,495.56C299.19,490.65 300.13,488.2 304.19,485.19C304.98,484.67 305.78,484.15 306.6,483.61C314.95,478.01 319.9,468.94 324,460L324,458C323.74,458.61 323.49,459.21 323.22,459.84C317.46,472.45 307.85,481.75 295.18,487.24C282.09,491.82 265.91,490.33 253.47,484.69C252.32,484.13 251.18,483.58 250,483C249.51,482.78 249.51,482.78 247.03,481.65C229.21,472.87 216.48,457.05 209.75,438.55C205.99,426.66 205.37,414.95 210.62,403.44C211.08,402.63 211.53,401.83 212,401C213.77,403.66 214.69,405.72 215.75,408.69C220.27,419.99 227.88,425.89 238.88,430.88C243.79,432.65 248.09,433.12 253.31,433.06C254.38,433.05 255.45,433.04 256.55,433.04C256.95,433.03 256.95,433.03 259,433L256.51,432.7C243.86,431.01 233.87,427.53 225,418C224.49,417.5 223.98,416.99 223.46,416.48C215.96,408.6 215.67,399.63 215.7,389.22C216,386 216,386 218,383C218.39,383.64 218.78,384.28 219.18,384.94C225.23,394.29 232.94,400.62 244,403L247,403C246.38,402.86 245.77,402.73 245.13,402.59C235.28,400.09 227.82,394.29 222,386C218.36,379.62 217.32,373.97 217.44,366.69C217.44,366.23 217.44,366.23 217.47,363.9C217.81,352.7 221.83,344.45 229,336C229.49,335.4 229.98,334.8 230.49,334.18C231.65,332.78 232.82,331.39 234,330L235,332C234.85,332.39 234.85,332.39 234.06,334.38C231.38,343.54 232.6,352.59 237,361C240.51,366.14 244.11,369.7 250,372C249.4,371.5 248.79,371.01 248.17,370.5C241.03,364.43 235.66,358.29 234.78,348.53C234.5,339.84 235.68,332.36 241.38,325.56C246.42,320.29 251.16,317.93 258.44,317.69C261.75,317.74 262.99,318 266,319.62C270.51,324.98 269.03,333.2 268.79,339.84C268.71,344.08 268.96,347.39 270.57,351.35C272.22,355.57 272.22,355.57 271,359C269.964,360.534 268.88,362.035 267.75,363.5C259.45,375.01 256.3,387.15 258.5,401.17C261.07,412.4 265.85,422.96 275.5,429.76C277.96,431.27 280.42,432.7 283,434L285.24,435.15C289.18,436.36 292.91,436.29 297,436.25C297.79,436.26 298.59,436.27 299.41,436.27C303.72,436.26 307.07,436 311,434L308,435C295.72,435.99 284.89,433.51 275,426C266.46,418.32 261.56,408.7 260.73,397.25C260.25,383.27 263.45,372.55 273,362C273.5,361.4 274,360.8 274.51,360.18C282.9,350.77 297.24,343.73 309.72,342.8C330.56,341.85 344.89,346.21 362.86,356.12C380.8,365.98 399.68,371.61 420.25,366.94C422.18,366.34 424.1,365.69 426,365C426.6,364.79 427.2,364.58 427.82,364.36C437.9,360.79 446.81,355.89 455.89,350.28C466.21,343.96 476.13,340.36 488,338C485.6,338.21 483.21,338.44 480.81,338.69C480.16,338.74 479.5,338.79 478.83,338.85C465.52,340.3 453.64,347.62 442.11,353.92C423.04,364.08 404.81,366.55 384,361C380.56,359.88 377.17,358.74 374,357L373,355C374.22,354.65 375.43,354.3 376.69,353.94C387.89,350.15 397.14,343.64 406.28,336.36C424.56,321.91 442.58,310.97 466.7,312.72C473.91,313.6 480.56,316.4 487.1,319.45C494.72,322.96 501.59,324.26 510,323C513.5,321.31 514.82,320.27 517,317C518.03,308.97 517.16,300.26 512.24,293.63C511,292.22 509.73,290.84 508.43,289.5C507,288 507,288 507,287" style="fill:rgb(176,159,135);fill-rule:nonzero;"/>
    </g>
    <g transform="matrix(1,0,0,1,-20,-20)">
        <path d="M266,319.625C270.51,324.985 269.03,333.195 268.79,339.835C268.71,344.085 268.96,347.395 270.57,351.355C272.22,355.575 272.22,355.575 271,359.005C269.964,360.539 268.88,362.04 267.75,363.505C259.45,375.015 256.3,387.145 258.5,401.165C261.07,412.395 265.85,422.965 275.5,429.755C277.96,431.275 280.42,432.695 283,434.005C283.74,434.375 284.48,434.755 285.24,435.145C289.18,436.365 292.91,436.285 297,436.245C297.4,436.255 297.4,436.255 299.41,436.275C303.72,436.255 307.07,435.995 311,434.005C310.5,434.165 310.5,434.165 308,435.005C300.09,435.635 292.38,435.075 285,432.005C283.19,430.395 283.19,430.395 282,429.005C284.81,429.515 287.43,430.145 290.16,431.035C294.41,432.105 298.09,432.225 302.44,432.125L304.65,432.095C306.44,432.075 308.22,432.035 310,432.005C310.14,431.255 310.29,430.515 310.44,429.745C310.9,427.475 311.42,425.245 312,423.005C312.29,423.675 312.58,424.355 312.88,425.055C318.8,438.485 326.83,453.765 341,460.005C344.31,460.785 347.64,461.425 351,462.005C351.23,463.285 351.46,464.565 351.7,465.885C356.81,493.375 366.85,510.435 389.87,526.545C397.75,531.945 405.78,537.135 414,542.005C413.28,542.555 412.56,543.115 411.81,543.685C406.75,547.855 402.99,552.085 399.81,557.815C399.43,558.495 399.06,559.175 398.66,559.875C393.27,569.865 389.13,580.445 385,591.005C384.69,591.795 384.38,592.585 384.06,593.395C382.19,598.215 380.52,603.065 379,608.005L378.27,610.345C372.28,630.165 371.31,651.225 378,671.005L377.52,668.215C374.09,643.995 378.43,614.675 390,593.005C399.28,601.235 400.81,618.495 403,630.005C403.17,630.855 403.34,631.715 403.51,632.605C410.88,672.295 406.81,716.715 399,756.005L397,756.005C396.8,755.335 396.59,754.675 396.38,753.995C379.32,699.495 351.52,648.495 316.27,603.625C314.92,601.895 313.59,600.165 312.25,598.435C306.793,591.383 301.037,584.567 295,578.005C293.29,576.055 291.6,574.105 289.91,572.145C288.42,570.465 286.87,568.845 285.31,567.235C284.84,566.755 284.38,566.265 283.9,565.765C282.56,564.375 281.2,562.995 279.84,561.615C278,559.005 278,559.005 278.2,556.845C279.25,553.115 280.61,549.515 282.02,545.915C282.64,544.305 283.25,542.695 283.87,541.095C284.83,538.595 285.8,536.085 286.77,533.585C291.59,521.155 296.32,508.835 298.19,495.565C299.19,490.645 300.13,488.205 304.19,485.185C304.98,484.665 305.78,484.145 306.6,483.615C314.95,478.005 319.9,468.945 324,460.005L324,458.005C323.74,458.605 323.49,459.215 323.22,459.835C317.46,472.455 307.85,481.745 295.18,487.235C282.09,491.815 265.91,490.325 253.47,484.695C252.32,484.135 251.18,483.575 250,483.005C249.51,482.775 249.51,482.775 247.03,481.655C229.21,472.875 216.48,457.045 209.75,438.555C205.99,426.655 205.37,414.945 210.62,403.435C211.08,402.635 211.53,401.825 212,401.005C213.77,403.655 214.69,405.725 215.75,408.685C220.27,419.995 227.88,425.895 238.88,430.875C243.79,432.645 248.09,433.115 253.31,433.065L256.55,433.035C256.95,433.025 256.95,433.025 259,433.005C258.18,432.905 257.36,432.805 256.51,432.705C243.86,431.005 233.87,427.535 225,418.005C224.75,417.745 224.75,417.745 223.46,416.475C215.96,408.605 215.67,399.625 215.7,389.225C216,386.005 216,386.005 218,383.005C218.39,383.645 218.78,384.285 219.18,384.945C225.23,394.295 232.94,400.625 244,403.005L247,403.005C246.38,402.865 245.77,402.725 245.13,402.585C235.28,400.085 227.82,394.285 222,386.005C218.36,379.625 217.32,373.975 217.44,366.685C217.44,366.225 217.44,366.225 217.47,363.895C217.81,352.705 221.83,344.455 229,336.005C229.49,335.395 229.98,334.795 230.49,334.175C231.65,332.775 232.82,331.385 234,330.005C234.33,330.665 234.66,331.315 235,332.005C234.69,332.785 234.38,333.565 234.06,334.375C231.38,343.535 232.6,352.585 237,361.005C240.51,366.135 244.11,369.695 250,372.005C249.4,371.505 248.79,371.005 248.17,370.495C241.03,364.425 235.66,358.285 234.78,348.535C234.5,339.835 235.68,332.365 241.38,325.565C247.79,318.865 257.23,314.875 266,319.625" style="fill:rgb(161,145,122);fill-rule:nonzero;"/>
    </g>
    <g transform="matrix(1,0,0,1,-20,-20)">
        <path d="M266,540C269.88,541.39 273.08,543.08 276,546C275.98,548.16 275.98,548.16 275.62,550.62C275.51,551.44 275.4,552.26 275.29,553.1C275.19,553.73 275.1,554.35 275,555L273,555L273,553C272.41,552.74 271.82,552.49 271.21,552.22C268.81,550.9 267.44,549.48 265.62,547.44C262.59,544.28 260.52,543.11 256,543L255,545C256.01,545.85 257.02,546.69 258.06,547.56C267.04,555.42 275.7,564 283.4,573.12C285.36,575.42 287.4,577.64 289.44,579.88C293.84,584.76 297.95,589.82 302,595L305.12,598.93C346.59,651.38 379.45,712.29 397.41,776.88C397.8,778.3 398.21,779.71 398.62,781.13C402.88,795.87 405.56,810.87 408,826L408.55,829.34C411.1,845.69 411.19,862.14 411.19,878.66C411.19,881.73 411.21,884.81 411.22,887.88C411.293,906.515 409.777,925.122 406.69,943.5C406.58,944.15 406.47,944.81 406.36,945.48C402.54,968.46 396.45,990.65 390,1013L389,1013C388.99,1012.31 388.99,1011.62 388.98,1010.92C388.38,943.58 388.38,943.58 385,911C384.93,910.28 384.85,909.57 384.78,908.83C382.12,883.44 377.84,858.54 371.5,833.81C371.41,833.45 371.41,833.45 370.94,831.62C367.57,818.56 363.9,805.57 359,793C358.34,791.18 357.68,789.36 357.02,787.53C353.15,776.91 349.15,766.61 343.82,756.63C342.38,753.89 341.23,751.11 340.12,748.22C337.96,742.69 335.25,737.56 332.38,732.38C331.85,731.41 331.32,730.45 330.77,729.46C309.46,691.09 281.79,653.36 248,625C247.45,624.53 246.9,624.07 246.33,623.59C234.87,613.96 223.06,605.34 210,598C211.46,594.67 213.31,592.43 215.81,589.81C221.75,583.33 226.94,576.33 232.24,569.32C235.26,565.34 238.31,561.39 241.38,557.44C241.93,556.71 242.49,555.99 243.07,555.24C255.83,538.79 255.83,538.79 266,540" style="fill:rgb(174,158,135);fill-rule:nonzero;"/>
    </g>
    <g transform="matrix(1,0,0,1,-20,-20)">
        <path d="M391.175,242.815C393.165,242.815 395.155,242.795 397.155,242.775C408.735,242.755 419.865,243.635 430.995,247.005C432.205,247.345 433.415,247.685 434.655,248.045C463.315,256.465 497.105,275.125 513.745,300.685C515.805,306.125 516.005,311.515 513.815,316.935C511.585,319.465 510.165,320.765 506.995,322.005C499.935,322.175 494.215,319.615 487.995,316.565C473.455,309.475 456.185,306.525 440.405,311.745C427.265,316.785 416.075,325.045 405.385,334.045C383.085,352.705 383.085,352.705 371.665,354.345C367.295,353.785 363.775,351.575 360.035,349.385C355.155,346.525 350.285,344.405 344.935,342.565C344.235,342.315 343.535,342.075 342.815,341.815C326.405,336.265 306.655,337.285 290.925,344.395C285.745,347.075 281.085,350.235 276.555,353.895C274.995,355.005 274.995,355.005 272.995,355.005C269.025,333.665 273.645,314.505 285.325,296.645C302.695,271.485 329.265,254.255 358.495,246.315C359.285,246.095 360.065,245.885 360.875,245.665C370.915,243.045 380.835,242.815 391.175,242.815" style="fill:rgb(168,152,128);fill-rule:nonzero;"/>
    </g>
    <g transform="matrix(1,0,0,1,-20,-20)">
        <path d="M210,604C212.84,605.59 215.44,607.45 218.06,609.38C218.81,609.91 219.56,610.45 220.32,611.01C227.18,616.01 233.67,621.36 240,627C240.47,627.42 240.47,627.42 242.87,629.54C254.56,640.05 266.21,650.97 275.92,663.36C277.82,665.77 279.8,668.1 281.82,670.42C299.4,690.72 314.04,713.53 327,737C327.48,737.86 327.96,738.73 328.45,739.62C354.83,787.74 372.86,842.96 377.68,897.8C378,901 378,901 378.49,902.88C379.55,907.3 379.65,911.91 380,916.44C380.08,917.44 380.16,918.43 380.25,919.46C381.65,937.2 382.16,954.95 382.32,972.74L382.38,978.7L382.56,997.31C382.61,1001.55 382.65,1005.79 382.69,1010.03C382.8,1020.36 382.9,1030.68 383,1041L382,1041C381.82,1039.97 381.65,1038.95 381.47,1037.89L381.11,1035.8C380.84,1034.21 380.57,1032.63 380.3,1031.05C379.53,1026.53 378.76,1022.01 377.98,1017.48C376.37,1008.06 374.77,998.63 373.19,989.2C364.04,934.73 364.04,934.73 358,913C357.89,912.59 357.89,912.59 357.33,910.53C353.78,897.62 349.72,884.91 345.38,872.25C345.15,871.58 344.92,870.9 344.68,870.21C340.44,857.83 335.5,845.87 330,834C329.59,833.11 329.18,832.22 328.75,831.31C303.13,776.28 266.37,723.34 219.89,683.68C217.84,681.86 215.92,679.95 214,678C210.89,674.85 207.68,671.92 204.33,669.04C200.78,665.93 197.32,662.7 193.86,659.48C190.66,656.51 187.42,653.61 184.12,650.75C180.74,647.77 177.8,644.6 174.9,641.15C171.82,637.66 168.41,634.5 165.04,631.3C163.06,629.07 162.36,627.91 162,625C172.25,619.18 182.53,613.41 193,608C194.05,607.46 195.09,606.91 196.17,606.36C197.13,605.89 198.08,605.42 199.06,604.94C199.88,604.53 200.69,604.13 201.54,603.71C204.87,602.75 206.65,603 210,604" style="fill:rgb(169,154,131);fill-rule:nonzero;"/>
    </g>
    <g transform="matrix(1,0,0,1,-20,-20)">
        <path d="M529,333C535.21,346.43 539.1,360.7 539.24,375.55C539.25,376.36 539.25,377.17 539.26,378.01C539.28,379.72 539.29,381.43 539.3,383.14C539.31,384.87 539.33,386.61 539.36,388.34C539.67,406.58 539.67,406.58 535,415C534.76,415.5 534.76,415.5 533.55,418.06C533.14,418.84 532.73,419.63 532.31,420.44C524.65,435.22 529.97,453.27 534.73,468.3C535.79,471.51 536.91,474.69 538.08,477.87C539.04,481.12 539.3,483.63 539,487C534.78,492.63 528.86,493.32 522.3,494.44C520,495 520,495 517,497C517.05,498.11 517.09,499.22 517.14,500.36C517.18,501.82 517.21,503.29 517.25,504.75C517.28,505.48 517.32,506.21 517.35,506.96C517.42,510.52 517.33,512.56 515.17,515.45C513,517 513,517 510,518C510.03,518.6 510.07,519.21 510.11,519.83C510.32,526.25 510.32,526.25 509,529.31C506.52,531.4 503.93,532.56 500.94,533.78C498.24,535.48 497.32,537.11 496,540C495.63,543.3 495.63,543.3 495.56,546.88C495.22,552.86 494.91,556.39 491,561C485.41,565.3 479.84,565.5 473,565L473,563C472.3,562.48 471.6,561.97 470.88,561.44C461.67,553.63 458.38,542.59 457,531C456.79,526.29 456.86,521.61 456.95,516.9C456.97,514.19 457,511.49 457.02,508.79C457.07,504.59 457.12,500.39 457.19,496.19C457.49,476.52 457.74,458.4 448.31,440.62C447.51,439.06 446.72,437.49 445.93,435.91C445.58,435.25 445.23,434.59 444.88,433.91C443.92,431.83 443.22,430.29 443,428C444.1,425.46 444.1,425.46 445.83,422.6C446.46,421.55 447.09,420.5 447.74,419.42C448.42,418.31 449.11,417.2 449.81,416.06C450.51,414.92 451.21,413.77 451.91,412.63C456.83,404.66 461.94,397.16 468,390C468.46,389.44 468.93,388.89 469.41,388.31C475.52,381 481.84,373.9 488.33,366.91C490.34,364.72 492.29,362.51 494.23,360.26C498.48,355.38 503,350.78 507.56,346.19L510.06,343.63C515.52,338.14 520.78,333 529,333" style="fill:rgb(213,196,170);fill-rule:nonzero;"/>
    </g>
    <g transform="matrix(1,0,0,1,-20,-20)">
        <path d="M625,629L628,630C629.57,641.49 630.41,652.78 630.38,664.38C630.37,665.14 630.37,665.9 630.37,666.68C630.29,685.6 627.44,700.53 618,717C617.62,717.66 617.25,718.32 616.86,719.01C615.91,720.67 614.96,722.34 614,724C615.93,720.88 617.84,717.75 619.75,714.62C620.29,713.75 620.83,712.88 621.38,711.99C624.687,706.549 626.973,701.293 628.642,695.9C630.712,689.21 631.833,682.309 632.78,674.58C635.14,655.67 635.14,655.67 641.62,649.5C644,648 644,648 646,648C646.56,657.62 644.88,666.63 643,676C642.82,676.94 642.64,677.88 642.45,678.85C641.921,681.565 641.369,684.279 640.814,686.994C640.749,687.309 640.685,687.625 640.62,687.94L640.07,690.81C638.27,699.28 635.15,707.01 629.44,713.62C621.95,722.64 614.74,731.89 608.69,741.94C602.44,752.28 595.66,759.24 586.06,766.45C582.32,769.26 578.63,772.13 574.94,775C574.17,775.59 573.41,776.18 572.63,776.79C565.92,782.02 559.38,787.38 553,793C552.24,793.65 551.49,794.3 550.71,794.96C541.54,803.35 536.73,814.62 532.99,826.23C530.45,834.09 526.76,838.48 520.89,844.33C519.41,845.8 517.93,847.28 516.4,848.8C514.8,850.39 513.2,851.98 511.55,853.61C509.9,855.25 508.26,856.89 506.57,858.58C501.3,863.83 496.02,869.07 490.75,874.31C485.49,879.54 480.23,884.78 474.98,890.01C471.7,893.27 468.43,896.53 465.15,899.79C463.66,901.27 462.17,902.76 460.63,904.29C459.32,905.59 458.02,906.89 456.67,908.22C454.08,910.88 451.58,913.62 449.15,916.42C446,920 446,920 444,921C446.09,913.09 449.15,905.85 452.56,898.44C453.74,895.86 454.9,893.28 456.07,890.71C456.38,890.02 456.69,889.34 457.01,888.63C461.07,879.67 465,870.64 468.94,861.62C474.12,849.77 479.36,837.95 484.74,826.19C490.32,813.98 495.67,801.71 500,789C500.33,788.03 500.67,787.07 501.01,786.07C503.98,777.02 505.43,767.92 506.71,758.51C508.61,744.63 512.22,733.05 521,722C521.26,721.66 521.26,721.66 522.55,719.96C530.08,710.61 540.68,704.13 550.61,697.61C558.96,692.1 566.42,685.75 573.77,678.98C575.78,677.2 577.83,675.57 580,674L583,675C583.77,683.88 580.11,691.3 574.62,698.13C570.56,702.8 566.32,706.83 561.38,710.56C556.47,714.31 552.76,717.88 550.37,723.69C549.92,724.78 549.46,725.87 549,727C562.35,724.92 573.24,721.66 585,715C586.33,714.32 587.66,713.65 589,713C581.5,725.45 573.1,731.96 560.19,737.97C544.39,745.39 529.59,753.39 522.98,770.68C522.23,773.1 521.6,775.53 521,778C520.61,779.24 520.22,780.48 519.81,781.75C519,784.99 518.94,787.68 519,791C519.21,789.98 519.42,788.97 519.63,787.92C523.12,771.88 530.13,759.71 544.06,750.44C548.58,747.69 553.26,745.33 558,743C577.65,733.32 587.94,721.17 598,702C598.6,700.93 599.2,699.87 599.82,698.77C601.62,693.03 601.19,687.46 601,681.5C600.54,667.13 600.54,667.13 604,661L608,661C613.101,676.797 614.097,689.519 611.354,702.549C609.65,710.644 606.502,718.857 602,728C603.97,724.15 605.92,720.29 607.88,716.44C608.43,715.35 608.99,714.27 609.56,713.15C610.09,712.09 610.63,711.03 611.18,709.93C611.67,708.96 612.16,708 612.67,707C616.05,699.37 616.36,692.62 616.53,684.35L616.74,676.87C616.84,672.96 616.94,669.05 617.03,665.14C617.12,661.36 617.23,657.57 617.34,653.79C617.36,652.62 617.38,651.46 617.41,650.26C617.63,642.82 618.08,636.33 623.19,630.5C623.79,630 624.38,629.51 625,629" style="fill:rgb(150,134,112);fill-rule:nonzero;"/>
    </g>
    <g transform="matrix(1,0,0,1,-20,-20)">
        <path d="M362.863,356.125C380.793,365.985 399.673,371.615 420.253,366.935C422.183,366.345 424.103,365.695 426.003,365.005C426.313,364.885 426.313,364.885 427.903,364.315C436.933,361.015 445.223,357.045 453.263,351.755C454.803,350.765 456.393,349.875 458.003,349.005C458.993,349.325 459.983,349.665 461.003,350.005L459.003,350.005C458.793,350.705 458.593,351.405 458.383,352.135C456.583,355.855 453.933,358.195 450.873,360.875C450.293,361.395 449.713,361.925 449.113,362.455C447.943,363.505 446.783,364.535 445.613,365.575C444.213,366.815 442.823,368.075 441.433,369.335C436.263,374.005 436.263,374.005 434.003,374.005C433.733,374.575 433.463,375.145 433.183,375.745C424.163,392.905 401.733,414.445 383.173,420.605C376.893,421.745 368.803,422.485 363.003,419.435C359.513,416.605 356.723,413.555 354.003,410.005C353.673,411.645 353.343,413.305 353.003,415.005L352.003,415.005C351.983,414.325 351.973,413.645 351.953,412.945C351.543,404.835 349.983,397.865 343.983,392.045C339.553,388.735 335.693,387.125 330.133,387.545C323.713,388.915 319.693,392.665 316.003,398.005C313.073,404.365 312.643,409.485 312.873,416.435L312.993,421.805C313.013,422.595 313.043,423.375 313.063,424.175C313.003,426.005 313.003,426.005 312.003,427.005C311.833,427.825 311.673,428.645 311.503,429.505C311.003,432.005 311.003,432.005 310.003,433.005C301.383,433.525 293.953,433.615 286.003,430.005C284.883,429.955 283.773,429.915 282.623,429.875C276.223,428.335 271.453,423.775 267.883,418.285C261.083,406.445 258.703,393.725 261.873,380.315C264.423,373.215 267.953,367.575 273.003,362.005C273.503,361.395 273.993,360.795 274.513,360.175C298.223,333.595 335.563,341.065 362.863,356.125" style="fill:rgb(171,154,130);fill-rule:nonzero;"/>
    </g>
    <g transform="matrix(1,0,0,1,-20,-20)">
        <path d="M406,618C407.66,619.42 409.32,620.83 410.97,622.26C412.21,623.32 413.46,624.38 414.72,625.43C437.39,644.62 437.39,644.62 440,656C440.32,657.12 440.63,658.24 440.96,659.39C448.42,686.98 450.16,714.49 450.25,742.94C450.26,743.94 450.26,744.95 450.27,745.98C450.32,758.81 449.72,771.29 448,784C447.85,785.16 447.71,786.32 447.56,787.52C443.13,822.27 436.15,856.76 425,890L423.29,895.16C421.87,899.44 420.44,903.72 419,908L418,908C417.99,907.39 417.99,906.78 417.98,906.15C417.4,847.62 417.4,847.62 414,825C413.85,824 413.7,822.99 413.55,821.96C408.8,790.8 408.8,790.8 403.79,776.56C402.06,768.73 404.15,760.7 405.71,752.96C413.5,714.37 416.06,671.93 409,633C408.86,632.19 408.71,631.38 408.56,630.55C407.8,626.35 406.96,622.17 406,618" style="fill:rgb(204,187,161);fill-rule:nonzero;"/>
    </g>
    <g transform="matrix(1,0,0,1,-20,-20)">
        <path d="M445,656L447,656L447,658C447.54,658.24 448.08,658.48 448.63,658.73C473.72,672.16 490.05,698.55 501.56,723.56C501.74,723.93 501.74,723.93 502.61,725.8C505.52,732.34 505.56,737.64 503.69,744.56C502.43,749.64 501.63,754.61 501.02,759.81C499.4,773.49 496.45,786.5 490.09,798.8C487.84,803.34 486,808.07 484.06,812.75C479.65,823.28 474.98,833.67 470.13,844.01C469.86,844.59 469.86,844.59 468.48,847.54C468.2,848.13 467.93,848.72 467.64,849.33C463.41,858.37 459.32,867.46 455.2,876.55C454.9,877.2 454.6,877.86 454.3,878.54C453.707,879.834 453.121,881.131 452.54,882.43C450.65,886.58 448.74,890.72 446.81,894.85C444.74,899.31 442.86,903.8 441.06,908.38C438.83,913.88 436.31,919.24 433.81,924.62C433.53,925.24 433.25,925.85 432.95,926.48C428.42,936.26 423.55,945.76 418,955C416.84,951.53 417.21,950.26 418.07,946.77C418.33,945.72 418.58,944.68 418.84,943.61L419.69,940.25C419.97,939.11 420.25,937.97 420.54,936.8C422.79,927.69 425.16,918.62 427.67,909.58C430.7,898.65 433.63,887.72 436.18,876.67C437.3,871.81 438.54,867.02 439.87,862.21C454.03,810.1 460.56,754.77 454,701C453.95,700.56 453.95,700.56 453.68,698.33C451.86,684.01 449.07,669.85 445,656" style="fill:rgb(190,174,150);fill-rule:nonzero;"/>
    </g>
    <g transform="matrix(1,0,0,1,-20,-20)">
        <path d="M580,674L583,675C583.77,683.88 580.11,691.3 574.62,698.13C570.56,702.8 566.32,706.83 561.38,710.56C556.47,714.31 552.76,717.88 550.37,723.69C549.92,724.78 549.46,725.87 549,727C562.35,724.92 573.24,721.66 585,715C586.33,714.32 587.66,713.65 589,713C581.5,725.45 573.1,731.96 560.19,737.97C544.39,745.39 529.59,753.39 522.98,770.68C522.23,773.1 521.61,775.54 521,778C520.61,779.09 520.22,780.19 519.81,781.31C519.06,784.74 519,787.24 519.11,790.71C519.16,798.77 517.84,806.43 516.38,814.31C516.31,814.68 516.31,814.68 515.97,816.54C514.19,826.36 512.2,836.12 509.81,845.81C509.58,846.78 509.34,847.75 509.09,848.75C507.2,856.08 504.53,860.73 499.09,866.12C498.59,866.62 498.59,866.62 496.06,869.14C494.99,870.2 493.91,871.27 492.8,872.36C491.69,873.47 490.57,874.58 489.43,875.71C485.87,879.25 482.31,882.78 478.75,886.31C475.2,889.83 471.66,893.35 468.11,896.88C465.91,899.07 463.7,901.26 461.49,903.45C456.57,908.34 451.76,913.23 447.31,918.57C446,920 446,920 444,921C446.09,913.09 449.15,905.85 452.56,898.44C453.74,895.86 454.9,893.28 456.07,890.71C456.38,890.02 456.69,889.34 457.01,888.63C461.07,879.67 465,870.64 468.94,861.62C474.12,849.77 479.36,837.95 484.74,826.19C490.32,813.98 495.67,801.71 500,789C500.33,788.03 500.67,787.07 501.01,786.07C503.98,777.02 505.43,767.92 506.71,758.51C508.61,744.63 512.22,733.05 521,722C521.26,721.66 521.26,721.66 522.55,719.96C530.08,710.61 540.68,704.13 550.61,697.61C558.96,692.1 566.42,685.75 573.77,678.98C575.78,677.2 577.83,675.57 580,674" style="fill:rgb(167,151,127);fill-rule:nonzero;"/>
    </g>
    <g transform="matrix(1,0,0,1,-20,-20)">
        <path d="M592.207,594.285C600.337,599.865 606.817,608.315 608.997,617.995C610.227,630.255 608.847,641.265 601.317,651.375C595.727,657.845 587.697,664.045 578.987,665.285C576.857,665.405 574.757,665.415 572.627,665.375C572.247,665.365 572.247,665.365 570.357,665.345C558.477,665.015 551.027,660.325 542.817,651.935C535.757,643.615 533.137,634.165 533.587,623.355C535.047,611.585 540.987,603.025 549.917,595.535C562.477,586.275 578.927,586.555 592.207,594.285" style="fill:rgb(231,204,150);fill-rule:nonzero;"/>
    </g>
    <g transform="matrix(1,0,0,1,-20,-20)">
        <path d="M362.863,356.125C380.903,366.045 399.893,371.675 420.563,366.815C425.733,365.265 430.683,363.175 435.603,360.985C438.003,360.005 438.003,360.005 440.003,360.005C434.063,376.765 420.753,392.365 405.183,400.745C394.093,405.935 380.963,408.325 368.983,404.765C357.693,400.395 357.693,400.395 356.003,397.005C356.623,397.265 357.233,397.535 357.873,397.815C371.323,402.925 384.343,403.995 397.933,398.175C402.043,396.265 406.033,394.175 410.003,392.005C407.873,392.705 405.763,393.445 403.653,394.195C387.273,399.735 370.593,400.225 354.503,393.185C350.773,391.155 349.253,388.615 347.003,385.005C337.613,373.685 324.723,367.525 311.003,363.005L308.183,362.035C298.053,358.995 285.343,358.405 275.003,361.005C296.723,332.545 336.243,341.435 362.863,356.125" style="fill:rgb(195,177,152);fill-rule:nonzero;"/>
    </g>
    <g transform="matrix(1,0,0,1,-20,-20)">
        <path d="M266,319.625C270.51,324.985 269.03,333.195 268.79,339.835C268.71,344.085 268.96,347.395 270.57,351.355C272.22,355.565 272.22,355.565 271,359.005C269.93,360.705 268.8,362.375 267.62,364.005L265.79,366.565C261.28,372.695 261.28,372.695 259.39,374.705C257.28,378.195 257.17,381.735 256.81,385.745C256.73,386.525 256.65,387.295 256.56,388.095C256.07,393.085 255.93,397.985 256,403.005C249.73,405.195 242.19,402.515 236.43,399.775C227.77,394.365 221.15,386.765 218,377.005C217.45,373.545 217.38,370.185 217.44,366.685L217.47,363.895C217.81,352.705 221.83,344.455 229,336.005C229.49,335.395 229.98,334.795 230.49,334.175C231.65,332.775 232.82,331.385 234,330.005C234.33,330.665 234.66,331.315 235,332.005C234.69,332.785 234.38,333.565 234.06,334.375C231.38,343.535 232.6,352.585 237,361.005C240.51,366.135 244.11,369.695 250,372.005C249.4,371.505 248.79,371.005 248.17,370.495C241.03,364.425 235.66,358.285 234.78,348.535C234.5,339.835 235.68,332.365 241.38,325.565C247.79,318.865 257.23,314.875 266,319.625" style="fill:rgb(171,155,130);fill-rule:nonzero;"/>
    </g>
    <g transform="matrix(1,0,0,1,-20,-20)">
        <path d="M461,350L459,350C458.8,350.7 458.59,351.41 458.38,352.13C456.59,355.86 453.93,358.19 450.88,360.88C450.29,361.4 449.71,361.92 449.11,362.46C447.948,363.502 446.781,364.539 445.61,365.57C444.21,366.81 442.82,368.07 441.43,369.34C436.27,374 436.27,374 434,374C433.73,374.57 433.46,375.15 433.19,375.74C424.16,392.91 401.73,414.45 383.18,420.61C376.9,421.74 368.8,422.49 363,419.44C359.52,416.61 356.73,413.55 354,410L353,415L352,415C351.99,414.32 351.97,413.64 351.96,412.95C351.54,404.84 349.98,397.86 343.98,392.04C339.55,388.73 335.7,387.12 330.13,387.55C324.65,388.71 320.51,391.71 317.13,396.2C312.02,404.36 311.27,412.52 311,422L310,422L310,416C309.19,416.05 308.38,416.09 307.54,416.14C297.67,416.46 288.62,414.87 280.62,408.68C277.03,404.97 274.54,400.46 272,396C271.34,394.87 270.68,393.73 270,392.56C268.88,389.7 269.13,388.84 270,386L271.18,388.78C275.65,398.78 280.74,404.27 290.25,409.94C296.07,411.59 301.97,411.76 308,412C307.92,410.89 307.83,409.77 307.75,408.62C307.79,400.44 311.53,393.53 317.09,387.7C322.09,383.27 327.01,381.33 333.71,381.68C339.4,382.47 344.05,383.86 348.25,387.88C357.89,396.93 372.37,397.54 384.87,397.36C394.34,396.94 403.31,393.59 412,390C403.93,399 391.64,402.39 380,403.21C373.14,403.44 367.43,402.35 361,400C360.5,399.83 360.5,399.83 358,399C359.7,399.82 361.41,400.63 363.12,401.44C364.08,401.89 365.03,402.34 366.01,402.81C377.89,407.54 391.41,405.29 403,400.85C416.47,394.79 426.18,384.09 433.05,371.17C437.69,362.71 449.61,346.2 461,350" style="fill:rgb(143,128,107);fill-rule:nonzero;"/>
    </g>
    <g transform="matrix(1,0,0,1,-20,-20)">
        <path d="M390,593C399.28,601.23 400.81,618.49 403,630C403.17,630.86 403.34,631.72 403.51,632.6C406.3,647.65 406.26,662.75 406.25,678L406.25,681.11C406.24,684.07 406.23,687.04 406.2,690C406.2,690.89 406.19,691.78 406.19,692.69C406.13,697.88 405.74,702.87 405,708L404,708C403.92,707.38 403.85,706.76 403.77,706.13C401,683.55 397.84,662.81 386,643L384,643C380.71,648.35 378.4,652.68 378,659L377,659C376.34,636.86 379.4,612.86 390,593" style="fill:rgb(142,127,106);fill-rule:nonzero;"/>
    </g>
    <g transform="matrix(1,0,0,1,-20,-20)">
        <path d="M260,372C261.16,375.48 260.8,376.07 259.56,379.38C255.73,391.52 257.95,404.21 263.56,415.44C263.98,416.2 264.39,416.96 264.82,417.75C266,420 266,420 267.05,422.64C268.05,425.12 269.32,426.93 271,429C269.21,431.43 268.02,431.99 265.06,432.75C252.39,434 240.18,430.63 230,423C227.38,420.62 227.38,420.62 225,418C224.49,417.5 223.99,417 223.47,416.48C215.95,408.61 215.67,399.63 215.7,389.22C216,386 216,386 218,383C218.39,383.64 218.78,384.28 219.18,384.94C224.74,393.54 231.65,399.65 241.62,402.58C246.06,403.37 250.5,403.23 255,403C254.98,402.27 254.95,401.55 254.93,400.8C254.62,383.75 254.62,383.75 258,377L256,376L259,376L260,372Z" style="fill:rgb(165,149,125);fill-rule:nonzero;"/>
    </g>
    <g transform="matrix(1,0,0,1,-20,-20)">
        <path d="M605,660L608,661C609.77,665.19 610.84,669.61 612,674C612.12,674.43 612.12,674.43 612.7,676.59C614.37,683.69 614.19,683.75 614,691L611,705C610.84,703.85 612.84,695.85 611,691C609.49,693.58 608.84,695.71 608.19,698.67C607.09,703.17 605.16,706.84 602.81,710.81C602.41,711.51 602.01,712.2 601.59,712.92C600.78,714.31 599.96,715.7 599.14,717.08C598.15,718.76 597.17,720.44 596.2,722.13C586.41,738.53 571.86,746.43 555.07,754.12C543.8,759.34 534.77,766.23 526,775C525.31,773.3 525.31,773.3 525,771C532.02,757.21 544.59,749.58 558,743C577.65,733.32 587.94,721.17 598,702C598.3,701.47 598.3,701.47 599.82,698.77C601.62,693.03 601.19,687.46 601,681.5C600.53,667.03 600.53,667.03 604,661L605,660Z" style="fill:rgb(164,148,123);fill-rule:nonzero;"/>
    </g>
    <g transform="matrix(1,0,0,1,-20,-20)">
        <path d="M239.875,182.125C243.535,185.355 247.575,189.085 248.305,194.105C248.615,200.195 247.725,203.735 243.695,208.375C239.855,212.055 236.335,213.185 231.125,213.565C226.215,213.415 223.385,211.805 219.595,208.805C215.675,204.375 215.515,199.395 215.615,193.725C216.365,188.415 219.305,185.545 223.125,182.065C228.525,180.065 234.505,180.025 239.875,182.125" style="fill:rgb(201,163,96);fill-rule:nonzero;"/>
    </g>
    <g transform="matrix(1,0,0,1,-20,-20)">
        <path d="M517.75,403.063C520.33,405.103 520.92,405.773 522,409.003C518.8,414.563 514.46,419.193 510.24,424.003C506.65,428.803 505.6,433.063 506,439.003L507,442.003L509,442.003L509,444.003L499,441.003L499,450.003C494.2,446.833 489.42,443.633 484.69,440.373C483.89,439.823 483.09,439.273 482.26,438.713C476.26,434.173 476.26,434.173 475.56,431.043C474.6,427.543 471.59,425.563 468.94,423.253L467.22,421.713C465.82,420.473 464.41,419.233 463,418.003C466.91,418.003 468.42,419.373 471.69,421.503C476.79,424.743 481.99,427.693 487.37,430.443C488.03,430.783 488.68,431.123 489.35,431.473C493.61,433.603 497.25,434.563 502,435.003C502.2,434.243 502.41,433.483 502.62,432.703C502.89,431.703 503.16,430.713 503.44,429.683C503.7,428.703 503.97,427.713 504.25,426.703C504.78,424.783 505.37,422.883 506,421.003C506.61,416.573 507.19,412.033 504.86,408.053C495.17,398.713 478.47,400.313 466,400.003C479.44,391.043 505.1,394.163 517.75,403.063" style="fill:rgb(143,128,105);fill-rule:nonzero;"/>
    </g>
    <g transform="matrix(1,0,0,1,-20,-20)">
        <path d="M338.625,392.063C344.195,396.603 348.555,401.523 349.485,408.783C349.585,410.213 349.675,411.633 349.745,413.063C349.805,413.783 349.865,414.503 349.915,415.243C350.155,419.113 350.205,420.683 348.005,424.003C347.465,429.523 348.745,433.013 351.005,438.003L351.005,442.003C344.615,441.403 339.605,437.843 335.505,433.123C333.675,429.313 333.325,427.183 334.005,423.003C336.775,418.793 339.115,416.393 344.005,415.003L344.005,410.003C341.585,410.083 339.165,410.193 336.745,410.313C336.065,410.333 335.385,410.363 334.685,410.383C330.555,410.603 327.915,410.973 325.005,414.003C323.745,416.183 323.745,416.183 323.005,418.003C321.985,408.653 324.625,402.183 329.005,394.003C322.485,396.903 322.485,396.903 320.625,400.683C320.085,401.783 319.555,402.873 319.005,404.003C318.335,402.223 318.335,402.223 318.005,400.003C319.075,398.153 319.075,398.153 320.685,396.373C321.205,395.783 321.725,395.193 322.265,394.583C326.985,390.273 332.785,389.703 338.625,392.063" style="fill:rgb(152,136,114);fill-rule:nonzero;"/>
    </g>
    <g transform="matrix(1,0,0,1,-20,-20)">
        <path d="M415.125,115.125C418.505,117.325 421.215,119.365 423.005,123.005C423.935,127.915 423.635,132.435 421.375,136.935C418.285,140.915 415.845,142.595 410.825,143.315C405.405,143.605 402.185,142.685 398.005,139.005C394.445,135.095 394.385,130.805 394.515,125.735C395.295,121.355 397.565,118.705 401.005,116.005C405.745,113.225 409.955,113.265 415.125,115.125" style="fill:rgb(200,162,95);fill-rule:nonzero;"/>
    </g>
    <g transform="matrix(1,0,0,1,-20,-20)">
        <path d="M646,648C646.56,657.62 644.88,666.63 643,676C642.82,676.94 642.64,677.88 642.45,678.85C641.86,681.88 641.24,684.91 640.62,687.94C640.44,688.88 640.26,689.83 640.07,690.81C638.19,699.68 634.79,707.38 628.94,714.38C628.29,715.17 627.64,715.96 626.96,716.77C625.05,718.94 623.07,720.98 621,723L618,722L617,719C618.32,716.55 619.67,714.26 621.19,711.94C628.92,699.99 631.07,688.49 632.78,674.58C635.14,655.67 635.14,655.67 641.62,649.5C644,648 644,648 646,648" style="fill:rgb(158,142,119);fill-rule:nonzero;"/>
    </g>
    <g transform="matrix(1,0,0,1,-20,-20)">
        <path d="M430,272C431.08,272.51 432.17,273.03 433.28,273.56C439,276.35 444.54,279.29 450.02,282.5C461.52,289.19 473.38,294.5 486.91,291.32C489.3,290.61 491.65,289.85 494,289L494,291C484.71,296.11 474.31,296.47 464.06,294.41C456.83,292.02 450.12,288.01 443.45,284.39C438.39,281.65 433.25,279.1 428.09,276.56C425.26,275.17 422.63,273.75 420,272C418.13,271.42 418.13,271.42 416.06,270.96C415.31,270.8 414.56,270.63 413.79,270.45C413.01,270.28 412.24,270.11 411.44,269.94C403.23,268.11 403.23,268.11 401,267C396.79,266.76 392.58,266.77 388.37,266.76C386.3,266.75 384.23,266.72 382.15,266.69C358.17,266.5 333.66,274.84 315,290L313,289C319.05,283.99 325.2,279.95 332.19,276.38C333.11,275.9 334.03,275.43 334.98,274.94C364.48,260.01 399.77,257.41 430,272" style="fill:rgb(213,196,170);fill-rule:nonzero;"/>
    </g>
    <g transform="matrix(1,0,0,1,-20,-20)">
        <path d="M579,559L579,561C578.73,561.05 578.73,561.05 577.35,561.29C554.74,565.32 535.25,573.03 521.45,592.5C520.63,593.72 519.81,594.95 519,596.19C518.63,596.76 518.25,597.33 517.87,597.91C515.4,601.87 514.09,605.52 513,610L511,610L510.82,611.83C510.73,612.63 510.65,613.43 510.56,614.25C510.48,615.04 510.4,615.83 510.32,616.64C510,619 510,619 509.49,620.86C505.46,638.32 510.56,657 519.31,672.06C521,675 521,675 521,677C522.09,676.94 523.19,676.88 524.31,676.81C528,677 528,677 529.94,678.06C531.59,681.08 531.31,683.64 531,687C529,689 529,689 525.56,689.31C522,689 522,689 520.06,687.88C518.56,685.21 518.8,683 519,680L521,680C520.53,679.26 520.06,678.53 519.57,677.77C518.95,676.79 518.33,675.82 517.69,674.81C517.07,673.85 516.46,672.89 515.82,671.89C515.22,670.94 514.62,669.98 514,669C513.74,668.6 513.74,668.6 512.4,666.61C510.66,663.36 509.75,660.05 508.88,656.5C508.71,655.85 508.54,655.2 508.36,654.53C507.89,652.69 507.45,650.84 507,649C506.8,648.22 506.61,647.44 506.4,646.64C503.32,626.42 507.16,606.71 519.1,590.07C529.93,576.26 543.33,566.57 560,561C560.66,560.78 561.32,560.55 562,560.32C567.62,558.66 573.18,558.81 579,559" style="fill:rgb(207,170,100);fill-rule:nonzero;"/>
    </g>
    <g transform="matrix(1,0,0,1,-20,-20)">
        <path d="M339.45,388.129C344.62,391.399 348.56,394.789 350.59,400.729C351.17,403.919 351.09,407.009 351.06,410.249C351.05,411.509 351.05,412.779 351.04,414.079C351.02,415.039 351.01,416.009 351,416.999L350,416.999C349.91,416.229 349.83,415.449 349.74,414.659C348.54,405.739 346.08,398.899 339,392.999C333.83,391.279 329.69,391.209 324.81,393.499C319.11,398.569 316.4,403.959 315.8,411.539C315.52,427.359 322.75,439.039 333.12,450.369C337.26,454.149 340.99,456.759 346.69,457.439C350.22,456.969 351.67,456.689 354,453.999C354.75,450.809 354.75,450.809 355,447.999L357,449.999C356.93,453.999 356.58,456.279 354.06,459.439C349.6,461.719 345.91,461.949 341,460.999C327.93,455.089 320.05,442.189 313.73,429.949C310.59,421.539 310.54,408.979 313.44,400.499C315.96,395.129 320.21,391.379 325,387.999C329.98,386.339 334.58,385.889 339.45,388.129" style="fill:rgb(195,177,152);fill-rule:nonzero;"/>
    </g>
    <g transform="matrix(1,0,0,1,-20,-20)">
        <path d="M592.207,594.285C600.337,599.865 606.817,608.315 608.997,617.995C610.227,630.255 608.847,641.265 601.317,651.375C595.727,657.845 587.697,664.045 578.987,665.285C576.857,665.405 574.757,665.415 572.627,665.375C572.247,665.365 572.247,665.365 570.357,665.345C558.477,665.015 551.027,660.325 542.817,651.935C535.757,643.615 533.137,634.165 533.587,623.355C535.047,611.585 540.987,603.025 549.917,595.535C562.477,586.275 578.927,586.555 592.207,594.285M566.997,591.995C565.317,592.105 563.627,592.215 561.937,592.315C553.297,593.205 547.417,599.585 541.997,605.995C540.797,608.635 540.797,608.635 539.997,610.995C539.667,611.805 539.337,612.605 538.997,613.435C538.837,613.865 538.837,613.865 537.997,615.995C537.627,616.885 537.257,617.775 536.877,618.685C534.877,626.265 535.977,633.535 537.997,640.995L541.997,641.995C541.757,642.725 541.507,643.445 541.247,644.185C540.997,646.995 540.997,646.995 542.437,649.375C550.547,657.675 557.407,663.015 569.367,663.415C576.107,663.475 581.907,663.105 587.997,659.995C588.827,659.605 589.647,659.215 590.497,658.815C590.747,658.675 590.747,658.675 591.997,657.995L591.997,655.995C592.747,655.775 593.487,655.545 594.247,655.315C597.647,653.695 598.967,652.155 600.997,648.995C601.697,646.675 602.367,644.345 602.997,641.995L604.997,640.995C608.097,632.575 608.697,622.075 605.827,613.505C604.407,610.565 602.793,607.722 600.997,604.995C600.617,604.385 600.237,603.775 599.837,603.145C595.127,596.585 587.537,593.005 579.817,591.565C575.297,590.985 571.487,591.085 566.997,591.995" style="fill:rgb(214,177,107);fill-rule:nonzero;"/>
    </g>
    <g transform="matrix(1,0,0,1,-20,-20)">
        <path d="M645,261C648.07,262.7 650.41,264.81 652,268C652.75,273.19 652.81,277.74 649.69,282.12C646.81,285.03 644.48,285.52 640.44,285.69C636.83,285.45 635.12,285.07 631.94,283.25C628.55,279.31 627.44,276.47 627.54,271.1C628.39,267.21 631.1,264.59 634,262C637.48,260.26 641.2,260.41 645,261" style="fill:rgb(203,165,100);fill-rule:nonzero;"/>
    </g>
    <g transform="matrix(1,0,0,1,-20,-20)">
        <path d="M675.313,414.813C678.093,417.083 679.783,418.653 680.373,422.273C680.493,426.763 680.563,429.993 677.623,433.563C673.653,437.253 670.873,437.533 665.553,437.463C661.793,436.783 660.183,435.193 658.003,432.133C656.233,428.363 656.133,425.033 657.003,421.003C658.623,417.813 659.973,415.783 662.813,413.623C667.603,412.253 670.933,412.413 675.313,414.813" style="fill:rgb(201,163,96);fill-rule:nonzero;"/>
    </g>
    <g transform="matrix(1,0,0,1,-20,-20)">
        <path d="M392,130L392,133C391.24,133.06 390.48,133.13 389.7,133.2C337.4,137.79 290.56,155.05 248,186L246,184C271.26,161.92 304.8,146.61 337,138C337.78,137.79 338.56,137.58 339.37,137.36C356.52,132.86 374.18,129.11 392,130" style="fill:rgb(206,170,101);fill-rule:nonzero;"/>
    </g>
    <g transform="matrix(1,0,0,1,-20,-20)">
        <path d="M139,415C142.41,417.15 144.74,419.12 146,423C146.51,426.9 146.17,428.68 144.31,432.19C141,436.22 138.75,437.75 133.56,438.5C128.28,437.76 125.88,435.38 122.56,431.19C121.66,427.68 122.05,424.44 123,421C127.17,414.39 131.44,412.91 139,415" style="fill:rgb(202,164,98);fill-rule:nonzero;"/>
    </g>
    <g transform="matrix(1,0,0,1,-20,-20)">
        <path d="M166,275C169.47,277.07 171.78,279.11 173,283C173.48,287.32 173.29,289.47 171.19,293.31C168.91,296.11 167.33,297.79 163.7,298.37C156.73,298.55 156.73,298.55 152.94,295.69C150.21,291.9 149.61,288.73 149.64,284.07C150.28,280.38 152.36,278.58 155,276C158.46,274.27 162.21,274.52 166,275" style="fill:rgb(202,164,96);fill-rule:nonzero;"/>
    </g>
    <g transform="matrix(1,0,0,1,-20,-20)">
        <path d="M507,287C517.42,290.87 526,297.19 531.65,306.82C534.03,312.43 533.83,318.02 533,324C530.4,329.93 525.46,333.77 520,337L516,337C516,335 516,335 518,333C518.33,332.83 518.33,332.83 520,332C520.72,330.02 521.38,328.02 522,326L523,324C523.07,321.79 523.08,319.58 523.06,317.38C523.05,316.19 523.04,315 523.04,313.77C523.02,312.86 523.01,311.94 523,311L520,311L519,315C518.93,314.18 518.85,313.36 518.77,312.51C517.54,302.03 513.88,294.94 507,287" style="fill:rgb(169,153,129);fill-rule:nonzero;"/>
    </g>
    <g transform="matrix(1,0,0,1,-20,-20)">
        <path d="M589,713C589.16,713.5 593.16,712.5 591,716C580.75,729.12 569.6,738.5 554.71,745.56C539.96,752.58 529.03,762.64 523,778C521.38,783.26 520.16,788.62 519,794L518,794C517.07,780.53 521.99,766.79 530.56,756.44C537.88,748.1 546.79,743.34 556.77,738.83C566.25,734.53 573.79,730.7 581,723L583.94,720.12L586,718L589,713Z" style="fill:rgb(213,196,170);fill-rule:nonzero;"/>
    </g>
    <g transform="matrix(1,0,0,1,-20,-20)">
        <path d="M463,417C465.99,418.46 468.87,420.05 471.74,421.71C472.64,422.24 473.54,422.76 474.47,423.29C476.36,424.38 478.24,425.48 480.12,426.57C487.33,430.73 493.57,434.14 502,435L504,427L506,427C505.99,427.83 505.98,428.66 505.96,429.52C505.96,430.61 505.95,431.69 505.94,432.81C505.93,433.89 505.91,434.97 505.9,436.08C506,439 506,439 507,442L509,442L509,444L499,441L499,450C494.2,446.83 489.42,443.63 484.69,440.38L482.26,438.71C476.26,434.17 476.26,434.17 475.56,431.05C474.61,427.56 471.59,425.6 468.94,423.31C466.94,421.56 464.96,419.79 463,418L463,417Z" style="fill:rgb(133,118,97);fill-rule:nonzero;"/>
    </g>
    <g transform="matrix(1,0,0,1,-20,-20)">
        <path d="M644,287L647,287C662.03,327.95 669.9,367.18 669,411L666,411L665.97,408.26C665.47,369.66 662.81,326.73 644.81,291.69C644,290 644,290 644,287" style="fill:rgb(208,169,103);fill-rule:nonzero;"/>
    </g>
    <g transform="matrix(1,0,0,1,-20,-20)">
        <path d="M544,169C547.4,170.25 550.19,171.66 553.12,173.8C553.88,174.36 554.65,174.92 555.43,175.49C556.24,176.09 557.04,176.69 557.88,177.31C558.72,177.94 559.56,178.56 560.43,179.21C577.71,192.2 593.71,206.9 607,224C607.87,225.07 608.73,226.13 609.6,227.19C616.35,235.51 622.25,244.24 627.94,253.32C628.93,254.9 629.97,256.45 631,258L631,262L629,262C628.47,261.08 627.93,260.16 627.38,259.21C616.84,241.21 604.4,225.12 590,210C589.43,209.4 588.86,208.8 588.27,208.19C579.75,199.3 570.93,191.28 561,184C560.69,183.77 560.69,183.77 559.09,182.6C547.29,173.93 547.29,173.93 543,172L544,169Z" style="fill:rgb(210,170,99);fill-rule:nonzero;"/>
    </g>
    <g transform="matrix(1,0,0,1,-20,-20)">
        <path d="M348,410L349,410C349.22,411.77 349.43,413.54 349.62,415.31C349.74,416.3 349.86,417.28 349.98,418.3C350,421 350,421 348,424C347.47,429.52 348.74,433.01 351,438L351,442C344.62,441.4 339.6,437.85 335.5,433.12C333.67,429.32 333.33,427.18 334,423C337.03,418.36 340.84,415.41 345.33,412.2C347,411 347,411 348,410" style="fill:rgb(139,124,102);fill-rule:nonzero;"/>
    </g>
    <g transform="matrix(1,0,0,1,-20,-20)">
        <path d="M492,220C495.49,221.67 496.83,222.74 499,226C499.34,229.02 499.57,231.09 499,234C495.86,237.88 493.67,239.74 488.75,240.5C484.76,239.97 484.16,239.67 481.56,236.88C479.71,234.41 479,233 478.31,229.94C479.28,225.82 481.05,224.02 484,221C486.82,219.59 488.87,219.75 492,220" style="fill:rgb(203,166,100);fill-rule:nonzero;"/>
    </g>
    <g transform="matrix(1,0,0,1,-20,-20)">
        <path d="M435,366C435.16,366.33 435.16,366.33 436,368C426.12,385.17 413.88,399.24 394.19,404.81C380.73,407.86 368.74,406.14 357,399L356,397C356.62,397.27 357.24,397.54 357.88,397.81C372.29,403.29 385.02,403.4 399.51,397.59C414.67,390.52 425.27,379.4 435,366" style="fill:rgb(213,196,170);fill-rule:nonzero;"/>
    </g>
    <g transform="matrix(1,0,0,1,-20,-20)">
        <path d="M655,625C658.49,626.67 659.83,627.74 662,631C662.46,635.96 662.15,639.06 659,643C655.79,645.32 652.88,645.48 649,645C646.3,643.2 644.46,641.92 643,639C642.42,631.91 642.42,631.91 644.88,628.06C648.24,624.8 650.36,624.64 655,625" style="fill:rgb(203,166,101);fill-rule:nonzero;"/>
    </g>
    <g transform="matrix(1,0,0,1,-20,-20)">
        <path d="M154,300L157,300C156.57,301.52 156.13,303.04 155.69,304.56C155.44,305.41 155.2,306.26 154.95,307.13C154.05,309.85 152.95,312.43 151.8,315.06C150.3,318.69 149.17,322.44 148,326.19C147.74,327.03 147.47,327.87 147.2,328.73C145.23,335.11 143.48,341.49 142,348C141.76,348.99 141.51,349.98 141.26,351C136.65,370.7 135.47,390.83 135,411L133,411C132.66,393.75 132.66,377 136,360C136.18,359.06 136.36,358.12 136.55,357.15C140.5,337.22 146.16,318.74 154,300" style="fill:rgb(206,169,104);fill-rule:nonzero;"/>
    </g>
    <g transform="matrix(1,0,0,1,-20,-20)">
        <path d="M426,130C438.95,130.37 451.34,132.37 464,135C464.82,135.16 465.64,135.33 466.48,135.5C487.15,139.74 507.53,147.83 526,158L526,160C522.54,159.41 519.64,158.52 516.46,157.03C487.55,143.78 457.75,135.35 426,133L426,130Z" style="fill:rgb(207,169,100);fill-rule:nonzero;"/>
    </g>
    <g transform="matrix(1,0,0,1,-20,-20)">
        <path d="M595,552C598.06,554.06 598.06,554.06 600,557C600.62,560.5 600.62,560.5 600,564C597.44,567.57 595.71,568.78 591.5,570.06C587.25,569.99 585.92,569 583,566C581.39,562.79 581.53,559.48 582,556C584.89,550.97 589.74,550.93 595,552" style="fill:rgb(201,163,95);fill-rule:nonzero;"/>
    </g>
    <g transform="matrix(1,0,0,1,-20,-20)">
        <path d="M166,300L168,300C168.13,300.37 168.13,300.37 168.77,302.23C171.48,310.02 174.19,317.81 176.91,325.6C177.91,328.49 178.92,331.38 179.92,334.27C185.76,351.09 191.71,367.85 198.05,384.49C199.6,388.57 201.11,392.66 202.62,396.75L203.41,398.82C204.63,402.21 205.43,404.58 204,408C202.2,405.29 201.23,403.17 200.16,400.14C199.8,399.15 199.45,398.16 199.08,397.14C198.7,396.07 198.32,394.99 197.93,393.89C197.53,392.77 197.13,391.65 196.72,390.49C195.43,386.89 194.15,383.29 192.88,379.69C191.62,376.17 190.37,372.65 189.11,369.12C188.28,366.8 187.45,364.47 186.62,362.14C183.99,354.75 181.32,347.37 178.62,340C176.01,332.83 173.47,325.64 171.12,318.38C170.57,316.65 170.01,314.93 169.45,313.21C169.21,312.49 168.98,311.77 168.74,311.03C168,309 168,309 166.92,306.91C165.76,304.51 165.85,302.63 166,300" style="fill:rgb(206,164,96);fill-rule:nonzero;"/>
    </g>
    <g transform="matrix(1,0,0,1,-20,-20)">
        <path d="M595,354C597.5,355.44 597.5,355.44 599,358C599.6,361.13 599.65,363.87 599,367C596.34,370.31 594.66,370.88 590.5,371.62C587,371 587,371 584.06,368.38C581.81,364.69 581.11,363.2 582,359C585.78,353.57 588.8,353.11 595,354" style="fill:rgb(202,165,99);fill-rule:nonzero;"/>
    </g>
    <g transform="matrix(1,0,0,1,-20,-20)">
        <path d="M410,390L412,391C399.29,400.02 386.8,404.41 371,403C367.55,402.26 364.3,401.23 361,400L358.12,399C355.82,397.92 353.97,396.6 352,395L353,392C353.63,392.19 354.26,392.39 354.91,392.59C355.76,392.85 356.62,393.11 357.5,393.38C358.34,393.63 359.17,393.89 360.03,394.15C376.33,398.82 391.14,398.11 407,392L410,390Z" style="fill:rgb(164,148,124);fill-rule:nonzero;"/>
    </g>
    <g transform="matrix(1,0,0,1,-20,-20)">
        <path d="M394,139L396,139C395.43,142.34 394.48,143.85 391.97,146.1C391.35,146.67 390.73,147.24 390.09,147.82C389.42,148.42 388.75,149.01 388.06,149.62C386.69,150.88 385.31,152.13 383.94,153.39C383.26,154 382.59,154.61 381.89,155.25C378.63,158.26 375.54,161.43 372.44,164.62C370.46,166.56 368.44,168.36 366.34,170.16C361.31,174.52 356.67,179.26 352,184C346.72,189.36 341.42,194.61 335.71,199.51C332.85,202 330.28,204.75 327.66,207.5C326,209 326,209 324,209C325.51,205.46 327.57,203.18 330.29,200.48L332.89,197.88C333.35,197.44 333.35,197.44 335.62,195.19C336.5,194.31 337.38,193.43 338.29,192.53C342.12,188.72 345.96,184.98 350.05,181.46C354.79,177.39 359.12,172.95 363.5,168.5C368.58,163.34 373.68,158.32 379.18,153.6C382.4,150.77 385.34,147.67 388.3,144.57C389.5,143.34 390.75,142.17 392,141L394,141L394,139Z" style="fill:rgb(206,168,95);fill-rule:nonzero;"/>
    </g>
    <g transform="matrix(1,0,0,1,-20,-20)">
        <path d="M234,216L236,216C236.15,216.65 236.29,217.3 236.45,217.96C237.68,223.36 238.93,228.75 240.25,234.13C243.78,248.55 247,263.02 250.11,277.53C250.27,278.27 250.43,279.02 250.59,279.79C250.91,281.27 251.23,282.76 251.54,284.24C252.38,288.17 253.24,292.08 254.13,295.99C254.32,296.81 254.5,297.63 254.69,298.47L255.77,303.17C256.55,306.57 257,309.49 257,313L255,313C250.38,293.37 245.87,273.72 241.49,254.04C240.54,249.79 239.59,245.53 238.63,241.28C238.03,238.56 237.42,235.84 236.82,233.12C236.53,231.85 236.25,230.59 235.95,229.29C235.7,228.12 235.44,226.96 235.17,225.76C234.95,224.74 234.72,223.72 234.48,222.67C234,220 234,220 234,216" style="fill:rgb(206,166,100);fill-rule:nonzero;"/>
    </g>
    <g transform="matrix(1,0,0,1,-20,-20)">
        <path d="M591,374L593,374C593.82,421.49 593.82,421.49 589,442C588.46,444.4 587.93,446.81 587.4,449.21C585.99,455.49 584.52,461.75 583,468L580,468C580.24,466.94 580.48,465.89 580.73,464.8C587.67,434.3 590.38,405.21 591,374" style="fill:rgb(207,168,100);fill-rule:nonzero;"/>
    </g>
    <g transform="matrix(1,0,0,1,-20,-20)">
        <path d="M216,209L219,210L218,213L216,213C215.74,213.59 215.49,214.17 215.22,214.78C213.89,217.2 212.46,218.68 210.44,220.56C194.9,235.8 180.73,255.53 171,275L168,275C169.55,270.74 171.67,266.93 174,263.06C174.39,262.41 174.79,261.76 175.19,261.08C181.67,250.49 189.07,240.55 197,231C197.43,230.48 197.86,229.96 198.3,229.42C203.23,223.48 208.14,217.58 213.76,212.27C215,211 215,211 216,209" style="fill:rgb(206,169,98);fill-rule:nonzero;"/>
    </g>
    <g transform="matrix(1,0,0,1,-20,-20)">
        <path d="M317,146L317,148C316.22,148.34 315.43,148.68 314.62,149.03C290.9,159.41 269.07,170.87 248,186L246,184C263.25,168.93 284.52,157.6 305.56,148.81C306.26,148.52 306.96,148.23 307.67,147.93C311.05,146.57 313.3,146 317,146" style="fill:rgb(206,168,96);fill-rule:nonzero;"/>
    </g>
    <g transform="matrix(1,0,0,1,-20,-20)">
        <path d="M168,512.438C171.84,513.158 173.46,514.008 176,516.998C176.94,520.998 176.61,523.978 174.5,527.498C170.98,529.608 168,529.938 164,528.998C161.01,526.458 160.16,524.848 159.44,520.998C160.38,515.978 162.98,513.378 168,512.438" style="fill:rgb(204,165,97);fill-rule:nonzero;"/>
    </g>
    <g transform="matrix(1,0,0,1,-20,-20)">
        <path d="M417,143C420.03,144.33 421.83,145.66 423.88,148.24C424.41,148.89 424.93,149.54 425.47,150.2C426.01,150.9 426.56,151.6 427.12,152.31C427.7,153.03 428.27,153.75 428.86,154.49C433.99,160.93 439.01,167.45 444,174C445.64,176.15 447.29,178.29 448.94,180.44L450.18,182.06C454.61,187.8 459.09,193.5 463.58,199.19C465.05,201.07 466.53,202.94 468,204.82C468.25,205.13 468.25,205.13 469.49,206.72C470.43,207.91 471.36,209.1 472.3,210.29C474.28,212.81 476.26,215.32 478.32,217.78C480,220 480,220 480,222C475.73,220.46 473.57,217.25 470.94,213.75C469.96,212.48 468.98,211.2 468,209.93C467.5,209.27 467,208.62 466.49,207.95C464.17,204.92 461.8,201.93 459.44,198.94C455.51,193.95 451.62,188.92 447.76,183.88C444.78,180.01 441.77,176.15 438.75,172.31C437.36,170.54 435.97,168.77 434.57,167C433.44,165.56 432.31,164.13 431.18,162.69C429.26,160.26 427.35,157.82 425.44,155.38C424.83,154.6 424.22,153.83 423.59,153.04C423.03,152.31 422.46,151.59 421.87,150.84C421.37,150.19 420.86,149.55 420.34,148.88C419,146.99 417.98,145.1 417,143" style="fill:rgb(206,163,92);fill-rule:nonzero;"/>
    </g>
    <g transform="matrix(1,0,0,1,-20,-20)">
        <path d="M535,155.375C539.07,156.225 540.54,157.675 543,160.995C543.62,163.995 543.62,163.995 543,166.995C540.37,170.665 538.91,171.845 534.44,172.625C531,171.995 531,171.995 528.56,169.875C526.71,166.465 526.28,164.815 527,160.995C529.46,157.675 530.93,156.225 535,155.375" style="fill:rgb(204,166,100);fill-rule:nonzero;"/>
    </g>
    <g transform="matrix(1,0,0,1,-20,-20)">
        <path d="M602,561C618.16,563.69 630.97,573.23 640.93,585.98C648.38,596.86 653.65,608.67 653,622L651,622C650.79,620.86 650.58,619.73 650.37,618.55C646.6,599.16 638.46,584.32 622.32,572.46C616.02,568.5 609.21,565.76 602,564L602,561Z" style="fill:rgb(207,166,96);fill-rule:nonzero;"/>
    </g>
    <g transform="matrix(1,0,0,1,-20,-20)">
        <path d="M572.563,614C575.923,615.38 576.583,616.67 578.003,620C578.763,622.71 579.213,625.18 579.003,628C577.063,631 577.063,631 575.003,633C570.863,632.53 567.903,632.12 565.003,629C563.583,624.44 563.993,621.3 566.003,617C568.253,614.59 569.253,614 572.563,614" style="fill:rgb(252,244,230);fill-rule:nonzero;"/>
    </g>
    <g transform="matrix(1,0,0,1,-20,-20)">
        <path d="M461,350L459,350C458.8,350.7 458.59,351.41 458.38,352.13C456.59,355.86 453.93,358.19 450.88,360.88C450.29,361.4 449.71,361.92 449.11,362.46C447.948,363.502 446.781,364.539 445.61,365.57C444.21,366.81 442.82,368.07 441.43,369.34C436.27,374 436.27,374 434,374C433.75,374.55 433.5,375.11 433.24,375.68C431.78,378.41 430.04,380.7 428.12,383.12C427.45,383.99 426.77,384.86 426.07,385.76C424.1,387.89 422.66,388.94 420,390C420.35,389.54 420.7,389.08 421.07,388.6C423.89,384.88 426.66,381.12 429.38,377.31C429.97,376.47 430.57,375.63 431.19,374.77C433,372 433,372 434.62,368.82C438.76,360.97 450.84,346.61 461,350" style="fill:rgb(151,135,112);fill-rule:nonzero;"/>
    </g>
    <g transform="matrix(1,0,0,1,-20,-20)">
        <path d="M506,481L507,481L509,487C509.65,486.99 509.65,486.99 512.91,486.93C514.63,486.91 516.35,486.89 518.06,486.88L520.63,486.82C525.83,486.78 530.07,487.3 535,489L535,491C531.69,492.54 528.57,493.28 525,493.88C520.72,494.67 518.14,495.86 515,499C513.702,497.902 512.409,496.799 511.12,495.69C510.41,495.07 509.69,494.46 508.95,493.82C505.95,491.01 505.03,489.53 504.81,485.38C505,482 505,482 506,481" style="fill:rgb(154,138,115);fill-rule:nonzero;"/>
    </g>
    <g transform="matrix(1,0,0,1,-20,-20)">
        <path d="M608,622L609,622C609.79,634.42 607.46,644.26 599.21,653.81C592.59,660.37 584.28,665.33 574.8,665.42C574.44,665.41 574.44,665.41 572.62,665.38C571.88,665.36 571.13,665.35 570.35,665.34C559.74,665.05 552.29,661.58 544.95,653.83C543.26,651.92 541.61,649.98 540,648L541,646C541.6,646.78 542.2,647.57 542.81,648.38C545,651 545,651 548,653C548.68,653.78 549.36,654.57 550.06,655.38C557.71,662.2 566.23,662.68 576.05,662.34C580.69,661.94 583.85,661.04 588,659C589.33,658.64 590.66,658.3 592,658L592,656C592.93,655.48 593.86,654.97 594.81,654.44C598.49,652.01 599.53,649.12 601,645C601.65,643.66 602.31,642.32 603,641L605,641C605.13,639.8 605.27,638.59 605.4,637.35L605.94,632.62C606.02,631.83 606.11,631.04 606.2,630.22C606.89,624.23 606.89,624.23 608,622" style="fill:rgb(213,176,105);fill-rule:nonzero;"/>
    </g>
    <g transform="matrix(1,0,0,1,-20,-20)">
        <path d="M407,539C409.02,539.6 411.02,540.27 413,541C413.17,541.33 413.17,541.33 414,543C413.47,543.27 413.47,543.27 410.78,544.61C392.38,555.18 382.92,594.2 377.68,612.7C375.02,622.67 373.41,632.79 372,643C369.53,639.29 369.51,636.29 370,632C370.64,629.66 371.31,627.33 372,625C372.34,623.65 372.68,622.29 373.01,620.93C379.32,595.28 388.8,563.92 407,544L409,544L409,542L406,540L407,539Z" style="fill:rgb(136,121,100);fill-rule:nonzero;"/>
    </g>
    <g transform="matrix(1,0,0,1,-20,-20)">
        <path d="M136,440L139,440C139.17,440.9 139.35,441.8 139.52,442.73C144.25,465.67 153.44,487.16 164.06,507.92C165,510 165,510 165,512C161.35,510.78 161.22,510.08 159.55,506.76C159.1,505.87 158.64,504.97 158.18,504.05C157.71,503.09 157.24,502.12 156.75,501.12C156.51,500.63 156.51,500.63 155.27,498.14C150.84,488.98 147.23,479.63 144,470C143.75,469.26 143.5,468.53 143.24,467.77C141.5,462.6 139.87,457.41 138.31,452.19C138.09,451.45 137.86,450.71 137.63,449.96C136.59,446.46 136,443.68 136,440" style="fill:rgb(207,165,96);fill-rule:nonzero;"/>
    </g>
    <g transform="matrix(1,0,0,1,-20,-20)">
        <path d="M565,275C567.44,276.56 567.44,276.56 569,279C569.56,282.91 569.58,285.05 567.5,288.44C563.72,290.8 561.42,290.56 557,290C554.08,287.72 554.02,286.17 553.56,282.5C554,279 554,279 555.56,276.56C558.94,274.4 561.06,274.44 565,275" style="fill:rgb(204,166,100);fill-rule:nonzero;"/>
    </g>
    <g transform="matrix(1,0,0,1,-20,-20)">
        <path d="M502,405L504.57,405.43C508,406 511.44,406.54 514.88,407.06C516.03,407.24 517.18,407.42 518.37,407.6C519.24,407.73 520.1,407.86 521,408C520.52,412.59 518.87,414.62 515.69,417.88C512.06,421.74 509.36,425.27 507,430C504.44,426.17 505.21,425.44 506,421C506.79,411.25 506.79,411.25 504,406.81C503.34,406.21 502.68,405.62 502,405" style="fill:rgb(159,143,119);fill-rule:nonzero;"/>
    </g>
    <g transform="matrix(1,0,0,1,-20,-20)">
        <path d="M322,209C324.44,210.06 324.44,210.06 326,212C326.57,215.92 326.59,218.07 324.44,221.44C321.03,223.62 318.97,223.64 315,223C312.5,220.88 312.5,220.88 311,218C311.06,214.82 311.49,212.85 313.12,210.12C316.13,208.32 318.58,208.64 322,209" style="fill:rgb(203,166,99);fill-rule:nonzero;"/>
    </g>
    <g transform="matrix(1,0,0,1,-20,-20)">
        <path d="M600,368C604.2,369.76 607.45,372.65 610.94,375.5C612.29,376.59 613.64,377.69 614.99,378.78C615.67,379.32 616.34,379.87 617.04,380.43C619.85,382.68 622.7,384.88 625.56,387.06C630.66,390.96 635.71,394.9 640.74,398.88C643.73,401.23 646.73,403.56 649.77,405.85C650.38,406.3 650.98,406.76 651.61,407.23C652.76,408.1 653.92,408.97 655.09,409.83C656.43,410.84 657.72,411.91 659,413L659,415C655.79,414.4 653.92,413.39 651.43,411.3C650.76,410.75 650.09,410.2 649.4,409.63C648.71,409.05 648.02,408.47 647.31,407.88C645.96,406.75 644.6,405.62 643.24,404.49C642.55,403.92 641.86,403.34 641.14,402.75C637.49,399.76 633.74,396.89 630,394C628.53,392.86 627.07,391.71 625.61,390.57C624.88,390.01 624.16,389.44 623.42,388.86C621.89,387.67 620.37,386.48 618.84,385.29C615.32,382.55 611.79,379.82 608.17,377.2C607.61,376.79 607.04,376.38 606.46,375.96C604.98,374.89 603.49,373.83 601.99,372.77C601.33,372.19 600.68,371.6 600,371L600,368Z" style="fill:rgb(208,166,95);fill-rule:nonzero;"/>
    </g>
    <g transform="matrix(1,0,0,1,-20,-20)">
        <path d="M662,439L665,439C663.75,446.78 661.41,453.85 658.56,461.19C658.17,462.23 657.77,463.27 657.37,464.34C654.02,473.11 650.33,481.55 646,489.88C645.56,490.74 645.12,491.61 644.67,492.5C644.24,493.32 643.82,494.14 643.38,494.99C642.99,495.74 642.61,496.48 642.21,497.25C641,499 641,499 638,500C639.33,496.57 640.8,493.27 642.43,489.97C647.56,479.46 652.44,469.16 656,458C656.54,456.42 657.08,454.83 657.62,453.25C659.18,448.53 660.6,443.77 662,439" style="fill:rgb(207,169,101);fill-rule:nonzero;"/>
    </g>
    <g transform="matrix(1,0,0,1,-20,-20)">
        <path d="M631,286L633,286C631.74,290.07 630.23,293.72 628.2,297.46C627.64,298.5 627.08,299.54 626.51,300.61C625.91,301.7 625.31,302.8 624.69,303.94C624.07,305.08 623.45,306.22 622.81,307.4C617.17,317.79 611.35,328.09 605.48,338.36C603.35,342.16 601.32,346.01 599.3,349.87C598,352 598,352 596,353C596.61,348.9 597.96,345.83 599.92,342.2C600.53,341.07 601.14,339.94 601.76,338.77C602.42,337.56 603.09,336.34 603.75,335.12C604.43,333.87 605.11,332.62 605.78,331.36C611.1,321.55 616.56,311.81 622.1,302.12C625.14,296.79 628.08,291.4 631,286" style="fill:rgb(206,166,98);fill-rule:nonzero;"/>
    </g>
    <g transform="matrix(1,0,0,1,-20,-20)">
        <path d="M250,200C254.08,200.44 257.98,200.93 261.94,202C264.73,202.74 267.38,203.18 270.25,203.44C273.7,203.78 276.9,204.43 280.25,205.31C287.09,207.12 294.01,208.38 300.97,209.64C301.85,209.8 302.73,209.97 303.63,210.13C304.03,210.2 304.03,210.2 306.04,210.57C308,211 308,211 310,212L310,214C305.11,214.14 300.82,213.7 296.05,212.61C295.73,212.54 295.73,212.54 294.1,212.17L289.99,211.24C286.42,210.42 282.85,209.62 279.27,208.82C278.57,208.67 277.86,208.51 277.13,208.35C268.13,206.34 259.07,204.64 250,203L250,200Z" style="fill:rgb(211,173,105);fill-rule:nonzero;"/>
    </g>
    <g transform="matrix(1,0,0,1,-20,-20)">
        <path d="M512.313,508.875L516.003,508.995L517.003,512.995C514.633,515.525 513.333,516.885 510.003,517.995C507.353,517.985 504.763,517.905 502.123,517.755C501.773,517.735 501.773,517.735 499.983,517.665C495.543,517.415 492.603,516.625 489.003,513.995L489.003,512.995C489.953,512.875 490.903,512.755 491.883,512.635C493.143,512.465 494.393,512.295 495.693,512.125C496.933,511.965 498.173,511.805 499.453,511.635C503.993,510.825 507.653,508.715 512.313,508.875" style="fill:rgb(149,134,111);fill-rule:nonzero;"/>
    </g>
    <g transform="matrix(1,0,0,1,-20,-20)">
        <path d="M175,290C182.49,292.44 189.87,295.13 197.25,297.88L200.7,299.15C208.49,302.04 216.25,305 224,308C225.31,308.5 226.62,309.01 227.94,309.51L231,310.69C232.03,311.08 233.06,311.48 234.12,311.89C236.76,312.91 239.38,313.95 242,315L242,317C237.69,316.41 233.97,315.36 229.94,313.75C229.37,313.53 229.37,313.53 226.5,312.39C225.34,311.93 224.19,311.47 223,311C220.83,310.16 218.67,309.33 216.5,308.5C215.42,308.08 214.34,307.67 213.22,307.24C211.15,306.44 209.07,305.65 207,304.86C200.08,302.21 193.19,299.5 186.31,296.75C185.43,296.4 184.54,296.04 183.63,295.68C182.8,295.35 181.97,295.01 181.11,294.67C180.74,294.52 180.74,294.52 178.86,293.77C177.55,293.23 176.26,292.63 175,292L175,290Z" style="fill:rgb(210,173,104);fill-rule:nonzero;"/>
    </g>
    <g transform="matrix(1,0,0,1,-20,-20)">
        <path d="M417,222C429.12,222.36 441.13,223.1 453.19,224.44C454.3,224.56 455.4,224.68 456.55,224.81C463.42,225.6 470.21,226.67 477,228L477,230C470.32,230.12 463.87,229.69 457.23,228.94C456.74,228.89 456.74,228.89 454.21,228.61L447.94,227.92C444.75,227.56 441.55,227.21 438.35,226.87C436.31,226.64 434.27,226.42 432.23,226.19C431.28,226.09 430.33,225.98 429.35,225.88C428.46,225.78 427.57,225.68 426.65,225.57C425.87,225.49 425.09,225.4 424.29,225.31C421.83,224.98 419.42,224.51 417,224L417,222Z" style="fill:rgb(212,175,109);fill-rule:nonzero;"/>
    </g>
    <g transform="matrix(1,0,0,1,-20,-20)">
        <path d="M500,236L509,239L509,241C509.36,241.13 509.36,241.13 511.16,241.82C525.17,247.65 537.01,258 548.01,268.22C550,270 550,270 553,272L553,274L555,274L555,277C553,277 553,277 550.68,274.79C549.8,273.87 548.91,272.95 548,272C533.59,258.07 517.32,247.88 500,238L500,236Z" style="fill:rgb(210,169,97);fill-rule:nonzero;"/>
    </g>
    <g transform="matrix(1,0,0,1,-20,-20)">
        <path d="M596,214C608.82,219.42 618.8,239 626.19,250.19C626.67,250.91 627.15,251.62 627.65,252.37C628.09,253.04 628.53,253.72 628.98,254.42C629.37,255.01 629.76,255.61 630.16,256.22C631,258 631,258 631,262L629,262C628.47,261.08 627.93,260.16 627.38,259.21C619.18,245.21 609.93,232.37 599.33,220.06C596,216.18 596,216.18 596,214" style="fill:rgb(206,165,96);fill-rule:nonzero;"/>
    </g>
    <g transform="matrix(1,0,0,1,-20,-20)">
        <path d="M580,484L582,484C584.17,498.94 586.19,513.86 587.75,528.88C587.88,530.09 588,531.3 588.14,532.54C588.69,538.05 589.16,543.46 589,549L587,549C584.95,534.06 582.95,519.11 581.25,504.12C581.19,503.57 581.19,503.57 580.86,500.78C580.24,495.15 579.86,489.67 580,484" style="fill:rgb(211,173,109);fill-rule:nonzero;"/>
    </g>
    <g transform="matrix(1,0,0,1,-20,-20)">
        <path d="M138,349L140,349C140.28,356.3 139.17,363.23 138.06,370.44C136.08,383.96 135.21,397.34 135,411L133,411C132.66,393.72 132.84,377.06 136,360C136.11,359.39 136.11,359.39 136.64,356.27C137.07,353.84 137.52,351.42 138,349" style="fill:rgb(206,164,94);fill-rule:nonzero;"/>
    </g>
    <g transform="matrix(1,0,0,1,-20,-20)">
        <path d="M638,501C640.38,503.08 640.9,504.41 641.44,507.5C640.84,510.9 639.8,512.01 637,514C633.83,514.45 631.94,514.53 629.12,512.94C627.36,509.89 627.63,507.44 628,504C630.22,499.95 633.8,500.48 638,501" style="fill:rgb(203,165,98);fill-rule:nonzero;"/>
    </g>
    <g transform="matrix(1,0,0,1,-20,-20)">
        <path d="M566,291L568,291C590.2,333.33 590.2,333.33 589,352L587,352C586.8,351.12 586.61,350.25 586.41,349.34C582.25,331.69 576.72,314.49 568.57,298.27C567.36,295.76 566.49,293.71 566,291" style="fill:rgb(207,164,93);fill-rule:nonzero;"/>
    </g>
    <g transform="matrix(1,0,0,1,-20,-20)">
        <path d="M382.125,264.375C383.475,264.435 384.825,264.495 386.175,264.545C389.455,264.685 392.725,264.835 396.005,264.995L396.005,265.995C395.285,266.015 394.575,266.025 393.835,266.045C367.615,266.645 367.615,266.645 356.005,269.995C354.965,270.265 353.935,270.535 352.875,270.805C338.995,274.645 326.175,280.925 315.005,289.995C314.335,289.675 313.685,289.335 313.005,288.995C319.055,283.985 325.195,279.955 332.185,276.375C333.105,275.905 334.025,275.425 334.965,274.935C342.115,271.315 349.245,268.115 357.005,265.995C357.685,265.815 358.375,265.625 359.085,265.425C366.785,263.575 374.265,263.985 382.125,264.375" style="fill:rgb(213,196,170);fill-rule:nonzero;"/>
    </g>
    <g transform="matrix(1,0,0,1,-20,-20)">
        <path d="M235,329L238,330C237.86,330.59 237.71,331.19 237.56,331.8C235.23,342.23 234.64,351.42 240,361C244.4,367.65 249.72,370.95 257,374C254.39,375 253.31,375.12 250.67,374.07C241.77,368.67 235.89,363 232.66,352.93C230.77,344.5 231.65,336.9 235,329" style="fill:rgb(213,196,170);fill-rule:nonzero;"/>
    </g>
    <g transform="matrix(1,0,0,1,-20,-20)">
        <path d="M409.625,216.063C413.005,217.003 413.005,217.003 415.005,220.003C415.325,223.093 415.485,225.143 413.935,227.873C410.855,229.663 408.475,229.433 405.005,229.003C402.615,226.923 402.105,225.593 401.565,222.503C402.005,220.003 402.005,220.003 403.565,217.623C406.005,216.003 406.005,216.003 409.625,216.063" style="fill:rgb(203,165,100);fill-rule:nonzero;"/>
    </g>
    <g transform="matrix(1,0,0,1,-20,-20)">
        <path d="M311,423C313.06,426.1 314.54,429.2 316.12,432.56C319.31,439.1 323.19,444.53 328,450C329.17,451.37 330.33,452.75 331.5,454.12C332.32,455.07 333.15,456.02 334,457C325.67,453.24 319.46,446.39 316,438L316,436L310,437L310,435C308.52,435 307.04,435.04 305.57,435.11C298.28,435.3 288.97,435.53 283.19,430.39C282.8,429.93 282.41,429.47 282,429C284.81,429.51 287.43,430.14 290.16,431.03C294.41,432.1 298.09,432.23 302.44,432.12C303.17,432.12 303.9,432.11 304.65,432.1C306.44,432.07 308.22,432.04 310,432C310.7,428.85 311,426.27 311,423" style="fill:rgb(152,136,113);fill-rule:nonzero;"/>
    </g>
    <g transform="matrix(1,0,0,1,-20,-20)">
        <path d="M220,469C218.46,472.64 216.28,474.98 213.5,477.77L210.81,480.46C210.35,480.92 210.35,480.92 208,483.25C207.07,484.19 206.14,485.12 205.19,486.09C204.3,486.97 203.41,487.85 202.5,488.77C201.69,489.58 200.87,490.39 200.03,491.23C198,493 198,493 196,493C195.74,493.59 195.49,494.19 195.22,494.8C193.88,497.21 192.56,498.45 190.44,500.19C186.32,503.65 182.6,507.4 178.88,511.28C177,513 177,513 175,513C176.45,509.66 178.28,507.48 180.85,504.92L183.18,502.59C183.59,502.2 183.59,502.2 185.62,500.19C186.41,499.41 187.19,498.62 188,497.82C192.22,493.62 196.54,489.62 201.05,485.74C205.2,482.04 209.02,477.98 212.88,473.99C213.52,473.35 214.15,472.7 214.8,472.04C215.37,471.45 215.94,470.87 216.52,470.27C218,469 218,469 220,469" style="fill:rgb(207,168,95);fill-rule:nonzero;"/>
    </g>
    <g transform="matrix(1,0,0,1,-20,-20)">
        <path d="M176,528C179.78,529.6 182.54,532.12 185.56,534.81C197.87,545.48 211.69,554.27 226,562L226,564C222.4,563.44 219.85,562.54 216.78,560.59C216.39,560.35 216.39,560.35 214.41,559.1L211.94,557.5C211.51,557.23 211.51,557.23 209.37,555.85C200.06,549.83 191.35,543.2 182.81,536.12C182.25,535.66 181.68,535.2 181.1,534.72C178.49,532.52 177.1,531.3 176,528" style="fill:rgb(208,165,91);fill-rule:nonzero;"/>
    </g>
    <g transform="matrix(1,0,0,1,-20,-20)">
        <path d="M578.438,469.688C581.998,469.998 581.998,469.998 583.938,471.128C585.528,473.938 585.458,475.828 584.998,478.998C583.378,481.438 583.378,481.438 580.998,482.998C577.298,482.848 575.638,482.638 572.998,479.998C572.738,478.128 572.738,478.128 572.748,475.998C572.748,475.298 572.738,474.598 572.738,473.878C573.258,470.168 574.958,470.008 578.438,469.688" style="fill:rgb(204,166,97);fill-rule:nonzero;"/>
    </g>
    <g transform="matrix(1,0,0,1,-20,-20)">
        <path d="M625,272L625,274C624.12,274.14 623.25,274.28 622.34,274.43C619.03,274.96 615.72,275.49 612.41,276.03C610.99,276.26 609.57,276.48 608.15,276.71C606.77,276.94 605.39,277.16 604.01,277.38L599.9,278.04C594.8,278.86 589.7,279.74 584.62,280.64C580.41,281.22 576.23,281.17 572,281C574.46,278.54 575.89,278.43 579.29,277.78C579.83,277.68 579.83,277.68 582.56,277.15C583.72,276.93 584.87,276.72 586.06,276.5C586.65,276.39 586.65,276.39 589.62,275.83C601.38,273.67 613.01,271.85 625,272" style="fill:rgb(209,174,108);fill-rule:nonzero;"/>
    </g>
    <g transform="matrix(1,0,0,1,-20,-20)">
        <path d="M527,173L529,173C528.38,176.92 526.47,179.48 524.19,182.69C523.79,183.25 523.4,183.8 522.99,184.38C522.13,185.6 521.26,186.82 520.4,188.04C518.43,190.8 516.48,193.56 514.53,196.33C513.51,197.77 512.49,199.22 511.47,200.66C506.93,207.08 502.46,213.53 498,220L496,220C497.54,215.48 500.02,211.81 502.75,207.94C503.22,207.26 503.7,206.57 504.19,205.87C505.79,203.58 507.39,201.29 509,199C510.23,197.24 511.47,195.48 512.7,193.71C514.54,191.08 516.38,188.45 518.23,185.83C521.21,181.59 524.15,177.33 527,173" style="fill:rgb(207,167,96);fill-rule:nonzero;"/>
    </g>
    <g transform="matrix(1,0,0,1,-20,-20)">
        <path d="M259,540C264.99,539.5 268.92,540.8 274,544L276,546C275.98,548.16 275.98,548.16 275.62,550.62C275.57,551.03 275.57,551.03 275.29,553.1C275.24,553.41 275.24,553.41 275,555L273,555L273,553C272.41,552.74 271.83,552.48 271.22,552.22C268.83,550.9 267.31,549.48 265.44,547.5C263.32,545.28 261.58,543.72 259,542L259,540Z" style="fill:rgb(147,132,110);fill-rule:nonzero;"/>
    </g>
    <g transform="matrix(1,0,0,1,-20,-20)">
        <path d="M202,415L201,417C198.11,417.67 195.28,418.21 192.36,418.69C191.92,418.77 191.92,418.77 189.69,419.15C187.82,419.46 185.94,419.78 184.07,420.09C181.24,420.55 178.41,421.04 175.58,421.52C166.4,423.07 157.31,424.52 148,425L148,423C155.69,421.33 163.43,420.15 171.22,419.05C172.06,418.93 172.91,418.81 173.78,418.68C174.55,418.58 175.31,418.47 176.1,418.36C178,418 178,418 180,417C187.36,415.55 194.5,414.75 202,415" style="fill:rgb(207,169,100);fill-rule:nonzero;"/>
    </g>
    <g transform="matrix(1,0,0,1,-20,-20)">
        <path d="M525,678C528.32,678.01 530.99,680.68 531,683C530.997,686.29 528.29,688.997 525,689C522.23,688.99 520.01,686.77 520,683C520,680.257 522.257,678 525,678" style="fill:rgb(202,164,95);fill-rule:nonzero;"/>
    </g>
    <g transform="matrix(1,0,0,1,-20,-20)">
        <path d="M602,561C614.98,563.16 627.52,569.86 635.81,580.27L637,582L634,583C633.58,582.52 633.17,582.03 632.74,581.53C624.55,572.62 613.82,566.61 602,564L602,561Z" style="fill:rgb(209,170,102);fill-rule:nonzero;"/>
    </g>
    <g transform="matrix(1,0,0,1,-20,-20)">
        <path d="M361,500C363.39,502.32 365.69,504.63 367.84,507.17C378.8,520.01 392.95,528.89 407,538C405,539 405,539 402.44,538.19C400,537 400,537 399,535C396.53,533.66 393.99,532.5 391.45,531.32C389.14,530.07 387.76,528.89 386,527C385.22,526.55 384.43,526.09 383.62,525.62C380.6,523.75 378.49,521.55 376,519C375.09,518.11 374.18,517.23 373.25,516.32C372.32,515.41 371.39,514.5 370.44,513.56C369.51,512.66 368.58,511.75 367.62,510.82C361,503.7 361,503.7 361,500" style="fill:rgb(131,116,93);fill-rule:nonzero;"/>
    </g>
    <g transform="matrix(1,0,0,1,-20,-20)">
        <path d="M508,644C509.47,646.71 510.3,649.04 510.81,652.06C512.31,659.24 515.63,665.76 519.31,672.06C521,675 521,675 521,677L528,677C525.33,678.33 522.67,679.67 520,681L520,686L519,686L519,680L521,680C520.53,679.26 520.06,678.53 519.57,677.77C518.95,676.79 518.33,675.82 517.69,674.81C517.07,673.85 516.46,672.89 515.82,671.89C515.22,670.94 514.62,669.98 514,669C513.74,668.6 513.74,668.6 512.41,666.61C510.65,663.36 509.68,660.05 508.75,656.5C508.66,656.17 508.66,656.17 508.19,654.53C507.16,650.68 506.85,647.84 508,644" style="fill:rgb(210,171,106);fill-rule:nonzero;"/>
    </g>
    <g transform="matrix(1,0,0,1,-20,-20)">
        <path d="M353,392C355.37,392.71 357.74,393.42 360.11,394.14C362.02,394.71 363.94,395.26 365.86,395.8L368.56,396.56C369.39,396.79 370.22,397.02 371.07,397.25C373,398 373,398 374,400L377,402C370.45,402.43 365.47,402.41 359.75,398.97C358,398 358,398 355.86,397.5C354,397 354,397 352.75,394.94C352.63,394.62 352.63,394.62 352,393L353,392Z" style="fill:rgb(160,143,120);fill-rule:nonzero;"/>
    </g>
    <g transform="matrix(1,0,0,1,-20,-20)">
        <path d="M394,139L396,139C395.43,142.34 394.48,143.85 391.97,146.1C391.66,146.39 391.66,146.39 390.08,147.82C389.42,148.42 388.75,149.01 388.06,149.62C386.7,150.87 385.33,152.11 383.97,153.36L381.93,155.22C377.82,159.01 373.91,163.01 370,167L367,165L368.43,163.66C370.62,161.61 372.81,159.55 375,157.5C375.74,156.8 376.49,156.11 377.25,155.39C381.74,151.18 386.11,146.89 390.37,142.45C392,141 392,141 394,141L394,139Z" style="fill:rgb(208,170,100);fill-rule:nonzero;"/>
    </g>
    <g transform="matrix(1,0,0,1,-20,-20)">
        <path d="M506,481L507,481L509,487L525,487L526,490C523.59,490.53 521.17,491.05 518.75,491.56C518.41,491.64 518.41,491.64 516.68,492.02C509.99,493.42 509.99,493.42 507,492C504.56,488.34 504.76,486.31 505,482L506,481Z" style="fill:rgb(140,126,104);fill-rule:nonzero;"/>
    </g>
    <g transform="matrix(1,0,0,1,-20,-20)">
        <path d="M631,686C632.36,700.12 621.86,714.93 614,726C613.67,726.16 613.67,726.16 612,727C613.52,722.82 615.61,719.12 617.88,715.31C622.81,706.8 626.16,700.98 627.51,691.15C627.67,690.44 628.83,689.73 629,689C631,688 630,686 631,686" style="fill:rgb(142,127,106);fill-rule:nonzero;"/>
    </g>
    <g transform="matrix(1,0,0,1,-20,-20)">
        <path d="M217,382C220.92,382.92 222.54,384.5 224.75,387.69C231.81,397.59 240.49,400.75 252,403L252,404C242.09,404.75 233.7,401.39 226.08,395.08C222.47,391.48 219.61,387.37 217,383L217,382Z" style="fill:rgb(213,196,170);fill-rule:nonzero;"/>
    </g>
    <g transform="matrix(1,0,0,1,-20,-20)">
        <path d="M318,387L320,388L317,392L319,392C318.72,392.55 318.45,393.1 318.16,393.66C317.97,394.05 317.97,394.05 317,396C316.79,396.42 316.79,396.42 315.75,398.52C312.14,406.37 311.14,413.4 311,422L310,422C309.97,419.6 309.95,417.21 309.94,414.81L309.91,412.77C309.89,409.03 310.22,405.65 311,402C310.77,401.38 310.55,400.76 310.31,400.12C309.78,396.52 311.99,393.84 314,391C316.25,388.56 316.25,388.56 318,387" style="fill:rgb(139,124,102);fill-rule:nonzero;"/>
    </g>
    <g transform="matrix(1,0,0,1,-20,-20)">
        <path d="M136,440L139,440C139.24,441.1 139.48,442.2 139.73,443.33C141.49,451.11 143.32,458.6 146.36,466C147,468 147,468 146,470L143,469C141.82,464.92 140.66,460.83 139.5,456.75C139.17,455.59 138.83,454.43 138.49,453.24C138.17,452.12 137.86,451.01 137.53,449.86C137.24,448.83 136.94,447.81 136.64,446.75C136,444 136,444 136,440" style="fill:rgb(209,170,105);fill-rule:nonzero;"/>
    </g>
    <g transform="matrix(1,0,0,1,-20,-20)">
        <path d="M540,646C540.38,646.39 540.38,646.39 542.31,648.38C545,651 545,651 548,653C548.68,653.78 549.36,654.57 550.06,655.38C558.61,663.01 569.14,662.75 580,663C574.44,666.31 567.68,665.68 561.5,664.54C552.47,661.88 545.43,655.54 540,648L540,646Z" style="fill:rgb(211,171,98);fill-rule:nonzero;"/>
    </g>
    <g transform="matrix(1,0,0,1,-20,-20)">
        <path d="M184,248L186,248C185.36,251.29 184.16,253.6 182.35,256.41C181.82,257.23 181.29,258.06 180.74,258.91C180.47,259.34 180.47,259.34 179.06,261.5C177.97,263.2 176.88,264.89 175.79,266.59C175.3,267.34 174.81,268.09 174.31,268.87C173.08,270.87 172.01,272.88 171,275L168,275C169.6,270.53 171.86,266.66 174.31,262.62C174.69,261.99 175.07,261.36 175.46,260.7C178.11,256.31 180.87,252.06 184,248" style="fill:rgb(202,163,94);fill-rule:nonzero;"/>
    </g>
    <g transform="matrix(1,0,0,1,-20,-20)">
        <path d="M497,146C501.6,146.67 505.61,148.42 509.81,150.31C510.52,150.63 511.23,150.94 511.96,151.26C516.71,153.38 521.39,155.6 526,158L526,160C520.02,158.99 514.78,156.52 509.25,154.12C508.72,153.9 508.72,153.9 506.02,152.77C505.01,152.33 504,151.9 502.95,151.45C502.03,151.05 501.1,150.65 500.15,150.24C498,149 498,149 497,146" style="fill:rgb(204,164,93);fill-rule:nonzero;"/>
    </g>
    <g transform="matrix(1,0,0,1,-20,-20)">
        <path d="M166,300L168,300C169.59,304.37 171.18,308.75 172.75,313.13C173.29,314.63 173.83,316.12 174.38,317.6L176.69,324.02C176.94,324.69 177.18,325.36 177.44,326.05C178.02,327.68 178.52,329.34 179,331L178,333C175.3,330.66 174.31,328.64 173.25,325.25C172.95,324.33 172.65,323.41 172.35,322.47L171.44,319.56C170.83,317.67 170.23,315.77 169.62,313.88C169.36,313.04 169.09,312.2 168.82,311.33C168,309 168,309 166.91,306.87C165.75,304.49 165.86,302.61 166,300" style="fill:rgb(208,167,104);fill-rule:nonzero;"/>
    </g>
    <g transform="matrix(1,0,0,1,-20,-20)">
        <path d="M341,139C338.63,141.78 336.61,142.65 333.11,143.61C332.18,143.87 331.24,144.13 330.27,144.4C329.3,144.66 328.32,144.92 327.31,145.19C326.82,145.32 326.82,145.32 324.32,146.01C321.88,146.68 319.44,147.35 317,148L317,146L315,145C318.58,143.8 322.16,142.61 325.75,141.44C326.77,141.1 327.78,140.75 328.83,140.4L331.8,139.43C332.7,139.14 333.6,138.84 334.53,138.53C337.12,137.97 338.53,138.13 341,139" style="fill:rgb(210,175,110);fill-rule:nonzero;"/>
    </g>
    <g transform="matrix(1,0,0,1,-20,-20)">
        <path d="M175,290C182.21,292.35 189.33,294.91 196.44,297.56C196.98,297.76 196.98,297.76 199.73,298.77C200.77,299.16 201.8,299.54 202.87,299.94C203.81,300.29 204.75,300.64 205.71,300.99C208,302 208,302 210,304C204.55,303.6 200.54,302.53 195.64,300.18C191.24,298.21 186.68,296.72 182.14,295.15C179.64,294.23 177.34,293.26 175,292L175,290Z" style="fill:rgb(205,165,92);fill-rule:nonzero;"/>
    </g>
    <g transform="matrix(1,0,0,1,-20,-20)">
        <path d="M334,458C336.49,458.41 338.59,458.78 340.81,460C343.05,461.02 344.71,461.29 347.14,461.56C348.41,461.71 349.69,461.85 351,462C351.51,464.52 352.01,467.04 352.5,469.56C352.64,470.27 352.79,470.97 352.93,471.7C353.81,476.22 354.15,480.39 354,485C349.32,480.32 349.6,471.29 349,465C348.42,464.9 347.84,464.8 347.24,464.7C341.9,463.68 338.31,462.32 334,459L334,458Z" style="fill:rgb(142,126,104);fill-rule:nonzero;"/>
    </g>
    <g transform="matrix(1,0,0,1,-20,-20)">
        <path d="M584,515C586.54,517.54 586.44,518.89 586.85,522.42C586.98,523.51 587.11,524.6 587.24,525.72C587.37,526.86 587.49,528.01 587.62,529.19C587.76,530.31 587.89,531.44 588.03,532.6C588.66,538.1 589.18,543.46 589,549L587,549C586.49,545.02 585.99,541.04 585.5,537.06C585.36,535.95 585.21,534.83 585.07,533.68C584.29,527.4 583.84,521.33 584,515" style="fill:rgb(206,162,93);fill-rule:nonzero;"/>
    </g>
    <g transform="matrix(1,0,0,1,-20,-20)">
        <path d="M235,329L238,330C237.86,330.58 237.71,331.17 237.56,331.77C236.02,338.58 235.78,345.03 236,352L232,350C231.65,342.37 232,336.08 235,329" style="fill:rgb(213,196,170);fill-rule:nonzero;"/>
    </g>
    <g transform="matrix(1,0,0,1,-20,-20)">
        <path d="M508,613L510,613C509.97,613.29 509.97,613.29 509.8,614.74C509.05,621.7 508.7,628.64 508.44,635.62C508.39,636.72 508.35,637.82 508.31,638.96C508.2,641.64 508.1,644.32 508,647C505.9,643.85 505.74,643.07 505.73,639.46L505.73,636.76C505.73,636.29 505.73,636.29 505.75,633.94C505.74,633.03 505.73,632.13 505.73,631.2C505.74,624.92 506.55,619.1 508,613" style="fill:rgb(203,157,83);fill-rule:nonzero;"/>
    </g>
    <g transform="matrix(1,0,0,1,-20,-20)">
        <path d="M407,539C409.02,539.6 411.02,540.27 413,541L414,543C413.47,543.26 413.47,543.26 410.79,544.59C406.87,546.83 404.69,549.72 402.44,553.56L401.3,555.41C398,560.83 394.93,566.38 392,572L391,570C392.22,566.8 393.95,563.83 395.56,560.81C395.99,559.97 396.42,559.14 396.87,558.27C399.62,553.06 402.58,547.99 407,544L409,544L409,542L406,540L407,539Z" style="fill:rgb(126,112,90);fill-rule:nonzero;"/>
    </g>
    <g transform="matrix(1,0,0,1,-20,-20)">
        <path d="M496,527C499.7,527.5 503.35,528.25 507,529L507,531C506.73,531.12 506.73,531.12 505.39,531.73C501.26,533.69 498.03,535.47 495,539C494.97,537.19 494.95,535.38 494.94,533.56C494.93,532.55 494.91,531.54 494.9,530.5C495,528 495,528 496,527" style="fill:rgb(139,125,104);fill-rule:nonzero;"/>
    </g>
    <g transform="matrix(1,0,0,1,-20,-20)">
        <path d="M660,329C665.27,338.2 665.57,349.81 664,360L663,360C658.32,334.65 658.32,334.65 660,329" style="fill:rgb(210,174,112);fill-rule:nonzero;"/>
    </g>
    <g transform="matrix(1,0,0,1,-20,-20)">
        <path d="M581,322C586.15,329.73 589.61,342.58 589,352L587,352C586.75,350.98 586.49,349.97 586.23,348.92C586.07,348.26 585.9,347.6 585.73,346.92C585.37,345.47 585,344.01 584.64,342.56C583.79,339.15 582.93,335.74 582.03,332.34C581.75,331.28 581.47,330.22 581.19,329.12C580.93,328.18 580.68,327.23 580.42,326.26C580,324 580,324 581,322" style="fill:rgb(210,172,108);fill-rule:nonzero;"/>
    </g>
    <g transform="matrix(1,0,0,1,-20,-20)">
        <path d="M417,143C420.15,144.36 421.95,145.81 424.09,148.48C424.65,149.17 425.2,149.86 425.78,150.57C426.35,151.29 426.91,152.01 427.5,152.75C428.07,153.45 428.64,154.16 429.22,154.88C432.36,158.8 435.29,162.77 438,167L436,169C435.37,168.18 434.74,167.36 434.09,166.51C433.23,165.38 432.36,164.25 431.5,163.12C431.05,162.54 430.6,161.95 430.14,161.35C426.67,156.84 423.12,152.41 419.5,148.02C418,146 418,146 417,143" style="fill:rgb(210,167,96);fill-rule:nonzero;"/>
    </g>
    <g transform="matrix(1,0,0,1,-20,-20)">
        <path d="M323,455C324.21,458.63 323.76,459.23 322.12,462.56C317.4,471.52 310.36,478.4 302,484L299,483C299.78,482.57 300.57,482.13 301.38,481.69C304,480 304,480 306,477C306.72,476.63 307.44,476.26 308.19,475.88C315.49,471 319.47,462.8 323,455" style="fill:rgb(139,124,101);fill-rule:nonzero;"/>
    </g>
</svg>
