<svg xmlns="http://www.w3.org/2000/svg" viewBox="0 0 512 512" role="img" aria-labelledby="title desc"><title id="title">The Librarian face icon</title><desc id="desc">A tight neutral-palette profile crop of The Librarian on a dark background.</desc><rect width="512" height="512" fill="#061B22"/><svg x="0" y="0" width="512" height="512" viewBox="205 205 380 380" preserveAspectRatio="xMidYMid meet"><path fill="#ac9c85" d="M383.256 48.87c1.05 0 2.1-.01 3.18-.01 1.12 0 2.25 0 3.41.01 1.16 0 2.32-.01 3.52-.01 2.45 0 4.91 0 7.36.01 3.76 0 7.52 0 11.28-.01 2.38 0 4.77 0 7.15.01 1.13-.01 2.25-.01 3.41-.01.53 0 .53 0 3.18.01h2.79c2.31.12 4.25.51 6.46 1.13 1.62.16 3.25.29 4.87.39 27.17 1.88 53.55 7.45 79.51 15.67.5.16.5.16 3.04.96 5.83 1.9 11.37 4.15 16.92 6.76 2.54 1.16 5.09 2.2 7.69 3.21 5.33 2.1 10.43 4.56 15.54 7.13.47.24.47.24 2.88 1.45a318.5 318.5 0 0 1 37.55 22.43c.55.37.55.37 3.29 2.26 12.65 8.81 24.58 18.53 35.84 29.06 1.97 1.84 3.95 3.66 5.96 5.46 6.4 5.73 12.3 11.71 17.91 18.22l2.7 3.03c27.2 30.85 49.91 67.4 64.3 105.97.47 1.17.93 2.35 1.41 3.56 3.32 8.42 6.1 16.98 8.78 25.63.33 1.07.67 2.13 1.01 3.23 3.2 10.49 5.71 21.05 7.37 31.89.64 4.18 1.31 8.24 2.42 12.32 1.6 6.2 2.07 12.58 2.64 18.93.06.72.13 1.44.2 2.18 2.58 29.4 2.8 59.94-.83 89.26l-.3 2.55c-.65 5.2-1.42 10.37-2.24 15.54-.5 3.17-.95 6.34-1.41 9.51-4.66 31.17-13.28 61.48-23.05 91.4-.58 1.82-1.17 3.64-1.75 5.46-2.17 6.7-4.39 13.31-7.39 19.69-1.97 4.24-3.46 8.69-4.98 13.11-.41 1.19-.82 2.39-1.25 3.61-.38 1.12-.76 2.23-1.15 3.37-1.43 3.87-3.31 7.48-5.18 11.15-2.1 4.23-3.9 8.58-5.73 12.92-5.8 13.51-12.2 26.71-18.69 39.9-.85 1.75-1.71 3.49-2.56 5.24-7.08 14.5-14.6 28.65-22.65 42.63-1.72 3.01-3.4 6.04-5.07 9.07a719 719 0 0 1-23.67 39.82c-1.95 3.07-3.89 6.14-5.83 9.21-16.75 26.45-34.55 52.24-52.82 77.66-1.55 2.14-3.08 4.29-4.61 6.45-6.51 9.17-13.17 18.22-19.86 27.26-1.76 2.38-3.5 4.76-5.25 7.15-6.79 9.26-13.68 18.42-20.66 27.53-4.77 6.24-9.4 12.57-13.96 18.96-4.22 5.88-8.59 11.63-13 17.37a635 635 0 0 0-17.01 23.26c-3.1 4.45-6.3 8.85-9.49 13.24a959 959 0 0 0-17.44 24.94c-.23.35-.23.35-1.44 2.14-15.05 22.27-29.02 45.07-41.56 68.86h-2c-7.59-16.88-8.39-34.98-8.5-53.19l-.03-2.54c-.15-15.85 2.16-31.14 7.6-46.08.29-.81.58-1.63.88-2.46 12.97-34.74 36.57-65.27 61.68-92.17 2.01-2.17 3.95-4.37 5.87-6.62 3.3-3.82 6.87-7.34 10.46-10.87 3.24-3.22 6.27-6.56 9.24-10.04 2.91-3.27 6.05-6.29 9.18-9.34 2.05-2.1 3.96-4.22 5.87-6.44 4.74-5.47 9.93-10.47 15.08-15.54 4.24-4.2 8.29-8.47 12.18-13 2.3-2.63 4.79-5.03 7.31-7.46 1.89-1.95 3.68-3.95 5.47-6 4.23-4.88 8.67-9.56 13.11-14.25 3.77-3.99 7.44-8.05 11.04-12.2 1.94-2.24 3.94-4.43 5.94-6.61 3.89-4.32 7.59-8.76 11.25-13.28a465 465 0 0 1 6.36-7.6c5.75-6.73 11.27-13.61 16.69-20.61 1.27-1.63 2.54-3.25 3.82-4.88 13.67-17.54 25.06-35.42 34.59-55.55 3.67-7.73 7.47-15.38 11.34-23.02 20.91-41.36 40.14-85.08 51.97-129.98.59-2.22 1.22-4.43 1.86-6.63 1.31-4.53 2.54-9.08 3.74-13.64.23-.84.46-1.69.69-2.56 10.59-40.09 13.67-80.12 12.31-121.44-.03-1.1-.07-2.2-.1-3.33l-.36-9.99-.12-3.11-.12-2.87c-.03-.84-.06-1.68-.1-2.54-.2-2.16-.2-2.16-1.2-5.16-.24-2.33-.47-4.67-.68-7-2.04-18.51-6.97-36.52-12.32-54.31-.2-.69-.4-1.37-.61-2.07-2.85-9.53-6.32-18.53-10.39-27.62-.64-1.51-1.28-3.02-1.91-4.53-14.19-33.2-34.78-62.89-59.09-89.47-.87-.98-1.75-1.97-2.66-2.98-5.76-6.43-11.77-12.39-18.34-18.02-.98-.86-1.97-1.73-2.98-2.61-48.53-42.11-109.43-67.29-173.02-74.39-1.05-.12-2.1-.24-3.19-.36-49.25-5.3-99.64-.77-146.81 14.36-1.71.52-3.43 1.05-5.15 1.57-34.4 10.91-67.13 30.62-94.85 53.43-.54.44-1.08.89-1.64 1.35-8.4 6.92-16.47 14.16-24.36 21.65-.82.78-1.65 1.56-2.5 2.37-4.77 4.65-9.03 9.57-13.19 14.77-2.32 2.88-4.71 5.68-7.12 8.48-10.65 12.81-19.49 26.73-27.86 41.1-1.18 2.03-2.37 4.05-3.58 6.06-7.57 12.91-13.58 26.13-18.37 40.29-1.19 3.46-2.55 6.82-4 10.18-8.37 19.83-12.46 41.8-15.04 63.09-.35 2.74-.76 5.46-1.18 8.18-3.78 25.66-3.71 52.78-.16 78.48.14 1.03.27 2.06.41 3.12 3.85 29.33 10.28 58.46 21.59 85.88.34.83.68 1.65 1.03 2.51 11.93 28.92 26.7 55.83 45.97 80.49.74.94 1.47 1.89 2.22 2.86 3.94 5.03 8.1 9.81 12.41 14.52 1.29 1.43 2.58 2.86 3.83 4.32 4.76 5.55 9.85 10.76 15.03 15.92 1.45 1.44 2.89 2.89 4.33 4.33 4.71 4.72 9.48 9.29 14.54 13.63 2.62 2.26 4.99 4.74 7.39 7.23 1.82 1.77 3.66 3.4 5.59 5.04 6.04 5.24 11.63 10.97 17.27 16.63 1.95 1.95 3.91 3.9 5.86 5.85 6.06 6.05 12.02 12.11 17.53 18.67 1.06 1.2 2.12 2.41 3.18 3.6 6.94 7.91 13.57 15.94 19.82 24.4.5.67 1 1.35 1.52 2.04 13.48 18.24 25.28 37.24 36.48 56.96.41.71.81 1.42 1.23 2.15 26.64 47.22 40.71 100.06 50.65 152.97.19 1.03.39 2.06.59 3.12 1.95 10.45 3.73 20.87 5.05 31.42.64 4.41 1.66 8.68 2.71 13.01 1.29 5.55 2.23 11.18 3.22 16.79 2.03 11.37 4.34 22.48 7.81 33.52 1.83 5.84 1.83 5.84.74 8.02-.3-.49-.6-.98-.92-1.48-8.02-12.85-16.34-25.48-24.83-38.02-.48-.72-.96-1.43-1.46-2.17-6.45-9.54-13.04-18.98-19.79-28.33-.29-.41-.29-.41-1.77-2.47-11.36-15.82-22.92-31.49-34.62-47.05-4.22-5.61-8.39-11.26-12.54-16.92-5.03-6.85-10.15-13.63-15.32-20.37-5.63-7.37-11.12-14.8-16.46-22.38-2.51-3.54-5.06-7.05-7.6-10.56-.55-.76-1.1-1.52-1.66-2.3l-8.25-11.4c-34.31-47.28-66.75-96.27-94.78-147.55-.48-.88-.96-1.77-1.46-2.67-3.08-5.61-6.14-11.23-9.19-16.85-1.16-2.14-2.33-4.27-3.5-6.4-9.65-17.69-17.85-36.14-26.07-54.52-4.73-10.55-4.73-10.55-7.06-15.13a74 74 0 0 1-3.78-8.93c-1.59-4.52-3.24-9.02-4.94-13.5-.46-1.23-.92-2.45-1.39-3.72-.23-.61-.46-1.23-.7-1.86-.5-1.33-1-2.67-1.5-4-1.3-3.49-2.62-6.97-3.95-10.45-7.06-18.42-12.21-37.41-17.46-56.4-.58-2.09-1.18-4.18-1.81-6.26-2.84-9.59-4.2-19.52-5.81-29.37l-1.41-8.49c-.29-1.75-.58-3.5-.86-5.26-.99-5.97-.99-5.97-2.11-8.19-.35-2.44-.66-4.86-.93-7.31-.08-.72-.16-1.44-.25-2.18-.17-1.63-.35-3.26-.53-4.89-.18-1.68-.37-3.35-.55-5.03-1.47-13.35-2.11-26.54-2.05-39.97 0-.95.01-1.9.01-2.88.23-58.52 12.54-116.22 39.17-168.51.76-1.49 1.51-2.97 2.25-4.46 9.63-19.18 21.02-37.07 34.38-53.87 1.43-1.8 2.82-3.63 4.2-5.46 7.42-9.79 15.75-18.64 24.3-27.44.58-.6 1.16-1.19 1.76-1.81 5.86-6 11.83-11.78 18.24-17.19.91-.8 1.82-1.59 2.75-2.41 8.97-7.83 18.5-14.78 28.25-21.59.64-.45 1.28-.9 1.93-1.36 30.51-21.31 65.03-37.85 101.09-47.12 3.1-.81 6.16-1.74 9.23-2.65 18.04-5.11 36.66-7.59 55.36-8.66 2.39-.21 2.39-.21 4.22-.72 2.53-.57 4.83-.62 7.43-.62"/>
<path fill="#b09f87" d="M507 287c10.42 3.87 19 10.19 24.65 19.82 2.37 5.6 2.21 11.22 1.35 17.18-1.56 3.19-3.45 5.55-6 8l-2 2 4-1c6.21 13.43 10.1 27.7 10.24 42.55.01.81.01 1.62.02 2.46.02 1.71.03 3.42.04 5.13.01 1.73.03 3.47.06 5.2.31 18.24.31 18.24-4.36 26.66-.48 1.01-.96 2.02-1.45 3.06-.41.78-.82 1.57-1.24 2.38-7.66 14.78-2.34 32.83 2.42 47.86 1.06 3.21 2.18 6.39 3.35 9.57.96 3.25 1.22 5.76.92 9.13-4.22 5.63-10.14 6.32-16.7 7.44-2.3.56-2.3.56-5.3 2.56.05 1.11.09 2.22.14 3.36.04 1.46.07 2.93.11 4.39.03.73.07 1.46.1 2.21.07 3.56-.02 5.6-2.18 8.49C513 517 513 517 510 518c.02.3.02.3.11 1.83.21 6.42.21 6.42-1.11 9.48-2.48 2.09-5.07 3.25-8.06 4.47-2.7 1.7-3.62 3.33-4.94 6.22-.37 3.3-.37 3.3-.44 6.88-.34 5.98-.65 9.51-4.56 14.12-4.6 3.54-9.41 4.73-15.16 4.43-34.55-5.18-79.02-33.62-102.84-58.43l-2.24-2.18c-9.88-10.16-14.01-23.5-17.76-36.82.58 18.01 8.53 34.68 21.61 46.99 12.16 10.22 25.73 18.93 39.39 27.01-.72.56-1.44 1.11-2.19 1.69-5.06 4.16-8.82 8.39-12 14.12-.38.68-.75 1.36-1.15 2.06-5.39 9.99-9.53 20.57-13.66 31.13-.31.79-.62 1.58-.94 2.4-1.87 4.81-3.54 9.66-5.06 14.6-.24.77-.48 1.55-.73 2.34-5.99 19.83-6.96 40.89-.27 60.66l-.48-2.79c-3.43-24.21.91-53.54 12.48-75.21 9.28 8.23 10.81 25.49 13 37 .17.86.34 1.72.51 2.6 7.37 39.69 3.3 84.11-4.51 123.4h-2c-.2-.66-.41-1.32-.62-2-17.06-54.5-44.86-105.5-80.11-150.38-1.35-1.72-2.68-3.45-4.02-5.18A314 314 0 0 0 295 578c-1.71-1.94-3.4-3.9-5.09-5.86-1.49-1.67-3.04-3.3-4.6-4.91-.47-.48-.93-.96-1.41-1.46-1.34-1.4-2.7-2.78-4.06-4.16C278 559 278 559 278.2 556.84c1.05-3.73 2.41-7.32 3.82-10.93.62-1.61 1.23-3.21 1.85-4.82.96-2.5 1.93-5 2.9-7.5 4.82-12.43 9.55-24.75 11.42-38.03 1-4.91 1.94-7.36 6-10.37.79-.52 1.59-1.04 2.41-1.58 8.35-5.6 13.3-14.67 17.4-23.61v-2c-.26.61-.51 1.21-.78 1.84-5.76 12.61-15.37 21.91-28.04 27.4-13.09 4.58-29.27 3.09-41.71-2.55-1.15-.56-2.29-1.11-3.47-1.69-.49-.22-.49-.22-2.97-1.35-17.82-8.78-30.55-24.6-37.28-43.1-3.76-11.89-4.38-23.6.87-35.11.46-.81.91-1.61 1.38-2.44 1.77 2.66 2.69 4.72 3.75 7.69 4.52 11.3 12.13 17.2 23.13 22.19 4.91 1.77 9.21 2.24 14.43 2.18 1.07-.01 2.14-.02 3.24-.02.4-.01.4-.01 2.45-.04l-2.49-.3c-12.65-1.69-22.64-5.17-31.51-14.7-.51-.5-1.02-1.01-1.54-1.52-7.5-7.88-7.79-16.85-7.76-27.26.3-3.22.3-3.22 2.3-6.22.39.64.78 1.28 1.18 1.94 6.05 9.35 13.76 15.68 24.82 18.06h3c-.62-.14-1.23-.27-1.87-.41-9.85-2.5-17.31-8.3-23.13-16.59-3.64-6.38-4.68-12.03-4.56-19.31 0-.46 0-.46.03-2.79.34-11.2 4.36-19.45 11.53-27.9.49-.6.98-1.2 1.49-1.82 1.16-1.4 2.33-2.79 3.51-4.18l1 2c-.15.39-.15.39-.94 2.38-2.68 9.16-1.46 18.21 2.94 26.62 3.51 5.14 7.11 8.7 13 11-.6-.5-1.21-.99-1.83-1.5-7.14-6.07-12.51-12.21-13.39-21.97-.28-8.69.9-16.17 6.6-22.97 5.04-5.27 9.78-7.63 17.06-7.87 3.31.05 4.55.31 7.56 1.93 4.51 5.36 3.03 13.58 2.79 20.22-.08 4.24.17 7.55 1.78 11.51 1.65 4.22 1.65 4.22.43 7.65a88 88 0 0 1-3.25 4.5c-8.3 11.51-11.45 23.65-9.25 37.67 2.57 11.23 7.35 21.79 17 28.59 2.46 1.51 4.92 2.94 7.5 4.24l2.24 1.15c3.94 1.21 7.67 1.14 11.76 1.1.79.01 1.59.02 2.41.02 4.31-.01 7.66-.27 11.59-2.27l-3 1c-12.28.99-23.11-1.49-33-9-8.54-7.68-13.44-17.3-14.27-28.75-.48-13.98 2.72-24.7 12.27-35.25.5-.6 1-1.2 1.51-1.82 8.39-9.41 22.73-16.45 35.21-17.38 20.84-.95 35.17 3.41 53.14 13.32 17.94 9.86 36.82 15.49 57.39 10.82 1.93-.6 3.85-1.25 5.75-1.94.6-.21 1.2-.42 1.82-.64 10.08-3.57 18.99-8.47 28.07-14.08 10.32-6.32 20.24-9.92 32.11-12.28-2.4.21-4.79.44-7.19.69-.65.05-1.31.1-1.98.16-13.31 1.45-25.19 8.77-36.72 15.07-19.07 10.16-37.3 12.63-58.11 7.08-3.44-1.12-6.83-2.26-10-4l-1-2c1.22-.35 2.43-.7 3.69-1.06 11.2-3.79 20.45-10.3 29.59-17.58 18.28-14.45 36.3-25.39 60.42-23.64 7.21.88 13.86 3.68 20.4 6.73 7.62 3.51 14.49 4.81 22.9 3.55 3.5-1.69 4.82-2.73 7-6 1.03-8.03.16-16.74-4.76-23.37-1.24-1.41-2.51-2.79-3.81-4.13C507 288 507 288 507 287"/>
<path fill="#a1917a" d="M266 319.625c4.51 5.36 3.03 13.57 2.79 20.21-.08 4.25.17 7.56 1.78 11.52 1.65 4.22 1.65 4.22.43 7.65a88 88 0 0 1-3.25 4.5c-8.3 11.51-11.45 23.64-9.25 37.66 2.57 11.23 7.35 21.8 17 28.59 2.46 1.52 4.92 2.94 7.5 4.25.74.37 1.48.75 2.24 1.14 3.94 1.22 7.67 1.14 11.76 1.1.4.01.4.01 2.41.03 4.31-.02 7.66-.28 11.59-2.27-.5.16-.5.16-3 1-7.91.63-15.62.07-23-3-1.81-1.61-1.81-1.61-3-3 2.81.51 5.43 1.14 8.16 2.03 4.25 1.07 7.93 1.19 12.28 1.09l2.21-.03c1.79-.02 3.57-.06 5.35-.09.14-.75.29-1.49.44-2.26.46-2.27.98-4.5 1.56-6.74.29.67.58 1.35.88 2.05 5.92 13.43 13.95 28.71 28.12 34.95 3.31.78 6.64 1.42 10 2 .23 1.28.46 2.56.7 3.88 5.11 27.49 15.15 44.55 38.17 60.66 7.88 5.4 15.91 10.59 24.13 15.46-.72.55-1.44 1.11-2.19 1.68-5.06 4.17-8.82 8.4-12 14.13-.38.68-.75 1.36-1.15 2.06-5.39 9.99-9.53 20.57-13.66 31.13-.31.79-.62 1.58-.94 2.39-1.87 4.82-3.54 9.67-5.06 14.61l-.73 2.34c-5.99 19.82-6.96 40.88-.27 60.66l-.48-2.79c-3.43-24.22.91-53.54 12.48-75.21 9.28 8.23 10.81 25.49 13 37 .17.85.34 1.71.51 2.6 7.37 39.69 3.3 84.11-4.51 123.4h-2c-.2-.67-.41-1.33-.62-2.01-17.06-54.5-44.86-105.5-80.11-150.37-1.35-1.73-2.68-3.46-4.02-5.19a314 314 0 0 0-17.25-20.43c-1.71-1.95-3.4-3.9-5.09-5.86-1.49-1.68-3.04-3.3-4.6-4.91-.47-.48-.93-.97-1.41-1.47-1.34-1.39-2.7-2.77-4.06-4.15-1.84-2.61-1.84-2.61-1.64-4.77 1.05-3.73 2.41-7.33 3.82-10.93.62-1.61 1.23-3.22 1.85-4.82.96-2.5 1.93-5.01 2.9-7.51 4.82-12.43 9.55-24.75 11.42-38.02 1-4.92 1.94-7.36 6-10.38.79-.52 1.59-1.04 2.41-1.57 8.35-5.61 13.3-14.67 17.4-23.61v-2c-.26.6-.51 1.21-.78 1.83-5.76 12.62-15.37 21.91-28.04 27.4-13.09 4.58-29.27 3.09-41.71-2.54-1.15-.56-2.29-1.12-3.47-1.69-.49-.23-.49-.23-2.97-1.35-17.82-8.78-30.55-24.61-37.28-43.1-3.76-11.9-4.38-23.61.87-35.12.46-.8.91-1.61 1.38-2.43 1.77 2.65 2.69 4.72 3.75 7.68 4.52 11.31 12.13 17.21 23.13 22.19 4.91 1.77 9.21 2.24 14.43 2.19l3.24-.03c.4-.01.4-.01 2.45-.03-.82-.1-1.64-.2-2.49-.3-12.65-1.7-22.64-5.17-31.51-14.7-.25-.26-.25-.26-1.54-1.53-7.5-7.87-7.79-16.85-7.76-27.25.3-3.22.3-3.22 2.3-6.22.39.64.78 1.28 1.18 1.94 6.05 9.35 13.76 15.68 24.82 18.06h3c-.62-.14-1.23-.28-1.87-.42-9.85-2.5-17.31-8.3-23.13-16.58-3.64-6.38-4.68-12.03-4.56-19.32 0-.46 0-.46.03-2.79.34-11.19 4.36-19.44 11.53-27.89.49-.61.98-1.21 1.49-1.83q1.74-2.1 3.51-4.17c.33.66.66 1.31 1 2-.31.78-.62 1.56-.94 2.37-2.68 9.16-1.46 18.21 2.94 26.63 3.51 5.13 7.11 8.69 13 11-.6-.5-1.21-1-1.83-1.51-7.14-6.07-12.51-12.21-13.39-21.96-.28-8.7.9-16.17 6.6-22.97 6.41-6.7 15.85-10.69 24.62-5.94"/>
<path fill="#ae9e87" d="M266 540c3.88 1.39 7.08 3.08 10 6-.02 2.16-.02 2.16-.38 4.62-.11.82-.22 1.64-.33 2.48-.1.63-.19 1.25-.29 1.9h-2v-2c-.59-.26-1.18-.51-1.79-.78-2.4-1.32-3.77-2.74-5.59-4.78-3.03-3.16-5.1-4.33-9.62-4.44l-1 2c1.01.85 2.02 1.69 3.06 2.56 8.98 7.86 17.64 16.44 25.34 25.56 1.96 2.3 4 4.52 6.04 6.76 4.4 4.88 8.51 9.94 12.56 15.12l3.12 3.93c41.47 52.45 74.33 113.36 92.29 177.95.39 1.42.8 2.83 1.21 4.25 4.26 14.74 6.94 29.74 9.38 44.87l.55 3.34c2.55 16.35 2.64 32.8 2.64 49.32 0 3.07.02 6.15.03 9.22a328 328 0 0 1-4.53 55.62q-.165.975-.33 1.98c-3.82 22.98-9.91 45.17-16.36 67.52h-1c-.01-.69-.01-1.38-.02-2.08-.6-67.34-.6-67.34-3.98-99.92-.07-.72-.15-1.43-.22-2.17-2.66-25.39-6.94-50.29-13.28-75.02-.09-.36-.09-.36-.56-2.19-3.37-13.06-7.04-26.05-11.94-38.62-.66-1.82-1.32-3.64-1.98-5.47-3.87-10.62-7.87-20.92-13.2-30.9-1.44-2.74-2.59-5.52-3.7-8.41-2.16-5.53-4.87-10.66-7.74-15.84-.53-.97-1.06-1.93-1.61-2.92-21.31-38.37-48.98-76.1-82.77-104.46-.55-.47-1.1-.93-1.67-1.41-11.46-9.63-23.27-18.25-36.33-25.59 1.46-3.33 3.31-5.57 5.81-8.19 5.94-6.48 11.13-13.48 16.43-20.49 3.02-3.98 6.07-7.93 9.14-11.88.55-.73 1.11-1.45 1.69-2.2 12.76-16.45 12.76-16.45 22.93-15.24"/>
<path fill="#a89880" d="M391.175 242.815c1.99 0 3.98-.02 5.98-.04 11.58-.02 22.71.86 33.84 4.23 1.21.34 2.42.68 3.66 1.04 28.66 8.42 62.45 27.08 79.09 52.64 2.06 5.44 2.26 10.83.07 16.25-2.23 2.53-3.65 3.83-6.82 5.07-7.06.17-12.78-2.39-19-5.44-14.54-7.09-31.81-10.04-47.59-4.82-13.14 5.04-24.33 13.3-35.02 22.3-22.3 18.66-22.3 18.66-33.72 20.3-4.37-.56-7.89-2.77-11.63-4.96-4.88-2.86-9.75-4.98-15.1-6.82-.7-.25-1.4-.49-2.12-.75-16.41-5.55-36.16-4.53-51.89 2.58-5.18 2.68-9.84 5.84-14.37 9.5-1.56 1.11-1.56 1.11-3.56 1.11-3.97-21.34.65-40.5 12.33-58.36 17.37-25.16 43.94-42.39 73.17-50.33.79-.22 1.57-.43 2.38-.65 10.04-2.62 19.96-2.85 30.3-2.85"/>
<path fill="#a99a83" d="M210 604c2.84 1.59 5.44 3.45 8.06 5.38.75.53 1.5 1.07 2.26 1.63 6.86 5 13.35 10.35 19.68 15.99.47.42.47.42 2.87 2.54 11.69 10.51 23.34 21.43 33.05 33.82 1.9 2.41 3.88 4.74 5.9 7.06 17.58 20.3 32.22 43.11 45.18 66.58.48.86.96 1.73 1.45 2.62 26.38 48.12 44.41 103.34 49.23 158.18.32 3.2.32 3.2.81 5.08 1.06 4.42 1.16 9.03 1.51 13.56.08 1 .16 1.99.25 3.02 1.4 17.74 1.91 35.49 2.07 53.28l.06 5.96.18 18.61c.05 4.24.09 8.48.13 12.72.11 10.33.21 20.65.31 30.97h-1c-.18-1.03-.35-2.05-.53-3.11l-.36-2.09c-.27-1.59-.54-3.17-.81-4.75-.77-4.52-1.54-9.04-2.32-13.57-1.61-9.42-3.21-18.85-4.79-28.28-9.15-54.47-9.15-54.47-15.19-76.2-.11-.41-.11-.41-.67-2.47-3.55-12.91-7.61-25.62-11.95-38.28-.23-.67-.46-1.35-.7-2.04-4.24-12.38-9.18-24.34-14.68-36.21-.41-.89-.82-1.78-1.25-2.69-25.62-55.03-62.38-107.97-108.86-147.63-2.05-1.82-3.97-3.73-5.89-5.68-3.11-3.15-6.32-6.08-9.67-8.96-3.55-3.11-7.01-6.34-10.47-9.56-3.2-2.97-6.44-5.87-9.74-8.73-3.38-2.98-6.32-6.15-9.22-9.6-3.08-3.49-6.49-6.65-9.86-9.85-1.98-2.23-2.68-3.39-3.04-6.3 10.25-5.82 20.53-11.59 31-17 1.05-.54 2.09-1.09 3.17-1.64.96-.47 1.91-.94 2.89-1.42.82-.41 1.63-.81 2.48-1.23 3.33-.96 5.11-.71 8.46.29"/>
<path fill="#d5c4aa" d="M529 333c6.21 13.43 10.1 27.7 10.24 42.55.01.81.01 1.62.02 2.46.02 1.71.03 3.42.04 5.13.01 1.73.03 3.47.06 5.2.31 18.24.31 18.24-4.36 26.66-.24.5-.24.5-1.45 3.06-.41.78-.82 1.57-1.24 2.38-7.66 14.78-2.34 32.83 2.42 47.86 1.06 3.21 2.18 6.39 3.35 9.57.96 3.25 1.22 5.76.92 9.13-4.22 5.63-10.14 6.32-16.7 7.44-2.3.56-2.3.56-5.3 2.56.05 1.11.09 2.22.14 3.36.04 1.46.07 2.93.11 4.39.03.73.07 1.46.1 2.21.07 3.56-.02 5.6-2.18 8.49C513 517 513 517 510 518c.03.6.07 1.21.11 1.83.21 6.42.21 6.42-1.11 9.48-2.48 2.09-5.07 3.25-8.06 4.47-2.7 1.7-3.62 3.33-4.94 6.22-.37 3.3-.37 3.3-.44 6.88-.34 5.98-.65 9.51-4.56 14.12-5.59 4.3-11.16 4.5-18 4v-2c-.7-.52-1.4-1.03-2.12-1.56-9.21-7.81-12.5-18.85-13.88-30.44-.21-4.71-.14-9.39-.05-14.1.02-2.71.05-5.41.07-8.11.05-4.2.1-8.4.17-12.6.3-19.67.55-37.79-8.88-55.57-.8-1.56-1.59-3.13-2.38-4.71-.35-.66-.7-1.32-1.05-2-.96-2.08-1.66-3.62-1.88-5.91 1.1-2.54 1.1-2.54 2.83-5.4.63-1.05 1.26-2.1 1.91-3.18.68-1.11 1.37-2.22 2.07-3.36s1.4-2.29 2.1-3.43c4.92-7.97 10.03-15.47 16.09-22.63.46-.56.93-1.11 1.41-1.69 6.11-7.31 12.43-14.41 18.92-21.4 2.01-2.19 3.96-4.4 5.9-6.65 4.25-4.88 8.77-9.48 13.33-14.07l2.5-2.56C515.52 338.14 520.78 333 529 333"/>
<path fill="#968670" d="M625 629l3 1c1.57 11.49 2.41 22.78 2.38 34.38-.01.76-.01 1.52-.01 2.3-.08 18.92-2.93 33.85-12.37 50.32-.38.66-.75 1.32-1.14 2.01-.95 1.66-1.9 3.33-2.86 4.99 1.93-3.12 3.84-6.25 5.75-9.38.54-.87 1.08-1.74 1.63-2.63 7.41-12.19 9.69-23.45 11.4-37.41 2.36-18.91 2.36-18.91 8.84-25.08C644 648 644 648 646 648c.56 9.62-1.12 18.63-3 28-.18.94-.36 1.88-.55 2.85-.59 3.03-1.21 6.06-1.83 9.09l-.55 2.87c-1.8 8.47-4.92 16.2-10.63 22.81-7.49 9.02-14.7 18.27-20.75 28.32-6.25 10.34-13.03 17.3-22.63 24.51-3.74 2.81-7.43 5.68-11.12 8.55-.77.59-1.53 1.18-2.31 1.79-6.71 5.23-13.25 10.59-19.63 16.21-.76.65-1.51 1.3-2.29 1.96-9.17 8.39-13.98 19.66-17.72 31.27-2.54 7.86-6.23 12.25-12.1 18.1-1.48 1.47-2.96 2.95-4.49 4.47-1.6 1.59-3.2 3.18-4.85 4.81-1.65 1.64-3.29 3.28-4.98 4.97-5.27 5.25-10.55 10.49-15.82 15.73-5.26 5.23-10.52 10.47-15.77 15.7-3.28 3.26-6.55 6.52-9.83 9.78-1.49 1.48-2.98 2.97-4.52 4.5-1.31 1.3-2.61 2.6-3.96 3.93-2.59 2.66-5.09 5.4-7.52 8.2C446 920 446 920 444 921c2.09-7.91 5.15-15.15 8.56-22.56 1.18-2.58 2.34-5.16 3.51-7.73.31-.69.62-1.37.94-2.08 4.06-8.96 7.99-17.99 11.93-27.01 5.18-11.85 10.42-23.67 15.8-35.43 5.58-12.21 10.93-24.48 15.26-37.19.33-.97.67-1.93 1.01-2.93 2.97-9.05 4.42-18.15 5.7-27.56 1.9-13.88 5.51-25.46 14.29-36.51.26-.34.26-.34 1.55-2.04 7.53-9.35 18.13-15.83 28.06-22.35 8.35-5.51 15.81-11.86 23.16-18.63 2.01-1.78 4.06-3.41 6.23-4.98l3 1c.77 8.88-2.89 16.3-8.38 23.13-4.06 4.67-8.3 8.7-13.24 12.43-4.91 3.75-8.62 7.32-11.01 13.13-.45 1.09-.91 2.18-1.37 3.31 13.35-2.08 24.24-5.34 36-12 1.33-.68 2.66-1.35 4-2-7.5 12.45-15.9 18.96-28.81 24.97-15.8 7.42-30.6 15.42-37.21 32.71-.75 2.42-1.38 4.85-1.98 7.32-.39 1.24-.78 2.48-1.19 3.75-.81 3.24-.87 5.93-.81 9.25.21-1.02.42-2.03.63-3.08 3.49-16.04 10.5-28.21 24.43-37.48 4.52-2.75 9.2-5.11 13.94-7.44 19.65-9.68 29.94-21.83 40-41 .6-1.07 1.2-2.13 1.82-3.23 1.8-5.74 1.37-11.31 1.18-17.27-.46-14.37-.46-14.37 3-20.5h4c8.27 25.61 5.75 43.14-6 67 1.97-3.85 3.92-7.71 5.88-11.56.55-1.09 1.11-2.17 1.68-3.29.53-1.06 1.07-2.12 1.62-3.22.49-.97.98-1.93 1.49-2.93 3.38-7.63 3.69-14.38 3.86-22.65l.21-7.48c.1-3.91.2-7.82.29-11.73.09-3.78.2-7.57.31-11.35.02-1.17.04-2.33.07-3.53.22-7.44.67-13.93 5.78-19.76.6-.5 1.19-.99 1.81-1.5"/>
<path fill="#ab9a82" d="M362.863 356.125c17.93 9.86 36.81 15.49 57.39 10.81 1.93-.59 3.85-1.24 5.75-1.93.31-.12.31-.12 1.9-.69 9.03-3.3 17.32-7.27 25.36-12.56 1.54-.99 3.13-1.88 4.74-2.75.99.32 1.98.66 3 1h-2c-.21.7-.41 1.4-.62 2.13-1.8 3.72-4.45 6.06-7.51 8.74-.58.52-1.16 1.05-1.76 1.58-1.17 1.05-2.33 2.08-3.5 3.12-1.4 1.24-2.79 2.5-4.18 3.76-5.17 4.67-5.17 4.67-7.43 4.67-.27.57-.54 1.14-.82 1.74-9.02 17.16-31.45 38.7-50.01 44.86-6.28 1.14-14.37 1.88-20.17-1.17-3.49-2.83-6.28-5.88-9-9.43-.33 1.64-.66 3.3-1 5h-1c-.02-.68-.03-1.36-.05-2.06-.41-8.11-1.97-15.08-7.97-20.9-4.43-3.31-8.29-4.92-13.85-4.5-6.42 1.37-10.44 5.12-14.13 10.46-2.93 6.36-3.36 11.48-3.13 18.43l.12 5.37c.02.79.05 1.57.07 2.37-.06 1.83-.06 1.83-1.06 2.83-.17.82-.33 1.64-.5 2.5-.5 2.5-.5 2.5-1.5 3.5-8.62.52-16.05.61-24-3-1.12-.05-2.23-.09-3.38-.13-6.4-1.54-11.17-6.1-14.74-11.59-6.8-11.84-9.18-24.56-6.01-37.97 2.55-7.1 6.08-12.74 11.13-18.31.5-.61.99-1.21 1.51-1.83 23.71-26.58 61.05-19.11 88.35-4.05"/>
<path fill="#ccbba1" d="M406 618c1.66 1.42 3.32 2.83 4.97 4.26 1.24 1.06 2.49 2.12 3.75 3.17 22.67 19.19 22.67 19.19 25.28 30.57.32 1.12.63 2.24.96 3.39 7.46 27.59 9.2 55.1 9.29 83.55.01 1 .01 2.01.02 3.04.05 12.83-.55 25.31-2.27 38.02-.15 1.16-.29 2.32-.44 3.52-4.43 34.75-11.41 69.24-22.56 102.48l-1.71 5.16q-2.13 6.42-4.29 12.84h-1c-.01-.61-.01-1.22-.02-1.85-.58-58.53-.58-58.53-3.98-81.15-.15-1-.3-2.01-.45-3.04-4.75-31.16-4.75-31.16-9.76-45.4-1.73-7.83.36-15.86 1.92-23.6 7.79-38.59 10.35-81.03 3.29-119.96-.14-.81-.29-1.62-.44-2.45-.76-4.2-1.6-8.38-2.56-12.55"/>
<path fill="#beae96" d="M445 656h2v2c.54.24 1.08.48 1.63.73 25.09 13.43 41.42 39.82 52.93 64.83.18.37.18.37 1.05 2.24 2.91 6.54 2.95 11.84 1.08 18.76-1.26 5.08-2.06 10.05-2.67 15.25-1.62 13.68-4.57 26.69-10.93 38.99-2.25 4.54-4.09 9.27-6.03 13.95-4.41 10.53-9.08 20.92-13.93 31.26-.27.58-.27.58-1.65 3.53-.28.59-.55 1.18-.84 1.79-4.23 9.04-8.32 18.13-12.44 27.22-.3.65-.6 1.31-.9 1.99a459 459 0 0 0-1.76 3.89q-2.835 6.225-5.73 12.42c-2.07 4.46-3.95 8.95-5.75 13.53-2.23 5.5-4.75 10.86-7.25 16.24-.28.62-.56 1.23-.86 1.86-4.53 9.78-9.4 19.28-14.95 28.52-1.16-3.47-.79-4.74.07-8.23.26-1.05.51-2.09.77-3.16l.85-3.36c.28-1.14.56-2.28.85-3.45 2.25-9.11 4.62-18.18 7.13-27.22 3.03-10.93 5.96-21.86 8.51-32.91 1.12-4.86 2.36-9.65 3.69-14.46C454.03 810.1 460.56 754.77 454 701c-.05-.44-.05-.44-.32-2.67-1.82-14.32-4.61-28.48-8.68-42.33"/>
<path fill="#a7977f" d="M580 674l3 1c.77 8.88-2.89 16.3-8.38 23.13-4.06 4.67-8.3 8.7-13.24 12.43-4.91 3.75-8.62 7.32-11.01 13.13-.45 1.09-.91 2.18-1.37 3.31 13.35-2.08 24.24-5.34 36-12 1.33-.68 2.66-1.35 4-2-7.5 12.45-15.9 18.96-28.81 24.97-15.8 7.42-30.6 15.42-37.21 32.71-.75 2.42-1.37 4.86-1.98 7.32-.39 1.09-.78 2.19-1.19 3.31-.75 3.43-.81 5.93-.7 9.4.05 8.06-1.27 15.72-2.73 23.6-.07.37-.07.37-.41 2.23-1.78 9.82-3.77 19.58-6.16 29.27-.23.97-.47 1.94-.72 2.94-1.89 7.33-4.56 11.98-10 17.37-.5.5-.5.5-3.03 3.02-1.07 1.06-2.15 2.13-3.26 3.22-1.11 1.11-2.23 2.22-3.37 3.35-3.56 3.54-7.12 7.07-10.68 10.6-3.55 3.52-7.09 7.04-10.64 10.57-2.2 2.19-4.41 4.38-6.62 6.57-4.92 4.89-9.73 9.78-14.18 15.12C446 920 446 920 444 921c2.09-7.91 5.15-15.15 8.56-22.56 1.18-2.58 2.34-5.16 3.51-7.73.31-.69.62-1.37.94-2.08 4.06-8.96 7.99-17.99 11.93-27.01 5.18-11.85 10.42-23.67 15.8-35.43 5.58-12.21 10.93-24.48 15.26-37.19.33-.97.67-1.93 1.01-2.93 2.97-9.05 4.42-18.15 5.7-27.56 1.9-13.88 5.51-25.46 14.29-36.51.26-.34.26-.34 1.55-2.04 7.53-9.35 18.13-15.83 28.06-22.35 8.35-5.51 15.81-11.86 23.16-18.63 2.01-1.78 4.06-3.41 6.23-4.98"/>
<path fill="#e7cc96" d="M592.207 594.285c8.13 5.58 14.61 14.03 16.79 23.71 1.23 12.26-.15 23.27-7.68 33.38-5.59 6.47-13.62 12.67-22.33 13.91-2.13.12-4.23.13-6.36.09-.38-.01-.38-.01-2.27-.03-11.88-.33-19.33-5.02-27.54-13.41-7.06-8.32-9.68-17.77-9.23-28.58 1.46-11.77 7.4-20.33 16.33-27.82 12.56-9.26 29.01-8.98 42.29-1.25"/>
<path fill="#c3b198" d="M362.863 356.125c18.04 9.92 37.03 15.55 57.7 10.69 5.17-1.55 10.12-3.64 15.04-5.83 2.4-.98 2.4-.98 4.4-.98-5.94 16.76-19.25 32.36-34.82 40.74-11.09 5.19-24.22 7.58-36.2 4.02-11.29-4.37-11.29-4.37-12.98-7.76.62.26 1.23.53 1.87.81 13.45 5.11 26.47 6.18 40.06.36 4.11-1.91 8.1-4 12.07-6.17-2.13.7-4.24 1.44-6.35 2.19-16.38 5.54-33.06 6.03-49.15-1.01-3.73-2.03-5.25-4.57-7.5-8.18-9.39-11.32-22.28-17.48-36-22l-2.82-.97c-10.13-3.04-22.84-3.63-33.18-1.03 21.72-28.46 61.24-19.57 87.86-4.88"/>
<path fill="#ab9b82" d="M266 319.625c4.51 5.36 3.03 13.57 2.79 20.21-.08 4.25.17 7.56 1.78 11.52 1.65 4.21 1.65 4.21.43 7.65-1.07 1.7-2.2 3.37-3.38 5l-1.83 2.56c-4.51 6.13-4.51 6.13-6.4 8.14-2.11 3.49-2.22 7.03-2.58 11.04-.08.78-.16 1.55-.25 2.35-.49 4.99-.63 9.89-.56 14.91-6.27 2.19-13.81-.49-19.57-3.23-8.66-5.41-15.28-13.01-18.43-22.77-.55-3.46-.62-6.82-.56-10.32l.03-2.79c.34-11.19 4.36-19.44 11.53-27.89.49-.61.98-1.21 1.49-1.83q1.74-2.1 3.51-4.17c.33.66.66 1.31 1 2-.31.78-.62 1.56-.94 2.37-2.68 9.16-1.46 18.21 2.94 26.63 3.51 5.13 7.11 8.69 13 11-.6-.5-1.21-1-1.83-1.51-7.14-6.07-12.51-12.21-13.39-21.96-.28-8.7.9-16.17 6.6-22.97 6.41-6.7 15.85-10.69 24.62-5.94"/>
<path fill="#8f806b" d="M461 350h-2c-.2.7-.41 1.41-.62 2.13-1.79 3.73-4.45 6.06-7.5 8.75-.59.52-1.17 1.04-1.77 1.58a518 518 0 0 1-3.5 3.11c-1.4 1.24-2.79 2.5-4.18 3.77-5.16 4.66-5.16 4.66-7.43 4.66q-.405.855-.81 1.74c-9.03 17.17-31.46 38.71-50.01 44.87-6.28 1.13-14.38 1.88-20.18-1.17-3.48-2.83-6.27-5.89-9-9.44l-1 5h-1c-.01-.68-.03-1.36-.04-2.05-.42-8.11-1.98-15.09-7.98-20.91-4.43-3.31-8.28-4.92-13.85-4.49-5.48 1.16-9.62 4.16-13 8.65-5.11 8.16-5.86 16.32-6.13 25.8h-1v-6c-.81.05-1.62.09-2.46.14-9.87.32-18.92-1.27-26.92-7.46-3.59-3.71-6.08-8.22-8.62-12.68-.66-1.13-1.32-2.27-2-3.44-1.12-2.86-.87-3.72 0-6.56l1.18 2.78c4.47 10 9.56 15.49 19.07 21.16 5.82 1.65 11.72 1.82 17.75 2.06-.08-1.11-.17-2.23-.25-3.38.04-8.18 3.78-15.09 9.34-20.92 5-4.43 9.92-6.37 16.62-6.02 5.69.79 10.34 2.18 14.54 6.2 9.64 9.05 24.12 9.66 36.62 9.48 9.47-.42 18.44-3.77 27.13-7.36-8.07 9-20.36 12.39-32 13.21-6.86.23-12.57-.86-19-3.21-.5-.17-.5-.17-3-1 1.7.82 3.41 1.63 5.12 2.44.96.45 1.91.9 2.89 1.37 11.88 4.73 25.4 2.48 36.99-1.96 13.47-6.06 23.18-16.76 30.05-29.68 4.64-8.46 16.56-24.97 27.95-21.17"/>
<path fill="#8e7f6a" d="M390 593c9.28 8.23 10.81 25.49 13 37 .17.86.34 1.72.51 2.6 2.79 15.05 2.75 30.15 2.74 45.4v3.11c-.01 2.96-.02 5.93-.05 8.89 0 .89-.01 1.78-.01 2.69-.06 5.19-.45 10.18-1.19 15.31h-1c-.08-.62-.15-1.24-.23-1.87C401 683.55 397.84 662.81 386 643h-2c-3.29 5.35-5.6 9.68-6 16h-1c-.66-22.14 2.4-46.14 13-66"/>
<path fill="#a5957d" d="M260 372c1.16 3.48.8 4.07-.44 7.38-3.83 12.14-1.61 24.83 4 36.06.42.76.83 1.52 1.26 2.31 1.18 2.25 1.18 2.25 2.23 4.89 1 2.48 2.27 4.29 3.95 6.36-1.79 2.43-2.98 2.99-5.94 3.75-12.67 1.25-24.88-2.12-35.06-9.75-2.62-2.38-2.62-2.38-5-5-.51-.5-1.01-1-1.53-1.52-7.52-7.87-7.8-16.85-7.77-27.26.3-3.22.3-3.22 2.3-6.22.39.64.78 1.28 1.18 1.94 5.56 8.6 12.47 14.71 22.44 17.64 4.44.79 8.88.65 13.38.42-.02-.73-.05-1.45-.07-2.2-.31-17.05-.31-17.05 3.07-23.8l-2-1h3Z"/>
<path fill="#a4947b" d="M605 660l3 1c1.77 4.19 2.84 8.61 4 13 .12.43.12.43.7 2.59 1.67 7.1 1.49 14.16 1.3 21.41h-2c-.16-1.15-.16-1.15-1-7-1.51 2.58-2.16 4.71-2.81 7.67-1.1 4.5-3.03 8.17-5.38 12.14-.4.7-.8 1.39-1.22 2.11-.81 1.39-1.63 2.78-2.45 4.16-.99 1.68-1.97 3.36-2.94 5.05-9.79 16.4-24.34 24.3-41.13 31.99-11.27 5.22-20.3 12.11-29.07 20.88-.69-1.7-.69-1.7-1-4 7.02-13.79 19.59-21.42 33-28 19.65-9.68 29.94-21.83 40-41 .3-.53.3-.53 1.82-3.23 1.8-5.74 1.37-11.31 1.18-17.27-.47-14.47-.47-14.47 3-20.5Z"/>
<path fill="#c9a360" d="M239.875 182.125c3.66 3.23 7.7 6.96 8.43 11.98.31 6.09-.58 9.63-4.61 14.27-3.84 3.68-7.36 4.81-12.57 5.19-4.91-.15-7.74-1.76-11.53-4.76-3.92-4.43-4.08-9.41-3.98-15.08.75-5.31 3.69-8.18 7.51-11.66 5.4-2 11.38-2.04 16.75.06"/>
<path fill="#8f8069" d="M517.75 403.063c2.58 2.04 3.17 2.71 4.25 5.94-3.2 5.56-7.54 10.19-11.76 15-3.59 4.8-4.64 9.06-4.24 15l1 3h2v2l-10-3v9c-4.8-3.17-9.58-6.37-14.31-9.63-.8-.55-1.6-1.1-2.43-1.66-6-4.54-6-4.54-6.7-7.67-.96-3.5-3.97-5.48-6.62-7.79l-1.72-1.54c-1.4-1.24-2.81-2.48-4.22-3.71 3.91 0 5.42 1.37 8.69 3.5 5.1 3.24 10.3 6.19 15.68 8.94.66.34 1.31.68 1.98 1.03 4.26 2.13 7.9 3.09 12.65 3.53.2-.76.41-1.52.62-2.3.27-1 .54-1.99.82-3.02.26-.98.53-1.97.81-2.98.53-1.92 1.12-3.82 1.75-5.7.61-4.43 1.19-8.97-1.14-12.95-9.69-9.34-26.39-7.74-38.86-8.05 13.44-8.96 39.1-5.84 51.75 3.06"/>
<path fill="#988872" d="M338.625 392.063c5.57 4.54 9.93 9.46 10.86 16.72.1 1.43.19 2.85.26 4.28.06.72.12 1.44.17 2.18.24 3.87.29 5.44-1.91 8.76-.54 5.52.74 9.01 3 14v4c-6.39-.6-11.4-4.16-15.5-8.88-1.83-3.81-2.18-5.94-1.5-10.12 2.77-4.21 5.11-6.61 10-8v-5c-2.42.08-4.84.19-7.26.31-.68.02-1.36.05-2.06.07-4.13.22-6.77.59-9.68 3.62-1.26 2.18-1.26 2.18-2 4-1.02-9.35 1.62-15.82 6-24-6.52 2.9-6.52 2.9-8.38 6.68-.54 1.1-1.07 2.19-1.62 3.32-.67-1.78-.67-1.78-1-4 1.07-1.85 1.07-1.85 2.68-3.63.52-.59 1.04-1.18 1.58-1.79 4.72-4.31 10.52-4.88 16.36-2.52"/>
<path fill="#c8a25f" d="M415.125 115.125c3.38 2.2 6.09 4.24 7.88 7.88.93 4.91.63 9.43-1.63 13.93-3.09 3.98-5.53 5.66-10.55 6.38-5.42.29-8.64-.63-12.82-4.31-3.56-3.91-3.62-8.2-3.49-13.27.78-4.38 3.05-7.03 6.49-9.73 4.74-2.78 8.95-2.74 14.12-.88"/>
<path fill="#9e8e77" d="M646 648c.56 9.62-1.12 18.63-3 28-.18.94-.36 1.88-.55 2.85-.59 3.03-1.21 6.06-1.83 9.09-.18.94-.36 1.89-.55 2.87-1.88 8.87-5.28 16.57-11.13 23.57-.65.79-1.3 1.58-1.98 2.39-1.91 2.17-3.89 4.21-5.96 6.23l-3-1-1-3c1.32-2.45 2.67-4.74 4.19-7.06 7.73-11.95 9.88-23.45 11.59-37.36 2.36-18.91 2.36-18.91 8.84-25.08C644 648 644 648 646 648"/>
<path fill="#D5C4AA" d="M430 272c1.08.51 2.17 1.03 3.28 1.56 5.72 2.79 11.26 5.73 16.74 8.94 11.5 6.69 23.36 12 36.89 8.82 2.39-.71 4.74-1.47 7.09-2.32v2c-9.29 5.11-19.69 5.47-29.94 3.41-7.23-2.39-13.94-6.4-20.61-10.02-5.06-2.74-10.2-5.29-15.36-7.83-2.83-1.39-5.46-2.81-8.09-4.56-1.87-.58-1.87-.58-3.94-1.04-.75-.16-1.5-.33-2.27-.51-.78-.17-1.55-.34-2.35-.51-8.21-1.83-8.21-1.83-10.44-2.94-4.21-.24-8.42-.23-12.63-.24-2.07-.01-4.14-.04-6.22-.07-23.98-.19-48.49 8.15-67.15 23.31l-2-1c6.05-5.01 12.2-9.05 19.19-12.62.92-.48 1.84-.95 2.79-1.44 29.5-14.93 64.79-17.53 95.02-2.94"/>
<path fill="#cfaa64" d="M579 559v2c-.27.05-.27.05-1.65.29-22.61 4.03-42.1 11.74-55.9 31.21-.82 1.22-1.64 2.45-2.45 3.69-.37.57-.75 1.14-1.13 1.72-2.47 3.96-3.78 7.61-4.87 12.09h-2l-.18 1.83c-.09.8-.17 1.6-.26 2.42-.08.79-.16 1.58-.24 2.39-.32 2.36-.32 2.36-.83 4.22-4.03 17.46 1.07 36.14 9.82 51.2C521 675 521 675 521 677c1.09-.06 2.19-.12 3.31-.19 3.69.19 3.69.19 5.63 1.25 1.65 3.02 1.37 5.58 1.06 8.94-2 2-2 2-5.44 2.31-3.56-.31-3.56-.31-5.5-1.43-1.5-2.67-1.26-4.88-1.06-7.88h2c-.47-.74-.94-1.47-1.43-2.23-.62-.98-1.24-1.95-1.88-2.96-.62-.96-1.23-1.92-1.87-2.92-.6-.95-1.2-1.91-1.82-2.89-.26-.4-.26-.4-1.6-2.39-1.74-3.25-2.65-6.56-3.52-10.11-.17-.65-.34-1.3-.52-1.97-.47-1.84-.91-3.69-1.36-5.53-.2-.78-.39-1.56-.6-2.36-3.08-20.22.76-39.93 12.7-56.57 10.83-13.81 24.23-23.5 40.9-29.07.66-.22 1.32-.45 2-.68 5.62-1.66 11.18-1.51 17-1.32"/>
<path fill="#D5C4AA" d="M339.45 388.129c5.17 3.27 9.11 6.66 11.14 12.6.58 3.19.5 6.28.47 9.52-.01 1.26-.01 2.53-.02 3.83-.02.96-.03 1.93-.04 2.92h-1c-.09-.77-.17-1.55-.26-2.34-1.2-8.92-3.66-15.76-10.74-21.66-5.17-1.72-9.31-1.79-14.19.5-5.7 5.07-8.41 10.46-9.01 18.04-.28 15.82 6.95 27.5 17.32 38.83 4.14 3.78 7.87 6.39 13.57 7.07 3.53-.47 4.98-.75 7.31-3.44.75-3.19.75-3.19 1-6l2 2c-.07 4-.42 6.28-2.94 9.44-4.46 2.28-8.15 2.51-13.06 1.56-13.07-5.91-20.95-18.81-27.27-31.05-3.14-8.41-3.19-20.97-.29-29.45 2.52-5.37 6.77-9.12 11.56-12.5 4.98-1.66 9.58-2.11 14.45.13"/>
<path fill="#d6b16b" d="M592.207 594.285c8.13 5.58 14.61 14.03 16.79 23.71 1.23 12.26-.15 23.27-7.68 33.38-5.59 6.47-13.62 12.67-22.33 13.91-2.13.12-4.23.13-6.36.09-.38-.01-.38-.01-2.27-.03-11.88-.33-19.33-5.02-27.54-13.41-7.06-8.32-9.68-17.77-9.23-28.58 1.46-11.77 7.4-20.33 16.33-27.82 12.56-9.26 29.01-8.98 42.29-1.25m-25.21-2.29c-1.68.11-3.37.22-5.06.32-8.64.89-14.52 7.27-19.94 13.68-1.2 2.64-1.2 2.64-2 5-.33.81-.66 1.61-1 2.44-.16.43-.16.43-1 2.56-.37.89-.74 1.78-1.12 2.69-2 7.58-.9 14.85 1.12 22.31l4 1c-.24.73-.49 1.45-.75 2.19-.25 2.81-.25 2.81 1.19 5.19 8.11 8.3 14.97 13.64 26.93 14.04 6.74.06 12.54-.31 18.63-3.42.83-.39 1.65-.78 2.5-1.18.25-.14.25-.14 1.5-.82v-2c.75-.22 1.49-.45 2.25-.68 3.4-1.62 4.72-3.16 6.75-6.32.7-2.32 1.37-4.65 2-7l2-1c3.1-8.42 3.7-18.92.83-27.49a74 74 0 0 0-4.83-8.51c-.38-.61-.76-1.22-1.16-1.85-4.71-6.56-12.3-10.14-20.02-11.58-4.52-.58-8.33-.48-12.82.43"/>
<path fill="#cba564" d="M645 261c3.07 1.7 5.41 3.81 7 7 .75 5.19.81 9.74-2.31 14.12-2.88 2.91-5.21 3.4-9.25 3.57-3.61-.24-5.32-.62-8.5-2.44-3.39-3.94-4.5-6.78-4.4-12.15.85-3.89 3.56-6.51 6.46-9.1 3.48-1.74 7.2-1.59 11-1"/>
<path fill="#c9a360" d="M675.313 414.813c2.78 2.27 4.47 3.84 5.06 7.46.12 4.49.19 7.72-2.75 11.29-3.97 3.69-6.75 3.97-12.07 3.9-3.76-.68-5.37-2.27-7.55-5.33-1.77-3.77-1.87-7.1-1-11.13 1.62-3.19 2.97-5.22 5.81-7.38 4.79-1.37 8.12-1.21 12.5 1.19"/>
<path fill="#ceaa65" d="M392 130v3c-.76.06-1.52.13-2.3.2-52.3 4.59-99.14 21.85-141.7 52.8l-2-2c25.26-22.08 58.8-37.39 91-46 .78-.21 1.56-.42 2.37-.64 17.15-4.5 34.81-8.25 52.63-7.36"/>
<path fill="#caa462" d="M139 415c3.41 2.15 5.74 4.12 7 8 .51 3.9.17 5.68-1.69 9.19-3.31 4.03-5.56 5.56-10.75 6.31-5.28-.74-7.68-3.12-11-7.31-.9-3.51-.51-6.75.44-10.19 4.17-6.61 8.44-8.09 16-6"/>
<path fill="#caa460" d="M166 275c3.47 2.07 5.78 4.11 7 8 .48 4.32.29 6.47-1.81 10.31-2.28 2.8-3.86 4.48-7.49 5.06-6.97.18-6.97.18-10.76-2.68-2.73-3.79-3.33-6.96-3.3-11.62.64-3.69 2.72-5.49 5.36-8.07 3.46-1.73 7.21-1.48 11-1"/>
<path fill="#a99981" d="M507 287c10.42 3.87 19 10.19 24.65 19.82 2.38 5.61 2.18 11.2 1.35 17.18-2.6 5.93-7.54 9.77-13 13h-4c0-2 0-2 2-4 .33-.17.33-.17 2-1 .72-1.98 1.38-3.98 2-6l1-2c.07-2.21.08-4.42.06-6.62-.01-1.19-.02-2.38-.02-3.61-.02-.91-.03-1.83-.04-2.77h-3l-1 4c-.07-.82-.15-1.64-.23-2.49-1.23-10.48-4.89-17.57-11.77-25.51"/>
<path fill="#D5C4AA" d="M589 715c.16.5.16.5 1 3-10.25 13.12-20.4 20.5-35.29 27.56-14.75 7.02-25.68 17.08-31.71 32.44-1.62 5.26-2.84 10.62-4 16h-1c-.93-13.47 3.99-27.21 12.56-37.56 7.32-8.34 16.23-13.1 26.21-17.61 9.48-4.3 17.02-8.13 24.23-15.83l2.94-2.88L586 718Z"/>
<path fill="#857661" d="M463 417c2.99 1.46 5.87 3.05 8.74 4.71.9.53 1.8 1.05 2.73 1.58 1.89 1.09 3.77 2.19 5.65 3.28 7.21 4.16 13.45 7.57 21.88 8.43l2-8h2c-.01.83-.02 1.66-.04 2.52 0 1.09-.01 2.17-.02 3.29-.01 1.08-.03 2.16-.04 3.27.1 2.92.1 2.92 1.1 5.92h2v2l-10-3v9c-4.8-3.17-9.58-6.37-14.31-9.62l-2.43-1.67c-6-4.54-6-4.54-6.7-7.66-.95-3.49-3.97-5.45-6.62-7.74q-3-2.625-5.94-5.31Z"/>
<path fill="#d0a967" d="M644 287h3c15.03 40.95 22.9 80.18 22 124h-3l-.03-2.74c-.5-38.6-3.16-81.53-21.16-116.57C644 290 644 290 644 287"/>
<path fill="#d2aa63" d="M544 169c3.4 1.25 6.19 2.66 9.12 4.8.76.56 1.53 1.12 2.31 1.69.81.6 1.61 1.2 2.45 1.82.84.63 1.68 1.25 2.55 1.9C577.71 192.2 593.71 206.9 607 224c.87 1.07 1.73 2.13 2.6 3.19 6.75 8.32 12.65 17.05 18.34 26.13.99 1.58 2.03 3.13 3.06 4.68v4h-2c-.53-.92-1.07-1.84-1.62-2.79-10.54-18-22.98-34.09-37.38-49.21-.57-.6-1.14-1.2-1.73-1.81-8.52-8.89-17.34-16.91-27.27-24.19-.31-.23-.31-.23-1.91-1.4-11.8-8.67-11.8-8.67-16.09-10.6Z"/>
<path fill="#8b7c66" d="M348 410h1c.22 1.77.43 3.54.62 5.31.12.99.24 1.97.36 2.99.02 2.7.02 2.7-1.98 5.7-.53 5.52.74 9.01 3 14v4c-6.38-.6-11.4-4.15-15.5-8.88-1.83-3.8-2.17-5.94-1.5-10.12 3.03-4.64 6.84-7.59 11.33-10.8C347 411 347 411 348 410"/>
<path fill="#cba664" d="M492 220c3.49 1.67 4.83 2.74 7 6 .34 3.02.57 5.09 0 8-3.14 3.88-5.33 5.74-10.25 6.5-3.99-.53-4.59-.83-7.19-3.62-1.85-2.47-2.56-3.88-3.25-6.94.97-4.12 2.74-5.92 5.69-8.94 2.82-1.41 4.87-1.25 8-1"/>
<path fill="#D5C4AA" d="M435 366c.16.33.16.33 1 2-9.88 17.17-22.12 31.24-41.81 36.81-13.46 3.05-25.45 1.33-37.19-5.81l-1-2c.62.27 1.24.54 1.88.81 14.41 5.48 27.14 5.59 41.63-.22 15.16-7.07 25.76-18.19 35.49-31.59"/>
<path fill="#cba665" d="M655 625c3.49 1.67 4.83 2.74 7 6 .46 4.96.15 8.06-3 12-3.21 2.32-6.12 2.48-10 2-2.7-1.8-4.54-3.08-6-6-.58-7.09-.58-7.09 1.88-10.94 3.36-3.26 5.48-3.42 10.12-3.06"/>
<path fill="#cea968" d="M154 300h3c-.43 1.52-.87 3.04-1.31 4.56-.25.85-.49 1.7-.74 2.57-.9 2.72-2 5.3-3.15 7.93-1.5 3.63-2.63 7.38-3.8 11.13-.26.84-.53 1.68-.8 2.54-1.97 6.38-3.72 12.76-5.2 19.27-.24.99-.49 1.98-.74 3-4.61 19.7-5.79 39.83-6.26 60h-2c-.34-17.25-.34-34 3-51 .18-.94.36-1.88.55-2.85 3.95-19.93 9.61-38.41 17.45-57.15"/>
<path fill="#cfa964" d="M426 130c12.95.37 25.34 2.37 38 5 .82.16 1.64.33 2.48.5 20.67 4.24 41.05 12.33 59.52 22.5v2c-3.46-.59-6.36-1.48-9.54-2.97-28.91-13.25-58.71-21.68-90.46-24.03Z"/>
<path fill="#c9a35f" d="M595 552c3.06 2.06 3.06 2.06 5 5 .62 3.5.62 3.5 0 7-2.56 3.57-4.29 4.78-8.5 6.06-4.25-.07-5.58-1.06-8.5-4.06-1.61-3.21-1.47-6.52-1-10 2.89-5.03 7.74-5.07 13-4"/>
<path fill="#cea460" d="M166 300h2c.13.37.13.37.77 2.23 2.71 7.79 5.42 15.58 8.14 23.37 1 2.89 2.01 5.78 3.01 8.67 5.84 16.82 11.79 33.58 18.13 50.22 1.55 4.08 3.06 8.17 4.57 12.26l.79 2.07c1.22 3.39 2.02 5.76.59 9.18-1.8-2.71-2.77-4.83-3.84-7.86-.36-.99-.71-1.98-1.08-3-.38-1.07-.76-2.15-1.15-3.25-.4-1.12-.8-2.24-1.21-3.4q-1.935-5.4-3.84-10.8c-1.26-3.52-2.51-7.04-3.77-10.57-.83-2.32-1.66-4.65-2.49-6.98-2.63-7.39-5.3-14.77-8-22.14-2.61-7.17-5.15-14.36-7.5-21.62-.55-1.73-1.11-3.45-1.67-5.17-.24-.72-.47-1.44-.71-2.18-.74-2.03-.74-2.03-1.82-4.12-1.16-2.4-1.07-4.28-.92-6.91"/>
<path fill="#caa563" d="M595 354c2.5 1.44 2.5 1.44 4 4 .6 3.13.65 5.87 0 9-2.66 3.31-4.34 3.88-8.5 4.62-3.5-.62-3.5-.62-6.44-3.24-2.25-3.69-2.95-5.18-2.06-9.38 3.78-5.43 6.8-5.89 13-5"/>
<path fill="#a4947c" d="M410 390l2 1c-12.71 9.02-25.2 13.41-41 12-3.45-.74-6.7-1.77-10-3l-2.88-1c-2.3-1.08-4.15-2.4-6.12-4l1-3c.63.19 1.26.39 1.91.59.85.26 1.71.52 2.59.79.84.25 1.67.51 2.53.77 16.3 4.67 31.11 3.96 46.97-2.15Z"/>
<path fill="#cea85f" d="M394 139h2c-.57 3.34-1.52 4.85-4.03 7.1-.62.57-1.24 1.14-1.88 1.72-.67.6-1.34 1.19-2.03 1.8-1.37 1.26-2.75 2.51-4.12 3.77-.68.61-1.35 1.22-2.05 1.86-3.26 3.01-6.35 6.18-9.45 9.37-1.98 1.94-4 3.74-6.1 5.54-5.03 4.36-9.67 9.1-14.34 13.84-5.28 5.36-10.58 10.61-16.29 15.51-2.86 2.49-5.43 5.24-8.05 7.99C326 209 326 209 324 209c1.51-3.54 3.57-5.82 6.29-8.52l2.6-2.6c.46-.44.46-.44 2.73-2.69.88-.88 1.76-1.76 2.67-2.66 3.83-3.81 7.67-7.55 11.76-11.07 4.74-4.07 9.07-8.51 13.45-12.96 5.08-5.16 10.18-10.18 15.68-14.9 3.22-2.83 6.16-5.93 9.12-9.03 1.2-1.23 2.45-2.4 3.7-3.57h2Z"/>
<path fill="#cea664" d="M234 216h2c.15.65.29 1.3.45 1.96 1.23 5.4 2.48 10.79 3.8 16.17 3.53 14.42 6.75 28.89 9.86 43.4.16.74.32 1.49.48 2.26.32 1.48.64 2.97.95 4.45.84 3.93 1.7 7.84 2.59 11.75.19.82.37 1.64.56 2.48l1.08 4.7c.78 3.4 1.23 6.32 1.23 9.83h-2c-4.62-19.63-9.13-39.28-13.51-58.96-.95-4.25-1.9-8.51-2.86-12.76-.6-2.72-1.21-5.44-1.81-8.16-.29-1.27-.57-2.53-.87-3.83-.25-1.17-.51-2.33-.78-3.53-.22-1.02-.45-2.04-.69-3.09C234 220 234 220 234 216"/>
<path fill="#cfa864" d="M591 374h2c.82 47.49.82 47.49-4 68-.54 2.4-1.07 4.81-1.6 7.21-1.41 6.28-2.88 12.54-4.4 18.79h-3c.24-1.06.48-2.11.73-3.2 6.94-30.5 9.65-59.59 10.27-90.8"/>
<path fill="#cea962" d="M216 209l3 1-1 3h-2c-.26.59-.51 1.17-.78 1.78-1.33 2.42-2.76 3.9-4.78 5.78C194.9 235.8 180.73 255.53 171 275h-3c1.55-4.26 3.67-8.07 6-11.94.39-.65.79-1.3 1.19-1.98 6.48-10.59 13.88-20.53 21.81-30.08.43-.52.86-1.04 1.3-1.58 4.93-5.94 9.84-11.84 15.46-17.15C215 211 215 211 216 209"/>
<path fill="#cea860" d="M317 146v2c-.78.34-1.57.68-2.38 1.03C290.9 159.41 269.07 170.87 248 186l-2-2c17.25-15.07 38.52-26.4 59.56-35.19.7-.29 1.4-.58 2.11-.88 3.38-1.36 5.63-1.93 9.33-1.93"/>
<path fill="#cca561" d="M168 512.438c3.84.72 5.46 1.57 8 4.56.94 4 .61 6.98-1.5 10.5-3.52 2.11-6.5 2.44-10.5 1.5-2.99-2.54-3.84-4.15-4.56-8 .94-5.02 3.54-7.62 8.56-8.56"/>
<path fill="#cea35c" d="M417 143c3.03 1.33 4.83 2.66 6.88 5.24.53.65 1.05 1.3 1.59 1.96.54.7 1.09 1.4 1.65 2.11.58.72 1.15 1.44 1.74 2.18 5.13 6.44 10.15 12.96 15.14 19.51 1.64 2.15 3.29 4.29 4.94 6.44l1.24 1.62c4.43 5.74 8.91 11.44 13.4 17.13 1.47 1.88 2.95 3.75 4.42 5.63.25.31.25.31 1.49 1.9.94 1.19 1.87 2.38 2.81 3.57 1.98 2.52 3.96 5.03 6.02 7.49C480 220 480 220 480 222c-4.27-1.54-6.43-4.75-9.06-8.25-.98-1.27-1.96-2.55-2.94-3.82-.5-.66-1-1.31-1.51-1.98-2.32-3.03-4.69-6.02-7.05-9.01-3.93-4.99-7.82-10.02-11.68-15.06-2.98-3.87-5.99-7.73-9.01-11.57-1.39-1.77-2.78-3.54-4.18-5.31-1.13-1.44-2.26-2.87-3.39-4.31-1.92-2.43-3.83-4.87-5.74-7.31-.61-.78-1.22-1.55-1.85-2.34-.56-.73-1.13-1.45-1.72-2.2-.5-.65-1.01-1.29-1.53-1.96-1.34-1.89-2.36-3.78-3.34-5.88"/>
<path fill="#cca664" d="M535 155.375c4.07.85 5.54 2.3 8 5.62.62 3 .62 3 0 6-2.63 3.67-4.09 4.85-8.56 5.63-3.44-.63-3.44-.63-5.88-2.75-1.85-3.41-2.28-5.06-1.56-8.88 2.46-3.32 3.93-4.77 8-5.62"/>
<path fill="#cfa660" d="M602 561c16.16 2.69 28.97 12.23 38.93 24.98 7.45 10.88 12.72 22.69 12.07 36.02h-2c-.21-1.14-.42-2.27-.63-3.45-3.77-19.39-11.91-34.23-28.05-46.09-6.3-3.96-13.11-6.7-20.32-8.46Z"/>
<path fill="#fcf4e6" d="M572.563 614c3.36 1.38 4.02 2.67 5.44 6 .76 2.71 1.21 5.18 1 8-1.94 3-1.94 3-4 5-4.14-.47-7.1-.88-10-4-1.42-4.56-1.01-7.7 1-12 2.25-2.41 3.25-3 6.56-3"/>
<path fill="#978770" d="M461 350h-2c-.2.7-.41 1.41-.62 2.13-1.79 3.73-4.45 6.06-7.5 8.75-.59.52-1.17 1.04-1.77 1.58a518 518 0 0 1-3.5 3.11c-1.4 1.24-2.79 2.5-4.18 3.77-5.16 4.66-5.16 4.66-7.43 4.66-.25.55-.5 1.11-.76 1.68-1.46 2.73-3.2 5.02-5.12 7.44-.67.87-1.35 1.74-2.05 2.64-1.97 2.13-3.41 3.18-6.07 4.24.35-.46.7-.92 1.07-1.4 2.82-3.72 5.59-7.48 8.31-11.29.59-.84 1.19-1.68 1.81-2.54 1.81-2.77 1.81-2.77 3.43-5.95 4.14-7.85 16.22-22.21 26.38-18.82"/>
<path fill="#9a8a73" d="M506 481h1l2 6c.65-.01.65-.01 3.91-.07 1.72-.02 3.44-.04 5.15-.05l2.57-.06c5.2-.04 9.44.48 14.37 2.18v2c-3.31 1.54-6.43 2.28-10 2.88-4.28.79-6.86 1.98-10 5.12a615 615 0 0 1-3.88-3.31c-.71-.62-1.43-1.23-2.17-1.87-3-2.81-3.92-4.29-4.14-8.44C505 482 505 482 506 481"/>
<path fill="#d5b069" d="M608 622h1c.79 12.42-1.54 22.26-9.79 31.81-6.62 6.56-14.93 11.52-24.41 11.61-.36-.01-.36-.01-2.18-.04-.74-.02-1.49-.03-2.27-.04-10.61-.29-18.06-3.76-25.4-11.51-1.69-1.91-3.34-3.85-4.95-5.83l1-2c.6.78 1.2 1.57 1.81 2.38C545 651 545 651 548 653c.68.78 1.36 1.57 2.06 2.38 7.65 6.82 16.17 7.3 25.99 6.96 4.64-.4 7.8-1.3 11.95-3.34 1.33-.36 2.66-.7 4-1v-2c.93-.52 1.86-1.03 2.81-1.56 3.68-2.43 4.72-5.32 6.19-9.44.65-1.34 1.31-2.68 2-4h2c.13-1.2.27-2.41.4-3.65l.54-4.73c.08-.79.17-1.58.26-2.4.69-5.99.69-5.99 1.8-8.22"/>
<path fill="#887964" d="M407 539c2.02.6 4.02 1.27 6 2 .17.33.17.33 1 2-.53.27-.53.27-3.22 1.61-18.4 10.57-27.86 49.59-33.1 68.09-2.66 9.97-4.27 20.09-5.68 30.3-2.47-3.71-2.49-6.71-2-11 .64-2.34 1.31-4.67 2-7 .34-1.35.68-2.71 1.01-4.07 6.31-25.65 15.79-57.01 33.99-76.93h2v-2l-3-2Z"/>
<path fill="#cfa560" d="M136 440h3c.17.9.35 1.8.52 2.73 4.73 22.94 13.92 44.43 24.54 65.19.94 2.08.94 2.08.94 4.08-3.65-1.22-3.78-1.92-5.45-5.24-.45-.89-.91-1.79-1.37-2.71-.47-.96-.94-1.93-1.43-2.93-.24-.49-.24-.49-1.48-2.98-4.43-9.16-8.04-18.51-11.27-28.14-.25-.74-.5-1.47-.76-2.23-1.74-5.17-3.37-10.36-4.93-15.58-.22-.74-.45-1.48-.68-2.23-1.04-3.5-1.63-6.28-1.63-9.96"/>
<path fill="#cca664" d="M565 275c2.44 1.56 2.44 1.56 4 4 .56 3.91.58 6.05-1.5 9.44-3.78 2.36-6.08 2.12-10.5 1.56-2.92-2.28-2.98-3.83-3.44-7.5.44-3.5.44-3.5 2-5.94 3.38-2.16 5.5-2.12 9.44-1.56"/>
<path fill="#9f8f77" d="M502 405l2.57.43c3.43.57 6.87 1.11 10.31 1.63 1.15.18 2.3.36 3.49.54.87.13 1.73.26 2.63.4-.48 4.59-2.13 6.62-5.31 9.88-3.63 3.86-6.33 7.39-8.69 12.12-2.56-3.83-1.79-4.56-1-9 .79-9.75.79-9.75-2-14.19-.66-.6-1.32-1.19-2-1.81"/>
<path fill="#cba663" d="M322 209c2.44 1.06 2.44 1.06 4 3 .57 3.92.59 6.07-1.56 9.44-3.41 2.18-5.47 2.2-9.44 1.56-2.5-2.12-2.5-2.12-4-5 .06-3.18.49-5.15 2.12-7.88 3.01-1.8 5.46-1.48 8.88-1.12"/>
<path fill="#d0a65f" d="M600 368c4.2 1.76 7.45 4.65 10.94 7.5 1.35 1.09 2.7 2.19 4.05 3.28.68.54 1.35 1.09 2.05 1.65 2.81 2.25 5.66 4.45 8.52 6.63 5.1 3.9 10.15 7.84 15.18 11.82 2.99 2.35 5.99 4.68 9.03 6.97.61.45 1.21.91 1.84 1.38 1.15.87 2.31 1.74 3.48 2.6 1.34 1.01 2.63 2.08 3.91 3.17v2c-3.21-.6-5.08-1.61-7.57-3.7-.67-.55-1.34-1.1-2.03-1.67-.69-.58-1.38-1.16-2.09-1.75-1.35-1.13-2.71-2.26-4.07-3.39-.69-.57-1.38-1.15-2.1-1.74-3.65-2.99-7.4-5.86-11.14-8.75-1.47-1.14-2.93-2.29-4.39-3.43-.73-.56-1.45-1.13-2.19-1.71-1.53-1.19-3.05-2.38-4.58-3.57-3.52-2.74-7.05-5.47-10.67-8.09-.56-.41-1.13-.82-1.71-1.24-1.48-1.07-2.97-2.13-4.47-3.19-.66-.58-1.31-1.17-1.99-1.77Z"/>
<path fill="#cfa965" d="M662 439h3c-1.25 7.78-3.59 14.85-6.44 22.19-.39 1.04-.79 2.08-1.19 3.15-3.35 8.77-7.04 17.21-11.37 25.54-.44.86-.88 1.73-1.33 2.62-.43.82-.85 1.64-1.29 2.49-.39.75-.77 1.49-1.17 2.26C641 499 641 499 638 500c1.33-3.43 2.8-6.73 4.43-10.03 5.13-10.51 10.01-20.81 13.57-31.97.54-1.58 1.08-3.17 1.62-4.75 1.56-4.72 2.98-9.48 4.38-14.25"/>
<path fill="#cea662" d="M631 286h2c-1.26 4.07-2.77 7.72-4.8 11.46-.56 1.04-1.12 2.08-1.69 3.15-.6 1.09-1.2 2.19-1.82 3.33s-1.24 2.28-1.88 3.46c-5.64 10.39-11.46 20.69-17.33 30.96-2.13 3.8-4.16 7.65-6.18 11.51C598 352 598 352 596 353c.61-4.1 1.96-7.17 3.92-10.8.61-1.13 1.22-2.26 1.84-3.43.66-1.21 1.33-2.43 1.99-3.65.68-1.25 1.36-2.5 2.03-3.76 5.32-9.81 10.78-19.55 16.32-29.24 3.04-5.33 5.98-10.72 8.9-16.12"/>
<path fill="#d3ad69" d="M250 200c4.08.44 7.98.93 11.94 2 2.79.74 5.44 1.18 8.31 1.44 3.45.34 6.65.99 10 1.87 6.84 1.81 13.76 3.07 20.72 4.33.88.16 1.76.33 2.66.49.4.07.4.07 2.41.44C308 211 308 211 310 212v2c-4.89.14-9.18-.3-13.95-1.39-.32-.07-.32-.07-1.95-.44l-4.11-.93c-3.57-.82-7.14-1.62-10.72-2.42-.7-.15-1.41-.31-2.14-.47-9-2.01-18.06-3.71-27.13-5.35Z"/>
<path fill="#95866f" d="M512.313 508.875l3.69.12 1 4c-2.37 2.53-3.67 3.89-7 5-2.65-.01-5.24-.09-7.88-.24-.35-.02-.35-.02-2.14-.09-4.44-.25-7.38-1.04-10.98-3.67v-1c.95-.12 1.9-.24 2.88-.36 1.26-.17 2.51-.34 3.81-.51 1.24-.16 2.48-.32 3.76-.49 4.54-.81 8.2-2.92 12.86-2.76"/>
<path fill="#d2ad68" d="M175 290c7.49 2.44 14.87 5.13 22.25 7.88l3.45 1.27c7.79 2.89 15.55 5.85 23.3 8.85 1.31.5 2.62 1.01 3.94 1.51l3.06 1.18c1.03.39 2.06.79 3.12 1.2 2.64 1.02 5.26 2.06 7.88 3.11v2c-4.31-.59-8.03-1.64-12.06-3.25-.57-.22-.57-.22-3.44-1.36-1.16-.46-2.31-.92-3.5-1.39-2.17-.84-4.33-1.67-6.5-2.5-1.08-.42-2.16-.83-3.28-1.26-2.07-.8-4.15-1.59-6.22-2.38-6.92-2.65-13.81-5.36-20.69-8.11-.88-.35-1.77-.71-2.68-1.07-.83-.33-1.66-.67-2.52-1.01-.37-.15-.37-.15-2.25-.9-1.31-.54-2.6-1.14-3.86-1.77Z"/>
<path fill="#d4af6d" d="M417 222c12.12.36 24.13 1.1 36.19 2.44 1.11.12 2.21.24 3.36.37 6.87.79 13.66 1.86 20.45 3.19v2c-6.68.12-13.13-.31-19.77-1.06-.49-.05-.49-.05-3.02-.33l-6.27-.69c-3.19-.36-6.39-.71-9.59-1.05-2.04-.23-4.08-.45-6.12-.68-.95-.1-1.9-.21-2.88-.31-.89-.1-1.78-.2-2.7-.31-.78-.08-1.56-.17-2.36-.26-2.46-.33-4.87-.8-7.29-1.31Z"/>
<path fill="#d2a961" d="M500 236l9 3v2c.36.13.36.13 2.16.82 14.01 5.83 25.85 16.18 36.85 26.4C550 270 550 270 553 272v2h2v3c-2 0-2 0-4.32-2.21-.88-.92-1.77-1.84-2.68-2.79-14.41-13.93-30.68-24.12-48-34Z"/>
<path fill="#cea560" d="M596 214c12.82 5.42 22.8 25 30.19 36.19.48.72.96 1.43 1.46 2.18.44.67.88 1.35 1.33 2.05.39.59.78 1.19 1.18 1.8.84 1.78.84 1.78.84 5.78h-2c-.53-.92-1.07-1.84-1.62-2.79-8.2-14-17.45-26.84-28.05-39.15-3.33-3.88-3.33-3.88-3.33-6.06"/>
<path fill="#d3ad6d" d="M580 484h2c2.17 14.94 4.19 29.86 5.75 44.88.13 1.21.25 2.42.39 3.66.55 5.51 1.02 10.92.86 16.46h-2c-2.05-14.94-4.05-29.89-5.75-44.88-.06-.55-.06-.55-.39-3.34-.62-5.63-1-11.11-.86-16.78"/>
<path fill="#cea45e" d="M138 349h2c.28 7.3-.83 14.23-1.94 21.44-1.98 13.52-2.85 26.9-3.06 40.56h-2c-.34-17.28-.16-33.94 3-51 .11-.61.11-.61.64-3.73.43-2.43.88-4.85 1.36-7.27"/>
<path fill="#cba562" d="M638 501c2.38 2.08 2.9 3.41 3.44 6.5-.6 3.4-1.64 4.51-4.44 6.5-3.17.45-5.06.53-7.88-1.06-1.76-3.05-1.49-5.5-1.12-8.94 2.22-4.05 5.8-3.52 10-3"/>
<path fill="#cfa45d" d="M566 291h2c22.2 42.33 22.2 42.33 21 61h-2c-.2-.88-.39-1.75-.59-2.66-4.16-17.65-9.69-34.85-17.84-51.07-1.21-2.51-2.08-4.56-2.57-7.27"/>
<path fill="#D5C4AA" d="M382.125 264.375c1.35.06 2.7.12 4.05.17 3.28.14 6.55.29 9.83.45v1c-.72.02-1.43.03-2.17.05-26.22.6-26.22.6-37.83 3.95-1.04.27-2.07.54-3.13.81-13.88 3.84-26.7 10.12-37.87 19.19-.67-.32-1.32-.66-2-1 6.05-5.01 12.19-9.04 19.18-12.62.92-.47 1.84-.95 2.78-1.44 7.15-3.62 14.28-6.82 22.04-8.94.68-.18 1.37-.37 2.08-.57 7.7-1.85 15.18-1.44 23.04-1.05"/>
<path fill="#D5C4AA" d="M235 329l3 1c-.14.59-.29 1.19-.44 1.8-2.33 10.43-2.92 19.62 2.44 29.2 4.4 6.65 9.72 9.95 17 13-2.61 1-3.69 1.12-6.33.07-8.9-5.4-14.78-11.07-18.01-21.14-1.89-8.43-1.01-16.03 2.34-23.93"/>
<path fill="#cba564" d="M409.625 216.063c3.38.94 3.38.94 5.38 3.94.32 3.09.48 5.14-1.07 7.87-3.08 1.79-5.46 1.56-8.93 1.13-2.39-2.08-2.9-3.41-3.44-6.5.44-2.5.44-2.5 2-4.88 2.44-1.62 2.44-1.62 6.06-1.56"/>
<path fill="#988871" d="M311 423c2.06 3.1 3.54 6.2 5.12 9.56 3.19 6.54 7.07 11.97 11.88 17.44 1.17 1.37 2.33 2.75 3.5 4.12.82.95 1.65 1.9 2.5 2.88-8.33-3.76-14.54-10.61-18-19v-2l-6 1v-2c-1.48 0-2.96.04-4.43.11-7.29.19-16.6.42-22.38-4.72-.39-.46-.78-.92-1.19-1.39 2.81.51 5.43 1.14 8.16 2.03 4.25 1.07 7.93 1.2 12.28 1.09.73 0 1.46-.01 2.21-.02 1.79-.03 3.57-.06 5.35-.1.7-3.15 1-5.73 1-9"/>
<path fill="#cfa85f" d="M220 469c-1.54 3.64-3.72 5.98-6.5 8.77l-2.69 2.69c-.46.46-.46.46-2.81 2.79-.93.94-1.86 1.87-2.81 2.84-.89.88-1.78 1.76-2.69 2.68-.81.81-1.63 1.62-2.47 2.46C198 493 198 493 196 493c-.26.59-.51 1.19-.78 1.8-1.34 2.41-2.66 3.65-4.78 5.39-4.12 3.46-7.84 7.21-11.56 11.09C177 513 177 513 175 513c1.45-3.34 3.28-5.52 5.85-8.08l2.33-2.33c.41-.39.41-.39 2.44-2.4.79-.78 1.57-1.57 2.38-2.37 4.22-4.2 8.54-8.2 13.05-12.08 4.15-3.7 7.97-7.76 11.83-11.75.64-.64 1.27-1.29 1.92-1.95.57-.59 1.14-1.17 1.72-1.77C218 469 218 469 220 469"/>
<path fill="#d0a55b" d="M176 528c3.78 1.6 6.54 4.12 9.56 6.81 12.31 10.67 26.13 19.46 40.44 27.19v2c-3.6-.56-6.15-1.46-9.22-3.41-.39-.24-.39-.24-2.37-1.49l-2.47-1.6c-.43-.27-.43-.27-2.57-1.65-9.31-6.02-18.02-12.65-26.56-19.73-.56-.46-1.13-.92-1.71-1.4-2.61-2.2-4-3.42-5.1-6.72"/>
<path fill="#cca661" d="M578.438 469.688c3.56.31 3.56.31 5.5 1.44 1.59 2.81 1.52 4.7 1.06 7.87-1.62 2.44-1.62 2.44-4 4-3.7-.15-5.36-.36-8-3-.26-1.87-.26-1.87-.25-4 0-.7-.01-1.4-.01-2.12.52-3.71 2.22-3.87 5.7-4.19"/>
<path fill="#d1ae6c" d="M625 272v2c-.88.14-1.75.28-2.66.43-3.31.53-6.62 1.06-9.93 1.6-1.42.23-2.84.45-4.26.68-1.38.23-2.76.45-4.14.67l-4.11.66c-5.1.82-10.2 1.7-15.28 2.6-4.21.58-8.39.53-12.62.36 2.46-2.46 3.89-2.57 7.29-3.22.54-.1.54-.1 3.27-.63 1.16-.22 2.31-.43 3.5-.65.59-.11.59-.11 3.56-.67 11.76-2.16 23.39-3.98 35.38-3.83"/>
<path fill="#cfa760" d="M527 173h2c-.62 3.92-2.53 6.48-4.81 9.69-.4.56-.79 1.11-1.2 1.69-.86 1.22-1.73 2.44-2.59 3.66-1.97 2.76-3.92 5.52-5.87 8.29-1.02 1.44-2.04 2.89-3.06 4.33-4.54 6.42-9.01 12.87-13.47 19.34h-2c1.54-4.52 4.02-8.19 6.75-12.06q.705-1.02 1.44-2.07c1.6-2.29 3.2-4.58 4.81-6.87 1.23-1.76 2.47-3.52 3.7-5.29 1.84-2.63 3.68-5.26 5.53-7.88 2.98-4.24 5.92-8.5 8.77-12.83"/>
<path fill="#93846e" d="M259 540c5.99-.5 9.92.8 15 4l2 2c-.02 2.16-.02 2.16-.38 4.62-.05.41-.05.41-.33 2.48-.05.31-.05.31-.29 1.9h-2v-2c-.59-.26-1.17-.52-1.78-.78-2.39-1.32-3.91-2.74-5.78-4.72-2.12-2.22-3.86-3.78-6.44-5.5Z"/>
<path fill="#cfa964" d="M202 415l-1 2c-2.89.67-5.72 1.21-8.64 1.69-.44.08-.44.08-2.67.46-1.87.31-3.75.63-5.62.94-2.83.46-5.66.95-8.49 1.43-9.18 1.55-18.27 3-27.58 3.48v-2c7.69-1.67 15.43-2.85 23.22-3.95.84-.12 1.69-.24 2.56-.37.77-.1 1.53-.21 2.32-.32C178 418 178 418 180 417c7.36-1.45 14.5-2.25 22-2"/>
<path fill="#caa45f" d="M525 678c3.32.01 5.99 2.68 6 5a6.005 6.005 0 0 1-6 6c-2.77-.01-4.99-2.23-5-6a5 5 0 0 1 5-5"/>
<path fill="#d1aa66" d="M602 561c12.98 2.16 25.52 8.86 33.81 19.27L637 582l-3 1c-.42-.48-.83-.97-1.26-1.47-8.19-8.91-18.92-14.92-30.74-17.53Z"/>
<path fill="#83745d" d="M361 500c2.39 2.32 4.69 4.63 6.84 7.17C378.8 520.01 392.95 528.89 407 538c-2 1-2 1-4.56.19C400 537 400 537 399 535c-2.47-1.34-5.01-2.5-7.55-3.68-2.31-1.25-3.69-2.43-5.45-4.32-.78-.45-1.57-.91-2.38-1.38-3.02-1.87-5.13-4.07-7.62-6.62-.91-.89-1.82-1.77-2.75-2.68s-1.86-1.82-2.81-2.76c-.93-.9-1.86-1.81-2.82-2.74C361 503.7 361 503.7 361 500"/>
<path fill="#d2ab6a" d="M508 644c1.47 2.71 2.3 5.04 2.81 8.06 1.5 7.18 4.82 13.7 8.5 20C521 675 521 675 521 677h7c-2.67 1.33-5.33 2.67-8 4v5h-1v-6h2c-.47-.74-.94-1.47-1.43-2.23-.62-.98-1.24-1.95-1.88-2.96-.62-.96-1.23-1.92-1.87-2.92-.6-.95-1.2-1.91-1.82-2.89-.26-.4-.26-.4-1.59-2.39-1.76-3.25-2.73-6.56-3.66-10.11-.09-.33-.09-.33-.56-1.97-1.03-3.85-1.34-6.69-.19-10.53"/>
<path fill="#a08f78" d="M353 392c2.37.71 4.74 1.42 7.11 2.14 1.91.57 3.83 1.12 5.75 1.66l2.7.76c.83.23 1.66.46 2.51.69C373 398 373 398 374 400l3 2c-6.55.43-11.53.41-17.25-3.03-1.75-.97-1.75-.97-3.89-1.47-1.86-.5-1.86-.5-3.11-2.56-.12-.32-.12-.32-.75-1.94Z"/>
<path fill="#d0aa64" d="M394 139h2c-.57 3.34-1.52 4.85-4.03 7.1-.31.29-.31.29-1.89 1.72-.66.6-1.33 1.19-2.02 1.8-1.36 1.25-2.73 2.49-4.09 3.74l-2.04 1.86c-4.11 3.79-8.02 7.79-11.93 11.78l-3-2 1.43-1.34c2.19-2.05 4.38-4.11 6.57-6.16.74-.7 1.49-1.39 2.25-2.11 4.49-4.21 8.86-8.5 13.12-12.94C392 141 392 141 394 141Z"/>
<path fill="#8c7e68" d="M506 481h1l2 6h16l1 3c-2.41.53-4.83 1.05-7.25 1.56-.34.08-.34.08-2.07.46-6.69 1.4-6.69 1.4-9.68-.02-2.44-3.66-2.24-5.69-2-10Z"/>
<path fill="#D5C4AA" d="M631 686c1.36 14.12-9.14 28.93-17 40-.33.16-.33.16-2 1 1.52-4.18 3.61-7.88 5.88-11.69 4.93-8.51 8.28-16.33 9.63-26.16.16-.71.32-1.42.49-2.15 2-1 2-1 3-1"/>
<path fill="#D5C4AA" d="M217 382c3.92.92 5.54 2.5 7.75 5.69 7.06 9.9 15.74 13.06 27.25 15.31v1c-9.91.75-18.3-2.61-25.92-8.92-3.61-3.6-6.47-7.71-9.08-12.08Z"/>
<path fill="#8b7c66" d="M318 387l2 1-3 4h2c-.28.55-.55 1.1-.84 1.66-.19.39-.19.39-1.16 2.34-.21.42-.21.42-1.25 2.52-3.61 7.85-4.61 14.88-4.75 23.48h-1c-.03-2.4-.05-4.79-.06-7.19l-.03-2.04c-.02-3.74.31-7.12 1.09-10.77-.23-.62-.45-1.24-.69-1.88-.53-3.6 1.68-6.28 3.69-9.12 2.25-2.44 2.25-2.44 4-4"/>
<path fill="#d1aa69" d="M136 440h3c.24 1.1.48 2.2.73 3.33 1.76 7.78 3.59 15.27 6.63 22.67.64 2 .64 2-.36 4l-3-1c-1.18-4.08-2.34-8.17-3.5-12.25-.33-1.16-.67-2.32-1.01-3.51-.32-1.12-.63-2.23-.96-3.38-.29-1.03-.59-2.05-.89-3.11C136 444 136 444 136 440"/>
<path fill="#d3ab62" d="M540 646c.38.39.38.39 2.31 2.38C545 651 545 651 548 653c.68.78 1.36 1.57 2.06 2.38 8.55 7.63 19.08 7.37 29.94 7.62-5.56 3.31-12.32 2.68-18.5 1.54-9.03-2.66-16.07-9-21.5-16.54Z"/>
<path fill="#caa35e" d="M184 248h2c-.64 3.29-1.84 5.6-3.65 8.41-.53.82-1.06 1.65-1.61 2.5-.27.43-.27.43-1.68 2.59-1.09 1.7-2.18 3.39-3.27 5.09-.49.75-.98 1.5-1.48 2.28-1.23 2-2.3 4.01-3.31 6.13h-3c1.6-4.47 3.86-8.34 6.31-12.38.38-.63.76-1.26 1.15-1.92 2.65-4.39 5.41-8.64 8.54-12.7"/>
<path fill="#cca45d" d="M497 146c4.6.67 8.61 2.42 12.81 4.31.71.32 1.42.63 2.15.95 4.75 2.12 9.43 4.34 14.04 6.74v2c-5.98-1.01-11.22-3.48-16.75-5.88-.53-.22-.53-.22-3.23-1.35-1.01-.44-2.02-.87-3.07-1.32-.92-.4-1.85-.8-2.8-1.21C498 149 498 149 497 146"/>
<path fill="#d0a768" d="M166 300h2c1.59 4.37 3.18 8.75 4.75 13.13.54 1.5 1.08 2.99 1.63 4.47l2.31 6.42c.25.67.49 1.34.75 2.03.58 1.63 1.08 3.29 1.56 4.95l-1 2c-2.7-2.34-3.69-4.36-4.75-7.75-.3-.92-.6-1.84-.9-2.78l-.91-2.91c-.61-1.89-1.21-3.79-1.82-5.68-.26-.84-.53-1.68-.8-2.55-.82-2.33-.82-2.33-1.91-4.46-1.16-2.38-1.05-4.26-.91-6.87"/>
<path fill="#d2af6e" d="M341 139c-2.37 2.78-4.39 3.65-7.89 4.61-.93.26-1.87.52-2.84.79-.97.26-1.95.52-2.96.79-.49.13-.49.13-2.99.82-2.44.67-4.88 1.34-7.32 1.99v-2l-2-1c3.58-1.2 7.16-2.39 10.75-3.56 1.02-.34 2.03-.69 3.08-1.04l2.97-.97c.9-.29 1.8-.59 2.73-.9 2.59-.56 4-.4 6.47.47"/>
<path fill="#cda55c" d="M175 290c7.21 2.35 14.33 4.91 21.44 7.56.54.2.54.2 3.29 1.21 1.04.39 2.07.77 3.14 1.17.94.35 1.88.7 2.84 1.05C208 302 208 302 210 304c-5.45-.4-9.46-1.47-14.36-3.82-4.4-1.97-8.96-3.46-13.5-5.03-2.5-.92-4.8-1.89-7.14-3.15Z"/>
<path fill="#8e7e68" d="M334 458c2.49.41 4.59.78 6.81 2 2.24 1.02 3.9 1.29 6.33 1.56 1.27.15 2.55.29 3.86.44q.765 3.78 1.5 7.56c.14.71.29 1.41.43 2.14.88 4.52 1.22 8.69 1.07 13.3-4.68-4.68-4.4-13.71-5-20-.58-.1-1.16-.2-1.76-.3-5.34-1.02-8.93-2.38-13.24-5.7Z"/>
<path fill="#cea25d" d="M584 515c2.54 2.54 2.44 3.89 2.85 7.42.13 1.09.26 2.18.39 3.3.13 1.14.25 2.29.38 3.47.14 1.12.27 2.25.41 3.41.63 5.5 1.15 10.86.97 16.4h-2q-.765-5.97-1.5-11.94c-.14-1.11-.29-2.23-.43-3.38-.78-6.28-1.23-12.35-1.07-18.68"/>
<path fill="#D5C4AA" d="M235 329l3 1c-.14.58-.29 1.17-.44 1.77-1.54 6.81-1.78 13.26-1.56 20.23l-4-2c-.35-7.63 0-13.92 3-21"/>
<path fill="#cb9d53" d="M508 613h2c-.03.29-.03.29-.2 1.74-.75 6.96-1.1 13.9-1.36 20.88-.05 1.1-.09 2.2-.13 3.34-.11 2.68-.21 5.36-.31 8.04-2.1-3.15-2.26-3.93-2.27-7.54v-2.7c0-.47 0-.47.02-2.82-.01-.91-.02-1.81-.02-2.74.01-6.28.82-12.1 2.27-18.2"/>
<path fill="#7e705a" d="M407 539c2.02.6 4.02 1.27 6 2l1 2c-.53.26-.53.26-3.21 1.59-3.92 2.24-6.1 5.13-8.35 8.97l-1.14 1.85c-3.3 5.42-6.37 10.97-9.3 16.59l-1-2c1.22-3.2 2.95-6.17 4.56-9.19.43-.84.86-1.67 1.31-2.54 2.75-5.21 5.71-10.28 10.13-14.27h2v-2l-3-2Z"/>
<path fill="#8b7d68" d="M496 527c3.7.5 7.35 1.25 11 2v2c-.27.12-.27.12-1.61.73-4.13 1.96-7.36 3.74-10.39 7.27-.03-1.81-.05-3.62-.06-5.44-.01-1.01-.03-2.02-.04-3.06.1-2.5.1-2.5 1.1-3.5"/>
<path fill="#d2ae70" d="M660 329c5.27 9.2 5.57 20.81 4 31h-1c-4.68-25.35-4.68-25.35-3-31"/>
<path fill="#d2ac6c" d="M581 322c5.15 7.73 8.61 20.58 8 30h-2c-.25-1.02-.51-2.03-.77-3.08-.16-.66-.33-1.32-.5-2-.36-1.45-.73-2.91-1.09-4.36-.85-3.41-1.71-6.82-2.61-10.22-.28-1.06-.56-2.12-.84-3.22-.26-.94-.51-1.89-.77-2.86C580 324 580 324 581 322"/>
<path fill="#d2a760" d="M417 143c3.15 1.36 4.95 2.81 7.09 5.48.56.69 1.11 1.38 1.69 2.09.57.72 1.13 1.44 1.72 2.18.57.7 1.14 1.41 1.72 2.13 3.14 3.92 6.07 7.89 8.78 12.12l-2 2c-.63-.82-1.26-1.64-1.91-2.49-.86-1.13-1.73-2.26-2.59-3.39-.45-.58-.9-1.17-1.36-1.77-3.47-4.51-7.02-8.94-10.64-13.33C418 146 418 146 417 143"/>
<path fill="#8b7c65" d="M323 455c1.21 3.63.76 4.23-.88 7.56-4.72 8.96-11.76 15.84-20.12 21.44l-3-1c.78-.43 1.57-.87 2.38-1.31C304 480 304 480 306 477c.72-.37 1.44-.74 2.19-1.12C315.49 471 319.47 462.8 323 455"/></svg></svg>